<svg width="50" height="50" viewBox="0 0 50 50" fill="none" xmlns="http://www.w3.org/2000/svg">
<circle cx="25" cy="25" r="25" fill="#E9FFFA"/>
<path fill-rule="evenodd" clip-rule="evenodd" d="M19.8002 36.8266C20.185 36.8266 20.4662 36.9081 20.6438 37.0711C20.8214 37.2341 20.9103 37.4876 20.9105 37.8316V39.6754H20.3333V37.9096C20.3333 37.5208 20.1153 37.3264 19.6793 37.3264C19.491 37.3248 19.3061 37.3769 19.1462 37.4764C19.1739 37.5927 19.1869 37.712 19.1849 37.8316V39.6754H18.6077V37.9096C18.6077 37.5208 18.3897 37.3264 17.9537 37.3264C17.7548 37.3266 17.5575 37.3623 17.3711 37.432V39.6754H16.7942V37.1155C16.9852 37.0205 17.1874 36.95 17.396 36.9055C17.6185 36.8536 17.8461 36.8267 18.0746 36.8251C18.4346 36.8251 18.7021 36.8951 18.8771 37.0351C19.1653 36.8974 19.4808 36.8262 19.8002 36.8266ZM22.8881 39.76C22.4481 39.76 22.1174 39.6341 21.896 39.3823C21.6746 39.1305 21.5638 38.764 21.5636 38.2828C21.5636 37.309 22.0036 36.8222 22.8836 36.8224C23.327 36.8224 23.6604 36.9473 23.8838 37.1971C24.1072 37.4469 24.219 37.8088 24.2192 38.2828C24.2192 38.7564 24.1038 39.121 23.873 39.3766C23.6422 39.6322 23.3139 39.76 22.8881 39.76ZM22.8824 39.2656C23.3882 39.2656 23.641 38.938 23.6408 38.2828C23.6408 37.957 23.5808 37.7136 23.4608 37.5526C23.3408 37.3916 23.1484 37.311 22.8836 37.3108C22.6162 37.3108 22.4248 37.3932 22.3094 37.558C22.194 37.7228 22.1363 37.9644 22.1363 38.2828C22.1363 38.601 22.1958 38.8444 22.3148 39.013C22.4338 39.1816 22.623 39.2654 22.8824 39.2644V39.2656ZM26.1461 36.8278C26.5565 36.8278 26.8679 36.9518 27.0803 37.1998C27.2927 37.4478 27.3992 37.7991 27.3998 38.2537C27.3998 38.8017 27.2725 39.1895 27.0179 39.4171C26.7633 39.6447 26.4397 39.759 26.0471 39.76C25.2593 39.76 24.8654 39.549 24.8654 39.127V35.7715H25.4372V37C25.5522 36.9451 25.6729 36.9031 25.7972 36.8749C25.9113 36.8456 26.0284 36.8294 26.1461 36.8266V36.8278ZM26.003 39.2545C26.303 39.2545 26.513 39.1675 26.633 38.9935C26.753 38.8195 26.813 38.5807 26.813 38.2771C26.813 37.9663 26.7498 37.7294 26.6234 37.5664C26.497 37.4034 26.3093 37.322 26.0603 37.3222C25.9518 37.3229 25.8438 37.3368 25.7387 37.3636C25.6335 37.389 25.5324 37.4294 25.4387 37.4836V38.9836C25.4377 39.1636 25.6258 39.2535 26.003 39.2533V39.2545ZM28.052 35.917H28.6676V36.4447H28.052V35.917ZM28.0685 36.9055H28.6457L28.6511 39.6766H28.0685V36.9055ZM29.4635 39.6766V35.8327H30.0353V39.6754L29.4635 39.6766ZM31.9688 36.82C32.3976 36.82 32.7118 36.96 32.9114 37.24C33.111 37.52 33.209 37.9115 33.2054 38.4145H31.2698C31.2884 38.6885 31.3684 38.8968 31.5098 39.0394C31.6512 39.182 31.8518 39.2532 32.1116 39.253C32.4229 39.2533 32.7291 39.175 33.002 39.0253V39.5695C32.7162 39.6965 32.3888 39.76 32.0198 39.76C31.6058 39.76 31.2806 39.6332 31.0442 39.3796C30.8078 39.126 30.6897 38.766 30.6899 38.2996C30.6899 37.822 30.8016 37.4565 31.025 37.2031C31.2484 36.9497 31.563 36.822 31.9688 36.82ZM31.9523 37.3C31.7581 37.3 31.6061 37.3519 31.4963 37.4557C31.3865 37.5595 31.315 37.7353 31.2818 37.9831H32.6174C32.5916 37.7461 32.5256 37.5731 32.4194 37.4641C32.3132 37.3551 32.1575 37.3004 31.9523 37.3ZM26.4398 14.4538C25.8032 14.2964 25.3132 14.2176 24.9698 14.2174C22.4081 14.2174 20.3312 16.2874 20.3312 18.8401C20.3312 21.3928 22.409 23.4631 24.9698 23.4631C27.5306 23.4631 29.6087 21.3931 29.6087 18.8401C29.6089 18.4672 29.564 18.0956 29.4749 17.7334L33.1628 16.7401C33.4616 17.8758 33.518 19.0617 33.3286 20.2207C33.1392 21.3796 32.7081 22.4858 32.0633 23.4673L25.9565 34.789H20.2991L24.3191 27.379C24.341 27.3382 24.2765 27.2482 24.2225 27.2434C19.9268 26.8534 16.562 23.2534 16.562 18.8707C16.562 14.227 20.339 10.4629 24.9986 10.4629C25.8516 10.462 26.6998 10.5901 27.5144 10.843L26.4398 14.4538Z" fill="#006E53"/>
<path d="M24.9419 21.3826C26.3461 21.3826 27.4844 20.2443 27.4844 18.8401C27.4844 17.4359 26.3461 16.2976 24.9419 16.2976C23.5377 16.2976 22.3994 17.4359 22.3994 18.8401C22.3994 20.2443 23.5377 21.3826 24.9419 21.3826Z" fill="#D6E806"/>
<path d="M29.3339 17.1067C28.8934 16.0041 28.0444 15.1139 26.9639 14.6218M30.9521 16.4131C30.33 14.8838 29.1537 13.6457 27.6584 12.946M32.5124 15.8932C31.72 13.8771 30.1618 12.2567 28.1783 11.386" stroke="#D6E806" stroke-width="1.5" stroke-linecap="round"/>
</svg>
