<svg width="25" height="25" viewBox="0 0 25 25" fill="none" xmlns="http://www.w3.org/2000/svg">
<g id="solar:wallet-outline">
<g id="Group">
<path id="Vector" d="M19.7917 12.5C19.7917 12.7763 19.682 13.0413 19.4866 13.2366C19.2913 13.432 19.0263 13.5417 18.75 13.5417C18.4738 13.5417 18.2088 13.432 18.0135 13.2366C17.8181 13.0413 17.7084 12.7763 17.7084 12.5C17.7084 12.2238 17.8181 11.9588 18.0135 11.7635C18.2088 11.5681 18.4738 11.4584 18.75 11.4584C19.0263 11.4584 19.2913 11.5681 19.4866 11.7635C19.682 11.9588 19.7917 12.2238 19.7917 12.5Z" fill="#868585"/>
<path id="Vector_2" fill-rule="evenodd" clip-rule="evenodd" d="M10.3584 3.38544H13.6C15.5146 3.38544 17.0313 3.38544 18.2178 3.54481C19.4386 3.7094 20.4271 4.05523 21.2073 4.8344C22.1698 5.79794 22.4771 7.08752 22.5886 8.76148C23.1896 9.02502 23.6438 9.58439 23.6928 10.2927C23.698 10.3563 23.698 10.424 23.698 10.4865V14.5136C23.698 14.5761 23.698 14.6438 23.6938 14.7063C23.6438 15.4146 23.1896 15.975 22.5886 16.2396C22.4771 17.9125 22.1698 19.2021 21.2073 20.1656C20.4271 20.9448 19.4386 21.2906 18.2178 21.4552C17.0303 21.6146 15.5146 21.6146 13.6 21.6146H10.3584C8.44379 21.6146 6.92712 21.6146 5.74067 21.4552C4.51983 21.2906 3.53129 20.9448 2.75108 20.1656C1.97192 19.3854 1.62608 18.3969 1.4615 17.1761C1.30212 15.9886 1.30212 14.4729 1.30212 12.5584V12.4417C1.30212 10.5271 1.30212 9.01044 1.4615 7.82398C1.62608 6.60315 1.97192 5.6146 2.75108 4.8344C3.53129 4.05523 4.51983 3.7094 5.74067 3.54481C6.92817 3.38544 8.44379 3.38544 10.3584 3.38544ZM21.0084 16.4063H18.9896C16.7552 16.4063 14.8427 14.7104 14.8427 12.5C14.8427 10.2896 16.7552 8.59377 18.9886 8.59377H21.0073C20.8886 7.1969 20.6209 6.45835 20.1011 5.9396C19.6605 5.49898 19.0563 5.2344 18.0084 5.09377C16.9386 4.95002 15.5271 4.94794 13.5407 4.94794H10.4157C8.42921 4.94794 7.01879 4.95002 5.94692 5.09377C4.90004 5.2344 4.29587 5.49898 3.85525 5.9396C3.41462 6.38023 3.15004 6.9844 3.00942 8.03231C2.86567 9.10315 2.86358 10.5136 2.86358 12.5C2.86358 14.4865 2.86567 15.8969 3.00942 16.9688C3.15004 18.0156 3.41462 18.6198 3.85525 19.0604C4.29587 19.5011 4.90004 19.7656 5.94796 19.9063C7.01879 20.05 8.42921 20.0521 10.4157 20.0521H13.5407C15.5271 20.0521 16.9386 20.05 18.0094 19.9063C19.0563 19.7656 19.6605 19.5011 20.1011 19.0604C20.6209 18.5417 20.8896 17.8042 21.0084 16.4063ZM5.46879 8.33335C5.46879 8.12615 5.5511 7.92744 5.69761 7.78093C5.84413 7.63441 6.04284 7.5521 6.25004 7.5521H10.4167C10.6239 7.5521 10.8226 7.63441 10.9691 7.78093C11.1156 7.92744 11.198 8.12615 11.198 8.33335C11.198 8.54055 11.1156 8.73927 10.9691 8.88578C10.8226 9.03229 10.6239 9.1146 10.4167 9.1146H6.25004C6.04284 9.1146 5.84413 9.03229 5.69761 8.88578C5.5511 8.73927 5.46879 8.54055 5.46879 8.33335ZM21.7959 10.1563H18.9896C17.5063 10.1563 16.4052 11.2594 16.4052 12.5C16.4052 13.7406 17.5063 14.8438 18.9886 14.8438H21.8198C22.0344 14.8302 22.1271 14.6854 22.1344 14.5979V10.4021C22.1271 10.3146 22.0344 10.1698 21.8198 10.1573H21.7948L21.7959 10.1563Z" fill="#868585"/>
</g>
</g>
</svg>
