<svg width="30" height="30" viewBox="0 0 30 30" fill="none" xmlns="http://www.w3.org/2000/svg">
<g id="system-uicons:user-add">
<g id="Group">
<path id="Vector" d="M24.9996 6.42855V12.1428M27.8567 9.2857H22.1424M14.9996 3.57141C16.1362 3.57141 17.2263 4.02294 18.03 4.82667C18.8338 5.6304 19.2853 6.72048 19.2853 7.85713V10.7143C19.2853 11.8509 18.8338 12.941 18.03 13.7447C17.2263 14.5485 16.1362 15 14.9996 15C13.8629 15 12.7729 14.5485 11.9691 13.7447C11.1654 12.941 10.7139 11.8509 10.7139 10.7143V7.85713C10.7139 6.72048 11.1654 5.6304 11.9691 4.82667C12.7729 4.02294 13.8629 3.57141 14.9996 3.57141Z" stroke="black" stroke-width="1.5" stroke-linecap="round" stroke-linejoin="round"/>
<path id="Vector_2" fill-rule="evenodd" clip-rule="evenodd" d="M25 23.5714V22.5314C25 17.9786 19.7343 15 15 15C10.2657 15 5 17.9786 5 22.5314V23.5714C5 23.9503 5.15051 24.3137 5.41842 24.5816C5.68633 24.8495 6.04969 25 6.42857 25H23.5714C23.9503 25 24.3137 24.8495 24.5816 24.5816C24.8495 24.3137 25 23.9503 25 23.5714Z" stroke="black" stroke-width="1.5" stroke-linecap="round" stroke-linejoin="round"/>
</g>
</g>
</svg>
