<svg width="30" height="30" viewBox="0 0 30 30" fill="none" xmlns="http://www.w3.org/2000/svg">
<g id="ph:plus-fill">
<path id="Vector" d="M24.375 3.75H5.625C5.12772 3.75 4.65081 3.94754 4.29917 4.29917C3.94754 4.65081 3.75 5.12772 3.75 5.625V24.375C3.75 24.8723 3.94754 25.3492 4.29917 25.7008C4.65081 26.0525 5.12772 26.25 5.625 26.25H24.375C24.8723 26.25 25.3492 26.0525 25.7008 25.7008C26.0525 25.3492 26.25 24.8723 26.25 24.375V5.625C26.25 5.12772 26.0525 4.65081 25.7008 4.29917C25.3492 3.94754 24.8723 3.75 24.375 3.75ZM21.5625 15.9375H15.9375V21.5625C15.9375 21.8111 15.8387 22.0496 15.6629 22.2254C15.4871 22.4012 15.2486 22.5 15 22.5C14.7514 22.5 14.5129 22.4012 14.3371 22.2254C14.1613 22.0496 14.0625 21.8111 14.0625 21.5625V15.9375H8.4375C8.18886 15.9375 7.9504 15.8387 7.77459 15.6629C7.59877 15.4871 7.5 15.2486 7.5 15C7.5 14.7514 7.59877 14.5129 7.77459 14.3371C7.9504 14.1613 8.18886 14.0625 8.4375 14.0625H14.0625V8.4375C14.0625 8.18886 14.1613 7.9504 14.3371 7.77459C14.5129 7.59877 14.7514 7.5 15 7.5C15.2486 7.5 15.4871 7.59877 15.6629 7.77459C15.8387 7.9504 15.9375 8.18886 15.9375 8.4375V14.0625H21.5625C21.8111 14.0625 22.0496 14.1613 22.2254 14.3371C22.4012 14.5129 22.5 14.7514 22.5 15C22.5 15.2486 22.4012 15.4871 22.2254 15.6629C22.0496 15.8387 21.8111 15.9375 21.5625 15.9375Z" fill="white"/>
</g>
</svg>
