<svg width="50" height="50" viewBox="0 0 50 50" fill="none" xmlns="http://www.w3.org/2000/svg">
<path d="M50 25C50 38.8071 38.8071 50 25 50C11.1929 50 0 38.8071 0 25C0 11.1929 11.1929 0 25 0C38.8071 0 50 11.1929 50 25Z" fill="#FFECEE"/>
<path d="M28.5972 10C29.6152 10.0141 30.5865 10.2073 31.4935 10.6686C32.2931 11.078 32.9451 11.6503 33.3902 12.4392C33.6794 12.96 33.8691 13.5301 33.9496 14.1203C34.1151 15.2534 33.9478 16.3495 33.5741 17.4213C33.3545 18.05 33.0506 18.6396 32.7215 19.2187C32.0511 20.3976 31.1896 21.4193 30.1876 22.325C28.902 23.4882 27.4923 24.5063 25.9839 25.3609C25.3995 25.6909 24.7937 25.968 24.1419 26.1375C23.7427 26.2453 23.3305 26.2975 22.9169 26.2925C22.3726 26.2814 21.9466 26.0335 21.6154 25.6159C21.3095 25.241 21.1519 24.7669 21.1725 24.2835C21.1761 24.1491 21.1955 24.0155 21.2303 23.8856C21.4275 23.1852 21.6953 22.5145 22.0958 21.9027C22.4018 21.4356 22.7666 21.0207 23.2436 20.7239C23.7741 20.3936 24.3508 20.2524 24.9745 20.3886C25.1695 20.4344 25.353 20.5197 25.5136 20.6393C25.9242 20.9327 25.9027 21.3931 25.7056 21.6871C25.5367 21.9427 25.3479 22.1844 25.1409 22.4102C24.7903 22.7879 24.4178 23.145 24.0543 23.5103C23.7326 23.8336 23.4303 24.1728 23.1851 24.5594C23.0581 24.7599 22.9409 24.9645 22.9059 25.2053C22.8616 25.5073 23.0184 25.7131 23.3232 25.7414C23.4809 25.7542 23.6396 25.7383 23.7916 25.6943C24.26 25.5648 24.6949 25.356 25.1221 25.1309C25.7809 24.7824 26.389 24.3564 26.9816 23.9071C27.7001 23.3624 28.3985 22.7943 29.0422 22.1626C29.7755 21.4439 30.429 20.6627 30.9291 19.7612C31.2945 19.1031 31.5636 18.408 31.6832 17.6625C31.789 17.0058 31.73 16.3661 31.4258 15.7633C31.2793 15.4653 31.0502 15.2158 30.7658 15.0445C30.6345 14.9655 30.4896 14.9115 30.3386 14.8852C29.789 14.7877 29.2572 14.8677 28.7347 15.0421C28.19 15.2242 27.6847 15.4899 27.1935 15.7802C26.1275 16.4126 25.0603 17.0446 24.0444 17.7566C23.5351 18.1133 23.0415 18.4929 22.5423 18.8638C22.0915 19.199 21.6437 19.5382 21.151 19.8123C20.7511 20.04 20.3184 20.2042 19.8681 20.2991C19.3102 20.4123 18.796 20.3071 18.3236 20.0039C17.8333 19.6893 17.4901 19.2574 17.3394 18.686C17.2435 18.3252 17.2813 17.9676 17.364 17.6114C17.4849 17.0886 17.7143 16.6149 18.0003 16.1659C18.7077 15.0568 19.5972 14.116 20.6315 13.3118C22.1644 12.12 23.851 11.2022 25.6754 10.5382C26.6121 10.1956 27.5999 10.0136 28.5972 10Z" fill="#E20010"/>
<path d="M15.9863 35.3562C15.9811 35.008 15.9414 34.6949 15.7403 34.4233C15.6423 34.2921 15.5067 34.1939 15.3515 34.1416C14.9517 33.9983 14.5445 34.0152 14.1474 34.1379C13.8291 34.2364 13.5222 34.3704 13.2106 34.4901C13.1491 34.5128 13.0931 34.5421 13.0187 34.5753C12.872 34.2114 12.7278 33.8584 12.5767 33.4893C12.7954 33.3857 13.0015 33.2799 13.214 33.1891C13.7036 32.9797 14.2114 32.836 14.7453 32.8038C15.2792 32.7715 15.8061 32.7998 16.292 33.0587C16.8416 33.3497 17.2384 33.7698 17.4045 34.3812C17.4284 34.4612 17.4428 34.5438 17.4472 34.6273C17.4684 35.4211 17.497 36.2149 17.5004 37.0087C17.5026 37.5512 17.4669 38.094 17.4509 38.6369C17.448 38.7113 17.417 38.7819 17.3642 38.8343C16.9843 39.2526 16.5196 39.5417 15.9931 39.7358C15.4285 39.9418 14.8272 40.0282 14.2274 39.9895C13.6738 39.9587 13.1959 39.7321 12.7917 39.3559C12.3876 38.9798 12.1053 38.5255 12.0265 37.9689C11.9189 37.2064 12.1388 36.5449 12.6869 36.0005C13.0393 35.6505 13.4736 35.4697 13.9629 35.4057C14.5042 35.3353 15.0473 35.354 15.5905 35.3556L15.9863 35.3562ZM15.9153 36.5956C15.8834 36.5893 15.8511 36.5849 15.8187 36.5824C15.6342 36.5787 15.4475 36.5722 15.262 36.575C15.0397 36.5784 14.8164 36.5793 14.5952 36.6002C14.3667 36.6221 14.145 36.6888 13.9678 36.8414C13.6738 37.0948 13.5865 37.4257 13.6581 37.7988C13.7473 38.2601 14.005 38.5824 14.4645 38.7196C14.7014 38.7905 14.9523 38.801 15.1944 38.7504C15.4193 38.7092 15.6292 38.6085 15.8021 38.4588C15.8314 38.4361 15.8554 38.4074 15.8727 38.3746C15.8899 38.3418 15.8999 38.3057 15.902 38.2687C15.9091 38.1066 15.93 37.9449 15.9313 37.7828C15.9337 37.4116 15.9282 37.0403 15.9251 36.6691C15.9233 36.6445 15.92 36.6199 15.9153 36.5956Z" fill="#E20010"/>
<path d="M34.485 36.5649C33.1656 36.5649 31.8708 36.5366 30.5578 36.571C30.5646 36.6633 30.5686 36.7507 30.5769 36.8358C30.6107 37.1843 30.6858 37.5229 30.8331 37.8425C30.9477 38.1031 31.1255 38.331 31.3504 38.5056C31.7072 38.7765 32.1144 38.8208 32.5416 38.7658C32.8947 38.7202 33.2234 38.5911 33.5513 38.461C33.7017 38.4016 33.8508 38.3379 34.0126 38.2718C34.1664 38.5935 34.3171 38.9097 34.474 39.2351C34.445 39.256 34.418 39.2794 34.3878 39.2966C33.7481 39.6761 33.061 39.9206 32.3189 39.9852C31.6423 40.044 30.9964 39.9329 30.4121 39.5586C30.0141 39.3037 29.7354 38.9435 29.5023 38.5406C29.2152 38.0394 29.0413 37.4813 28.993 36.9057C28.8954 35.8561 29.1183 34.8789 29.6616 33.974C30.0405 33.3451 30.6061 33.0034 31.3141 32.8856C31.9649 32.7712 32.6353 32.8827 33.2139 33.2018C33.5381 33.3774 33.7638 33.6539 33.9499 33.9639C34.1959 34.3726 34.3254 34.8232 34.3875 35.2901C34.438 35.6665 34.454 36.0476 34.4841 36.428C34.4878 36.4671 34.485 36.5077 34.485 36.5649ZM32.8857 35.37C32.8092 35.0191 32.7569 34.6605 32.5271 34.3631C32.4119 34.2153 32.2501 34.1108 32.0679 34.0666C31.5835 33.9384 31.0967 34.1616 30.8885 34.6202C30.814 34.7835 30.7704 34.961 30.7162 35.1329C30.6919 35.2107 30.6763 35.2916 30.6569 35.37C30.787 35.4045 32.7526 35.406 32.8864 35.371L32.8857 35.37Z" fill="#E20010"/>
<path d="M25.8293 31.2045L27.4036 30.9609V32.8945C27.753 32.9154 28.0858 32.8926 28.4204 32.9286V34.1198C28.0821 34.1253 27.7509 34.1152 27.4055 34.1361C27.4055 34.2031 27.4055 34.2533 27.4055 34.3034C27.4026 35.45 27.4002 36.5966 27.3981 37.7434C27.3981 37.924 27.4126 38.1048 27.4289 38.2847C27.4547 38.5615 27.6082 38.7371 27.8764 38.8045C28.0243 38.842 28.1762 38.8632 28.3263 38.8918L28.477 38.9226V39.9335C28.4601 39.9419 28.4421 39.9479 28.4235 39.9514C27.9766 39.9714 27.5316 39.9597 27.0995 39.8283C26.6775 39.701 26.3257 39.4703 26.087 39.0902C25.9514 38.8749 25.8825 38.6329 25.8526 38.3828C25.8346 38.2262 25.8258 38.0687 25.8262 37.911C25.8262 35.7335 25.8274 33.5562 25.8299 31.3792L25.8293 31.2045Z" fill="#E20010"/>
<path d="M35.3506 31.2057L36.873 30.9418V31.1519C36.873 33.1295 36.8738 35.1071 36.8754 37.0847C36.8754 37.4467 36.8785 37.8086 36.8813 38.1709C36.8837 38.5283 37.0141 38.7104 37.3555 38.8168C37.4715 38.8489 37.5893 38.8742 37.7083 38.8925C37.7809 38.906 37.8544 38.9125 37.9426 38.9232V39.956C37.9344 39.9628 37.9247 39.9675 37.9143 39.9698C37.4819 39.9874 37.0513 39.9803 36.6309 39.8573C36.3762 39.784 36.139 39.6596 35.9337 39.4919C35.5514 39.1791 35.3958 38.7599 35.3558 38.2872C35.3441 38.1488 35.3456 38.0089 35.3459 37.8698C35.3459 35.7065 35.3475 33.5434 35.3506 31.3804V31.2057Z" fill="#E20010"/>
<path d="M22.7685 39.8646H21.2307C21.2289 39.8004 21.2258 39.7416 21.2255 39.6835C21.2239 38.7596 21.2225 37.8357 21.2215 36.9118C21.2197 36.1737 21.215 35.4355 21.2153 34.6974C21.2158 34.5635 21.2261 34.4299 21.2461 34.2976C21.2689 34.1466 21.3479 34.0208 21.4577 33.9147C22.0617 33.3266 22.7854 32.9741 23.6106 32.8222C24.1277 32.7274 24.6577 32.7267 25.1751 32.8201C25.2025 32.825 25.2299 32.8311 25.2566 32.8379C25.2699 32.8413 25.2825 32.8477 25.308 32.8576C25.1333 33.3017 24.9205 33.7261 24.72 34.1456C24.4804 34.1456 24.2534 34.1386 24.027 34.1472C23.6361 34.1601 23.2524 34.2557 22.9011 34.4277C22.8014 34.4766 22.7642 34.5375 22.7645 34.6522C22.7688 36.3335 22.7698 38.0148 22.7676 39.6961L22.7685 39.8646Z" fill="#E20010"/>
<path d="M20.0965 32.9597C20.1128 35.2639 20.0949 37.5546 20.1097 39.8594H18.6048C18.6011 39.8037 18.5938 39.7456 18.5938 39.6875C18.5938 38.2389 18.5938 36.7901 18.5938 35.3411C18.5938 34.6771 18.5993 34.0131 18.6021 33.3491C18.6021 33.2986 18.6021 33.2482 18.6021 33.1848L20.0965 32.9597Z" fill="#E20010"/>
<path d="M19.2814 32.2815C18.5466 32.2797 18.0865 31.5483 18.3913 30.8579C18.5786 30.4344 18.9003 30.2735 19.3644 30.2763C19.9863 30.2815 20.4473 30.9 20.2991 31.5044C20.1807 31.9872 19.7931 32.2828 19.2814 32.2815Z" fill="#E20010"/>
</svg>
