<svg width="14" height="23" viewBox="0 0 14 23" fill="none" xmlns="http://www.w3.org/2000/svg">
<path d="M11.1458 0.041666H2.81248C2.12181 0.041666 1.45943 0.316033 0.971056 0.804409C0.48268 1.29278 0.208313 1.95516 0.208313 2.64583V20.3542C0.208313 21.0448 0.48268 21.7072 0.971056 22.1956C1.45943 22.684 2.12181 22.9583 2.81248 22.9583H11.1458C11.8365 22.9583 12.4989 22.684 12.9872 22.1956C13.4756 21.7072 13.75 21.0448 13.75 20.3542V2.64583C13.75 1.95516 13.4756 1.29278 12.9872 0.804409C12.4989 0.316033 11.8365 0.041666 11.1458 0.041666V0.041666ZM6.97915 21.9167C6.11456 21.9167 5.41665 21.2187 5.41665 20.3542C5.41665 19.4896 6.11456 18.7917 6.97915 18.7917C7.84373 18.7917 8.54165 19.4896 8.54165 20.3542C8.54165 21.2187 7.84373 21.9167 6.97915 21.9167ZM11.6666 17.75H2.29165V3.16667H11.6666V17.75Z" fill="#525252"/>
</svg>
