<svg width="24" height="15" viewBox="0 0 24 15" fill="none" xmlns="http://www.w3.org/2000/svg">
<path d="M23.75 5V3.75H16.25C15.5625 3.75 15 3.1875 15 2.5C15 1.8125 15.5625 1.25 16.25 1.25H16.875V0H16.25C14.875 0 13.75 1.125 13.75 2.5C13.75 3.875 14.875 5 16.25 5H18.125V8.75H16.25C14.5 8.75 13.125 10.125 13.125 11.875C13.125 13.625 14.5 15 16.25 15H17.5V13.75H16.25C15.1875 13.75 14.375 12.9375 14.375 11.875C14.375 10.8125 15.1875 10 16.25 10H23.75V8.75H19.375V5H23.75ZM7.5 8.75H5.625V5H7.5C8.875 5 10 3.875 10 2.5C10 1.125 8.875 0 7.5 0H5.625V1.25H7.5C8.1875 1.25 8.75 1.8125 8.75 2.5C8.75 3.1875 8.1875 3.75 7.5 3.75H0V5H4.375V8.75H0V10H7.5C8.5625 10 9.375 10.8125 9.375 11.875C9.375 12.9375 8.5625 13.75 7.5 13.75H6.25V15H7.5C9.25 15 10.625 13.625 10.625 11.875C10.625 10.125 9.25 8.75 7.5 8.75Z" fill="#FFD54F"/>
</svg>
