<svg width="17" height="17" viewBox="0 0 17 17" fill="none" xmlns="http://www.w3.org/2000/svg">
<path d="M8.49996 0.166666C9.60503 0.166666 10.6648 0.605653 11.4462 1.38705C12.2276 2.16846 12.6666 3.22826 12.6666 4.33333C12.6666 5.4384 12.2276 6.49821 11.4462 7.27961C10.6648 8.06101 9.60503 8.5 8.49996 8.5C7.39489 8.5 6.33508 8.06101 5.55368 7.27961C4.77228 6.49821 4.33329 5.4384 4.33329 4.33333C4.33329 3.22826 4.77228 2.16846 5.55368 1.38705C6.33508 0.605653 7.39489 0.166666 8.49996 0.166666ZM8.49996 10.5833C13.1041 10.5833 16.8333 12.4479 16.8333 14.75V16.8333H0.166626V14.75C0.166626 12.4479 3.89579 10.5833 8.49996 10.5833Z" fill="#868585"/>
</svg>
