<svg width="43" height="40" viewBox="0 0 43 40" fill="none" xmlns="http://www.w3.org/2000/svg">
<path id="Vector" d="M38.935 31.1111H4.71616V4.44444H38.935V31.1111ZM38.935 0H4.71616C3.70778 0 2.7407 0.468252 2.02767 1.30175C1.31464 2.13524 0.914063 3.2657 0.914062 4.44444V31.1111C0.914063 32.2899 1.31464 33.4203 2.02767 34.2538C2.7407 35.0873 3.70778 35.5556 4.71616 35.5556H14.2214V40H29.4298V35.5556H38.935C39.9434 35.5556 40.9105 35.0873 41.6235 34.2538C42.3365 33.4203 42.7371 32.2899 42.7371 31.1111V4.44444C42.7371 3.2657 42.3365 2.13524 41.6235 1.30175C40.9105 0.468252 39.9434 0 38.935 0Z" fill="#525252"/>
</svg>
