<svg width="43" height="30" viewBox="0 0 43 30" fill="none" xmlns="http://www.w3.org/2000/svg">
<path id="Vector" d="M6.07882 17.0225V21.8541C6.07882 23.1093 6.87897 24.2786 8.15922 24.8804L18.1611 29.5744C19.3614 30.1419 20.8017 30.1419 22.0019 29.5744L32.0038 24.8804C33.2841 24.2786 34.0842 23.1093 34.0842 21.8541V17.0225L22.0019 22.6967C20.8017 23.2641 19.3614 23.2641 18.1611 22.6967L6.07882 17.0225ZM18.1611 0.412667L1.29789 8.32211C-0.0823712 8.9755 -0.0823712 10.6949 1.29789 11.3483L18.1611 19.2578C19.3614 19.8252 20.8017 19.8252 22.0019 19.2578L38.085 11.7094V21.8713C38.085 22.817 38.9852 23.5908 40.0854 23.5908C41.1856 23.5908 42.0858 22.817 42.0858 21.8713V10.8497C42.0858 10.2135 41.6857 9.64608 41.0456 9.33658L22.0019 0.412667C21.4109 0.141725 20.7513 0 20.0815 0C19.4117 0 18.7522 0.141725 18.1611 0.412667V0.412667Z" fill="#525252"/>
</svg>
