<svg width="23" height="23" viewBox="0 0 23 23" fill="none" xmlns="http://www.w3.org/2000/svg">
<path d="M19.1667 21.0833H3.83333C3.57917 21.0833 3.33541 20.9824 3.15569 20.8026C2.97597 20.6229 2.875 20.3792 2.875 20.125V2.875C2.875 2.62083 2.97597 2.37708 3.15569 2.19735C3.33541 2.01763 3.57917 1.91666 3.83333 1.91666H19.1667C19.4208 1.91666 19.6646 2.01763 19.8443 2.19735C20.024 2.37708 20.125 2.62083 20.125 2.875V20.125C20.125 20.3792 20.024 20.6229 19.8443 20.8026C19.6646 20.9824 19.4208 21.0833 19.1667 21.0833ZM7.66667 8.625V10.5417H15.3333V8.625H7.66667ZM7.66667 12.4583V14.375H15.3333V12.4583H7.66667Z" fill="#525252"/>
</svg>
