<svg width="54" height="50" viewBox="0 0 54 50" fill="none" xmlns="http://www.w3.org/2000/svg">
<g id="vector">
<g id="Group 1">
<path id="Vector" d="M37.8008 25.7777C37.7953 24.0969 37.607 22.4212 37.2388 20.7777H41.9439C41.7015 20.0922 41.4089 19.4239 41.0682 18.7777H36.6898C35.8668 16.1478 34.5902 13.6679 32.9127 11.4402C31.841 11.0092 30.7235 10.6907 29.5799 10.4902C31.878 12.8518 33.6127 15.6623 34.664 18.7277H27.6195V10.2777H25.659V18.7402H18.6144C19.668 15.6693 21.4072 12.8542 23.7116 10.4902C22.573 10.6874 21.4599 11.0017 20.3919 11.4277C18.7078 13.646 17.4224 16.1174 16.5886 18.7402H12.1841C11.8372 19.3982 11.5402 20.0791 11.2954 20.7777H16.0397C15.6715 22.4212 15.4832 24.0969 15.4777 25.7777C15.4813 27.6162 15.7005 29.4485 16.1312 31.2402H11.5045C11.7749 31.9409 12.0981 32.6219 12.4717 33.2777H16.6932C17.4933 35.6725 18.6795 37.933 20.2089 39.9777C21.3042 40.427 22.4483 40.7582 23.6201 40.9652C21.4871 38.7399 19.8466 36.125 18.7974 33.2777H25.6721V41.2027H27.6325V33.2777H34.4811C33.4283 36.1262 31.7833 38.7413 29.6453 40.9652C30.8226 40.7511 31.9712 40.4115 33.0695 39.9527C34.5965 37.9157 35.7826 35.6637 36.5853 33.2777H40.7676C41.1394 32.634 41.4626 31.9656 41.7347 31.2777H37.095C37.5462 29.4757 37.783 27.6306 37.8008 25.7777V25.7777ZM25.659 31.2402H18.157C17.2369 27.8 17.1965 24.1985 18.0394 20.7402H25.659V31.2402ZM35.1215 31.2402H27.6195V20.7777H35.2391C35.6146 22.4199 35.7987 24.0968 35.788 25.7777C35.7987 27.6177 35.5748 29.4521 35.1215 31.2402V31.2402Z" fill="#525252"/>
<path id="Vector_2" d="M26.6391 5.77777C22.5032 5.77777 18.4601 6.95075 15.0213 9.14838C11.5824 11.346 8.90209 14.4696 7.31934 18.1241C5.7366 21.7786 5.32248 25.8 6.12936 29.6796C6.93623 33.5592 8.92786 37.1229 11.8524 39.9199C14.7769 42.717 18.503 44.6218 22.5594 45.3935C26.6159 46.1652 30.8205 45.7691 34.6416 44.2554C38.4626 42.7416 41.7286 40.1782 44.0264 36.8892C46.3242 33.6002 47.5506 29.7334 47.5506 25.7778C47.5506 20.4734 45.3474 15.3864 41.4258 11.6356C37.5041 7.88491 32.1852 5.77777 26.6391 5.77777V5.77777ZM26.6391 43.2778C23.0202 43.2778 19.4825 42.2514 16.4735 40.3285C13.4645 38.4056 11.1192 35.6724 9.73431 32.4747C8.34941 29.277 7.98706 25.7584 8.69307 22.3637C9.39909 18.969 11.1418 15.8508 13.7007 13.4034C16.2597 10.956 19.52 9.28927 23.0694 8.61403C26.6188 7.93879 30.2978 8.28535 33.6413 9.60988C36.9847 10.9344 39.8424 13.1774 41.853 16.0553C43.8635 18.9331 44.9367 22.3166 44.9367 25.7778C44.9367 30.4191 43.0089 34.8702 39.5774 38.1521C36.146 41.434 31.4919 43.2778 26.6391 43.2778Z" fill="#525252"/>
</g>
</g>
</svg>
