<svg width="27" height="26" viewBox="0 0 27 26" fill="none" xmlns="http://www.w3.org/2000/svg">
<g id="ion:finger-print-sharp">
<path id="Vector" d="M2.99477 10.1857L3.64656 10.5666L4.03416 9.87695C4.90797 8.46777 7.58213 5.17969 13.5 5.17969C19.5644 5.17969 22.1484 8.75063 22.9974 9.9257L23.4278 10.5706L24.7788 9.75L24.3285 9.07156C23.8602 8.41902 22.8772 7.06418 21.1233 5.86727C18.9923 4.40883 16.4267 3.66895 13.5 3.66895C6.74629 3.66895 3.655 7.48312 2.6367 9.11523L2.24805 9.75L2.84764 10.0984C2.8749 10.1189 2.90363 10.1375 2.93359 10.1542C2.9534 10.1657 2.97382 10.1762 2.99477 10.1857Z" fill="black"/>
<path id="Vector_2" d="M19.9977 8.75061C18.1236 7.28151 15.8781 6.50354 13.4998 6.50354C8.35716 6.50354 4.9405 9.8551 3.83202 13.1798C2.81689 16.25 4.05087 20.6989 4.10255 20.8894L4.33353 21.5906L5.91187 21.2641L5.6619 20.5024C5.65083 20.4643 4.49648 16.2911 5.37661 13.6363C5.85122 12.2103 6.83894 10.823 8.08452 9.83834C9.58745 8.6526 11.4616 8.02342 13.4998 8.02342C18.2765 8.02342 20.9844 11.6091 21.7501 13.5134C22.3444 14.9825 22.2073 16.6527 21.4189 17.6774C21.1273 18.0527 20.6132 18.4935 19.8306 18.4554C18.0476 18.3681 17.7391 17.5195 17.3104 15.9037C17.1047 15.1257 16.8938 14.3203 16.368 13.6693C15.7278 12.8695 14.7965 12.483 13.5056 12.483C12.1171 12.483 11.0656 12.9238 10.3742 13.7891C8.86604 15.6823 9.8469 18.9145 9.88856 19.0506L9.90017 19.0937C9.97452 19.2898 11.8028 24.0017 16.6992 25.1712L17.4781 25.3342L17.9047 23.8763L17.0995 23.7021C13.1855 22.7662 11.5513 18.9089 11.4258 18.6042C11.2843 18.1098 11.1942 17.603 11.1568 17.0914C11.0999 16.3571 11.14 15.3451 11.6541 14.6976C12.0312 14.2243 12.6371 13.9958 13.4998 13.9958C15.0708 13.9958 15.3339 14.7357 15.7452 16.2703C16.145 17.7663 16.6945 19.8174 19.7446 19.9646C20.9158 20.019 21.9732 19.5183 22.7157 18.5605C23.8299 17.1244 24.0414 14.9261 23.253 12.9675C22.6371 11.4258 21.449 9.89319 19.9977 8.75061Z" fill="black"/>
<path id="Vector_3" d="M8.13059 17.4286C7.9476 15.9925 8.20494 13.8232 9.53068 12.4125C10.4504 11.4329 11.7872 10.9398 13.4958 10.9398C15.4728 10.9398 16.9694 11.7889 17.9524 13.4591C18.4362 14.2971 18.7558 15.2138 18.8953 16.1632L18.9707 16.9091L20.5527 16.7974C20.5542 16.5325 20.5366 16.2678 20.5 16.0052C20.4942 15.9402 20.3117 14.3569 19.3925 12.7679C18.1237 10.5787 16.0898 9.41992 13.5 9.41992C11.3115 9.41992 9.56865 10.0892 8.32887 11.406C6.64928 13.1904 6.3065 15.7859 6.54064 17.6191V17.6358C6.96094 20.4049 8.06836 22.6195 10.0274 24.6L10.6392 25.1697L11.7439 24.0632L11.1987 23.5661C9.4732 21.8253 8.49603 19.8773 8.13059 17.4286ZM6.98572 3.68977C7.57002 3.34852 9.63668 2.33035 13.5 2.33035C18.1164 2.33035 20.1677 3.78879 20.1904 3.79945L20.9234 4.24938L21.7793 2.96918L21.0821 2.53449C21.0547 2.5152 21.0262 2.4959 20.9978 2.47762C20.3291 2.05867 17.9582 0.8125 13.5 0.8125C8.87467 0.8125 6.49951 2.15719 5.93736 2.52434L5.2207 2.97172L6.075 4.25191L6.98572 3.68977Z" fill="black"/>
<path id="Vector_4" d="M20.5977 21.0849C18.8379 21.2753 17.4099 20.9493 16.3415 20.1277C14.5359 18.7347 14.3017 16.3135 14.2959 16.2683L14.2311 15.5127L12.6211 15.6259L12.6902 16.3876C12.7018 16.5125 12.9644 19.4726 15.3069 21.29C16.4728 22.1985 17.9299 22.6556 19.6437 22.6556C20.0237 22.6548 20.4033 22.633 20.7807 22.59L21.6555 22.4839L21.3339 20.9752L20.5977 21.0849Z" fill="black"/>
</g>
</svg>
