<svg width="100" height="100" viewBox="0 0 100 100" fill="none" xmlns="http://www.w3.org/2000/svg">
<g id="flat-color-icons:cancel">
<path id="Vector" d="M50 12.5C29.375 12.5 12.5 29.375 12.5 50C12.5 70.625 29.375 87.5 50 87.5C70.625 87.5 87.5 70.625 87.5 50C87.5 29.375 70.625 12.5 50 12.5ZM50 20.8333C56.4583 20.8333 62.5 23.125 67.5 26.6667L26.6667 67.5C23.125 62.5 20.8333 56.4583 20.8333 50C20.8333 33.9583 33.9583 20.8333 50 20.8333ZM50 79.1667C43.5417 79.1667 37.5 76.875 32.5 73.3333L73.3333 32.5C76.875 37.5 79.1667 43.5417 79.1667 50C79.1667 66.0417 66.0417 79.1667 50 79.1667Z" fill="#D50000"/>
</g>
</svg>
