<svg width="48" height="50" viewBox="0 0 48 50" fill="none" xmlns="http://www.w3.org/2000/svg">
<g id="flat-color-icons:cancel">
<path id="Vector" d="M24 6.25C14.1 6.25 6 14.6875 6 25C6 35.3125 14.1 43.75 24 43.75C33.9 43.75 42 35.3125 42 25C42 14.6875 33.9 6.25 24 6.25ZM24 10.4167C27.1 10.4167 30 11.5625 32.4 13.3333L12.8 33.75C11.1 31.25 10 28.2292 10 25C10 16.9792 16.3 10.4167 24 10.4167ZM24 39.5833C20.9 39.5833 18 38.4375 15.6 36.6667L35.2 16.25C36.9 18.75 38 21.7708 38 25C38 33.0208 31.7 39.5833 24 39.5833Z" fill="#D50000"/>
</g>
</svg>
