<svg width="100" height="100" viewBox="0 0 100 100" fill="none" xmlns="http://www.w3.org/2000/svg">
<circle cx="50" cy="50" r="50" fill="#D9D9D9"/>
<circle cx="50" cy="50" r="40" fill="#BBBBBB"/>
<circle cx="50" cy="50" r="40" fill="#BBBBBB"/>
<circle cx="50" cy="50" r="30" fill="#525252"/>
<path d="M50 20C33.5 20 20 33.5 20 50C20 66.5 33.5 80 50 80C66.5 80 80 66.5 80 50C80 33.5 66.5 20 50 20ZM50 26.6667C55.1667 26.6667 60 28.5 64 31.3333L31.3333 64C28.5 60 26.6667 55.1667 26.6667 50C26.6667 37.1667 37.1667 26.6667 50 26.6667ZM50 73.3333C44.8333 73.3333 40 71.5 36 68.6667L68.6667 36C71.5 40 73.3333 44.8333 73.3333 50C73.3333 62.8333 62.8333 73.3333 50 73.3333Z" fill="white"/>
</svg>
