<svg width="100" height="100" viewBox="0 0 100 100" fill="none" xmlns="http://www.w3.org/2000/svg">
<circle cx="50" cy="50" r="50" fill="#D9D9D9"/>
<circle cx="50" cy="50" r="40" fill="#BBBBBB"/>
<circle cx="50" cy="50" r="40" fill="#BBBBBB"/>
<circle cx="50" cy="50" r="30" fill="white"/>
<path d="M50 20C33.41 20 20 33.41 20 50C20 66.59 33.41 80 50 80C66.59 80 80 66.59 80 50C80 33.41 66.59 20 50 20ZM65 60.77L60.77 65L50 54.23L39.23 65L35 60.77L45.77 50L35 39.23L39.23 35L50 45.77L60.77 35L65 39.23L54.23 50L65 60.77Z" fill="#525252"/>
</svg>
