<svg width="23" height="19" viewBox="0 0 23 19" fill="none" xmlns="http://www.w3.org/2000/svg">
<path d="M0.5625 17.3125C0.5625 17.5197 0.64481 17.7184 0.791323 17.8649C0.937836 18.0114 1.13655 18.0938 1.34375 18.0938H21.6562C21.8635 18.0938 22.0622 18.0114 22.2087 17.8649C22.3552 17.7184 22.4375 17.5197 22.4375 17.3125V7.83984H0.5625V17.3125ZM3.78516 10.5742C3.78516 10.4706 3.82631 10.3713 3.89957 10.298C3.97282 10.2247 4.07218 10.1836 4.17578 10.1836H8.66797C8.77157 10.1836 8.87093 10.2247 8.94418 10.298C9.01744 10.3713 9.05859 10.4706 9.05859 10.5742V13.6992C9.05859 13.8028 9.01744 13.9022 8.94418 13.9754C8.87093 14.0487 8.77157 14.0898 8.66797 14.0898H4.17578C4.07218 14.0898 3.97282 14.0487 3.89957 13.9754C3.82631 13.9022 3.78516 13.8028 3.78516 13.6992V10.5742ZM21.6562 0.90625H1.34375C1.13655 0.90625 0.937836 0.98856 0.791323 1.13507C0.64481 1.28159 0.5625 1.4803 0.5625 1.6875V4.91016H22.4375V1.6875C22.4375 1.4803 22.3552 1.28159 22.2087 1.13507C22.0622 0.98856 21.8635 0.90625 21.6562 0.90625Z" fill="#525252"/>
</svg>
