<svg width="100" height="100" viewBox="0 0 100 100" fill="none" xmlns="http://www.w3.org/2000/svg">
<rect width="100" height="100" fill="#1E1E1E"/>
<g clip-path="url(#clip0_0_1)">
<rect width="390" height="844" transform="translate(-145 -110)" fill="white"/>
<circle cx="50" cy="50" r="50" fill="#37B34A"/>
<path d="M69.3232 28.9695C62.7318 34.6742 57.1552 40.1047 52.0497 47.1898C49.7982 50.3148 47.2942 53.993 45.6575 57.4656C44.7232 59.307 43.0388 62.1844 42.4646 64.9508C39.3239 62.0289 35.9505 58.7125 32.4989 56.1148C30.0388 54.2641 22.9528 58.0375 25.8372 60.2078C31.0067 64.0961 35.306 68.9391 40.3341 73.0008C42.4372 74.6977 47.0982 71.0125 48.1935 69.4664C51.7888 64.3727 52.2802 58.1461 54.9005 52.5898C58.9013 44.0922 65.9966 37.1117 73.0021 31.05C77.6435 26.7211 72.8497 25.9227 69.3302 28.9695" fill="white"/>
</g>
<defs>
<clipPath id="clip0_0_1">
<rect width="390" height="844" fill="white" transform="translate(-145 -110)"/>
</clipPath>
</defs>
</svg>
