<svg width="24" height="24" viewBox="0 0 24 24" fill="none" xmlns="http://www.w3.org/2000/svg">
<g id="eva:arrow-ios-forward-fill" clip-path="url(#clip0_344_1200)">
<path id="Vector" d="M16.9998 13C16.7662 13.0005 16.5397 12.9191 16.3598 12.77C16.2585 12.6861 16.1748 12.583 16.1135 12.4666C16.0521 12.3503 16.0143 12.223 16.0023 12.092C15.9902 11.961 16.0041 11.8289 16.0431 11.7033C16.0822 11.5777 16.1456 11.4611 16.2298 11.36L20.7098 6L16.3898 0.630002C16.3067 0.527714 16.2447 0.410018 16.2073 0.283678C16.1698 0.157339 16.1578 0.0248476 16.1717 -0.106181C16.1856 -0.237209 16.2253 -0.364191 16.2885 -0.479828C16.3517 -0.595464 16.4371 -0.697476 16.5398 -0.779998C16.6433 -0.871035 16.7644 -0.939702 16.8957 -0.981692C17.027 -1.02368 17.1655 -1.03808 17.3026 -1.024C17.4397 -1.00991 17.5724 -0.967645 17.6924 -0.899843C17.8123 -0.832041 17.917 -0.740171 17.9998 -0.629998L22.8298 5.37C22.9769 5.54893 23.0573 5.77338 23.0573 6.005C23.0573 6.23663 22.9769 6.46107 22.8298 6.64L17.8298 12.64C17.7295 12.761 17.6021 12.8567 17.4578 12.9192C17.3136 12.9818 17.1567 13.0095 16.9998 13Z" fill="#C4C4C4"/>
</g>
<defs>
<clipPath id="clip0_344_1200">
<rect width="24" height="24" fill="white"/>
</clipPath>
</defs>
</svg>
