<svg width="25" height="25" viewBox="0 0 25 25" fill="none" xmlns="http://www.w3.org/2000/svg">
<g id="radix-icons:dashboard">
<path id="Vector" fill-rule="evenodd" clip-rule="evenodd" d="M4.66663 1.66669H4.58329C4.20163 1.66669 3.87329 1.66669 3.58329 1.73502C3.13435 1.8423 2.72388 2.07176 2.39734 2.398C2.07081 2.72424 1.84097 3.13451 1.73329 3.58335C1.66663 3.87335 1.66663 4.20002 1.66663 4.58335V8.75002C1.66663 9.13169 1.66663 9.46002 1.73496 9.75002C1.84223 10.199 2.0717 10.6094 2.39794 10.936C2.72418 11.2625 3.13445 11.4923 3.58329 11.6C3.87329 11.6667 4.19996 11.6667 4.58329 11.6667H8.74996C9.13163 11.6667 9.45996 11.6667 9.74996 11.5984C10.1989 11.4911 10.6094 11.2616 10.9359 10.9354C11.2624 10.6091 11.4923 10.1989 11.6 9.75002C11.6666 9.46002 11.6666 9.13335 11.6666 8.75002V4.58335C11.6666 4.20169 11.6666 3.87335 11.5983 3.58335C11.491 3.13441 11.2615 2.72394 10.9353 2.3974C10.6091 2.07087 10.1988 1.84103 9.74996 1.73335C9.45996 1.66669 9.13329 1.66669 8.74996 1.66669H4.66663ZM3.97163 3.35669C4.04329 3.34002 4.15496 3.33335 4.66663 3.33335H8.66663C9.17996 3.33335 9.28996 3.33835 9.36163 3.35669C9.51134 3.39249 9.64822 3.46906 9.75707 3.57791C9.86592 3.68676 9.94249 3.82364 9.97829 3.97335C9.99496 4.04335 9.99996 4.15335 9.99996 4.66669V8.66669C9.99996 9.18002 9.99496 9.29002 9.97663 9.36169C9.94082 9.5114 9.86425 9.64828 9.7554 9.75713C9.64655 9.86598 9.50968 9.94255 9.35996 9.97835C9.29163 9.99335 9.18163 10 8.66663 10H4.66663C4.15329 10 4.04329 9.99502 3.97163 9.97669C3.82191 9.94088 3.68504 9.86431 3.57619 9.75546C3.46733 9.64661 3.39076 9.50974 3.35496 9.36002C3.33996 9.29169 3.33329 9.18169 3.33329 8.66669V4.66669C3.33329 4.15335 3.33829 4.04335 3.35663 3.97169C3.39243 3.82197 3.469 3.6851 3.57785 3.57625C3.6867 3.4674 3.82358 3.39082 3.97329 3.35502L3.97163 3.35669ZM16.3333 1.66669H16.25C15.8683 1.66669 15.54 1.66669 15.25 1.73502C14.801 1.8423 14.3905 2.07176 14.064 2.398C13.7375 2.72424 13.5076 3.13451 13.4 3.58335C13.3333 3.87335 13.3333 4.20002 13.3333 4.58335V8.75002C13.3333 9.13169 13.3333 9.46002 13.4016 9.75002C13.5089 10.199 13.7384 10.6094 14.0646 10.936C14.3908 11.2625 14.8011 11.4923 15.25 11.6C15.54 11.6667 15.8666 11.6667 16.25 11.6667H20.4166C20.7983 11.6667 21.1266 11.6667 21.4166 11.5984C21.8656 11.4911 22.276 11.2616 22.6026 10.9354C22.9291 10.6091 23.1589 10.1989 23.2666 9.75002C23.3333 9.46002 23.3333 9.13335 23.3333 8.75002V4.58335C23.3333 4.20169 23.3333 3.87335 23.265 3.58335C23.1577 3.13441 22.9282 2.72394 22.602 2.3974C22.2757 2.07087 21.8655 1.84103 21.4166 1.73335C21.1266 1.66669 20.8 1.66669 20.4166 1.66669H16.3333ZM15.6383 3.35669C15.71 3.34002 15.8216 3.33335 16.3333 3.33335H20.3333C20.8466 3.33335 20.9566 3.33835 21.0283 3.35669C21.178 3.39249 21.3149 3.46906 21.4237 3.57791C21.5326 3.68676 21.6092 3.82364 21.645 3.97335C21.6616 4.04335 21.6666 4.15335 21.6666 4.66669V8.66669C21.6666 9.18002 21.66 9.29002 21.6433 9.36169C21.6075 9.5114 21.5309 9.64828 21.4221 9.75713C21.3132 9.86598 21.1763 9.94255 21.0266 9.97835C20.9566 9.99502 20.8466 10 20.3333 10H16.3333C15.82 10 15.71 9.99502 15.6383 9.97669C15.4886 9.94088 15.3517 9.86431 15.2429 9.75546C15.134 9.64661 15.0574 9.50974 15.0216 9.36002C15.0066 9.29169 15 9.18169 15 8.66669V4.66669C15 4.15335 15.005 4.04335 15.0233 3.97169C15.0591 3.82197 15.1357 3.6851 15.2445 3.57625C15.3534 3.4674 15.4902 3.39082 15.64 3.35502L15.6383 3.35669ZM4.58329 13.3334H8.74996C9.13163 13.3334 9.45996 13.3334 9.74996 13.4017C10.1989 13.509 10.6094 13.7384 10.9359 14.0647C11.2624 14.3909 11.4923 14.8012 11.6 15.25C11.6666 15.54 11.6666 15.8667 11.6666 16.25V20.4167C11.6666 20.7984 11.6666 21.1267 11.5983 21.4167C11.491 21.8656 11.2615 22.2761 10.9353 22.6026C10.6091 22.9292 10.1988 23.159 9.74996 23.2667C9.45996 23.3334 9.13329 23.3334 8.74996 23.3334H4.58329C4.20163 23.3334 3.87329 23.3334 3.58329 23.265C3.13435 23.1577 2.72388 22.9283 2.39734 22.602C2.07081 22.2758 1.84097 21.8655 1.73329 21.4167C1.66663 21.1267 1.66663 20.8 1.66663 20.4167V16.25C1.66663 15.8684 1.66663 15.54 1.73496 15.25C1.84223 14.8011 2.0717 14.3906 2.39794 14.0641C2.72418 13.7375 3.13445 13.5077 3.58329 13.4C3.87329 13.3334 4.19996 13.3334 4.58329 13.3334ZM4.66663 15C4.15329 15 4.04329 15.005 3.97163 15.0234C3.82191 15.0592 3.68504 15.1357 3.57619 15.2446C3.46733 15.3534 3.39076 15.4903 3.35496 15.64C3.33996 15.7084 3.33329 15.8184 3.33329 16.3334V20.3334C3.33329 20.8467 3.33829 20.9567 3.35663 21.0284C3.39243 21.1781 3.469 21.3149 3.57785 21.4238C3.6867 21.5326 3.82358 21.6092 3.97329 21.645C4.04329 21.6617 4.15329 21.6667 4.66663 21.6667H8.66663C9.17996 21.6667 9.28996 21.66 9.36163 21.6434C9.51134 21.6076 9.64822 21.531 9.75707 21.4221C9.86592 21.3133 9.94249 21.1764 9.97829 21.0267C9.99496 20.9567 9.99996 20.8467 9.99996 20.3334V16.3334C9.99996 15.82 9.99496 15.71 9.97663 15.6384C9.94082 15.4886 9.86425 15.3518 9.7554 15.2429C9.64655 15.1341 9.50968 15.0575 9.35996 15.0217C9.29163 15.0067 9.18163 15 8.66663 15H4.66663ZM16.3333 13.3334H16.25C15.8683 13.3334 15.54 13.3334 15.25 13.4017C14.801 13.509 14.3905 13.7384 14.064 14.0647C13.7375 14.3909 13.5076 14.8012 13.4 15.25C13.3333 15.54 13.3333 15.8667 13.3333 16.25V20.4167C13.3333 20.7984 13.3333 21.1267 13.4016 21.4167C13.5089 21.8656 13.7384 22.2761 14.0646 22.6026C14.3908 22.9292 14.8011 23.159 15.25 23.2667C15.54 23.335 15.8683 23.335 16.25 23.335H20.4166C20.7983 23.335 21.1266 23.335 21.4166 23.2667C21.8653 23.1591 22.2754 22.9296 22.6016 22.6033C22.9278 22.2771 23.1574 21.867 23.265 21.4184C23.3333 21.1284 23.3333 20.8 23.3333 20.4184V16.25C23.3333 15.8684 23.3333 15.54 23.265 15.25C23.1577 14.8011 22.9282 14.3906 22.602 14.0641C22.2757 13.7375 21.8655 13.5077 21.4166 13.4C21.1266 13.3334 20.8 13.3334 20.4166 13.3334H16.3333ZM15.6383 15.0234C15.71 15.0067 15.8216 15 16.3333 15H20.3333C20.8466 15 20.9566 15.005 21.0283 15.0234C21.178 15.0592 21.3149 15.1357 21.4237 15.2446C21.5326 15.3534 21.6092 15.4903 21.645 15.64C21.6616 15.71 21.6666 15.82 21.6666 16.3334V20.3334C21.6666 20.8467 21.66 20.9567 21.6433 21.0284C21.6075 21.1781 21.5309 21.3149 21.4221 21.4238C21.3132 21.5326 21.1763 21.6092 21.0266 21.645C20.9566 21.6617 20.8466 21.6667 20.3333 21.6667H16.3333C15.82 21.6667 15.71 21.66 15.6383 21.6434C15.4886 21.6076 15.3517 21.531 15.2429 21.4221C15.134 21.3133 15.0574 21.1764 15.0216 21.0267C15.0066 20.9584 15 20.8484 15 20.3334V16.3334C15 15.82 15.005 15.71 15.0233 15.6384C15.0591 15.4886 15.1357 15.3518 15.2445 15.2429C15.3534 15.1341 15.4902 15.0575 15.64 15.0217L15.6383 15.0234Z" fill="#868585"/>
</g>
</svg>
