<svg width="25" height="25" viewBox="0 0 25 25" fill="none" xmlns="http://www.w3.org/2000/svg">
<path d="M22.2223 9.02778H16.6667C16.2984 9.02778 15.9451 9.17411 15.6846 9.43458C15.4242 9.69504 15.2778 10.0483 15.2778 10.4167V20.8333C15.2778 21.2017 15.4242 21.555 15.6846 21.8154C15.9451 22.0759 16.2984 22.2222 16.6667 22.2222H22.2223C22.5906 22.2222 22.9439 22.0759 23.2044 21.8154C23.4648 21.555 23.6112 21.2017 23.6112 20.8333V10.4167C23.6112 10.0483 23.4648 9.69504 23.2044 9.43458C22.9439 9.17411 22.5906 9.02778 22.2223 9.02778ZM22.2223 10.4167V19.4444H16.6667V10.4167H22.2223Z" fill="#868585"/>
<path d="M19.4445 2.77778H2.7778C2.40945 2.77778 2.05618 2.92411 1.79571 3.18457C1.53524 3.44504 1.38892 3.79831 1.38892 4.16667V15.2778C1.38892 15.6461 1.53524 15.9994 1.79571 16.2599C2.05618 16.5203 2.40945 16.6667 2.7778 16.6667H8.33336V18.0556H6.47225C6.2595 18.0314 6.0456 18.09 5.87493 18.2193C5.70426 18.3486 5.5899 18.5386 5.55558 18.75C5.5899 18.9614 5.70426 19.1514 5.87493 19.2807C6.0456 19.41 6.2595 19.4686 6.47225 19.4444H13.8334V19.1875H13.8889V15.2778H2.7778V4.16667H19.4445V7.63889H20.8334V4.16667C20.8334 3.79831 20.687 3.44504 20.4266 3.18457C20.1661 2.92411 19.8128 2.77778 19.4445 2.77778Z" fill="#868585"/>
</svg>
