<svg width="34" height="34" viewBox="0 0 34 34" fill="none" xmlns="http://www.w3.org/2000/svg">
<path d="M17 33.6667C7.79504 33.6667 0.333374 26.205 0.333374 17C0.333374 7.79501 7.79504 0.333344 17 0.333344C26.205 0.333344 33.6667 7.79501 33.6667 17C33.6667 26.205 26.205 33.6667 17 33.6667ZM11.1667 20.3333V23.6667H15.3334V27H18.6667V23.6667H20.3334C21.4384 23.6667 22.4983 23.2277 23.2797 22.4463C24.0611 21.6649 24.5 20.6051 24.5 19.5C24.5 18.3949 24.0611 17.3351 23.2797 16.5537C22.4983 15.7723 21.4384 15.3333 20.3334 15.3333H13.6667C13.4457 15.3333 13.2337 15.2455 13.0775 15.0893C12.9212 14.933 12.8334 14.721 12.8334 14.5C12.8334 14.279 12.9212 14.067 13.0775 13.9108C13.2337 13.7545 13.4457 13.6667 13.6667 13.6667H22.8334V10.3333H18.6667V7.00001H15.3334V10.3333H13.6667C12.5616 10.3333 11.5018 10.7723 10.7204 11.5537C9.93903 12.3351 9.50004 13.3949 9.50004 14.5C9.50004 15.6051 9.93903 16.6649 10.7204 17.4463C11.5018 18.2277 12.5616 18.6667 13.6667 18.6667H20.3334C20.5544 18.6667 20.7663 18.7545 20.9226 18.9108C21.0789 19.067 21.1667 19.279 21.1667 19.5C21.1667 19.721 21.0789 19.933 20.9226 20.0893C20.7663 20.2455 20.5544 20.3333 20.3334 20.3333H11.1667Z" fill="white"/>
</svg>
