<svg width="25" height="19" viewBox="0 0 25 19" fill="none" xmlns="http://www.w3.org/2000/svg">
<path d="M10.9375 18.875C10.9375 18.875 9.375 18.875 9.375 17.3125C9.375 15.75 10.9375 11.0625 17.1875 11.0625C23.4375 11.0625 25 15.75 25 17.3125C25 18.875 23.4375 18.875 23.4375 18.875H10.9375ZM17.1875 9.5C18.4307 9.5 19.623 9.00614 20.5021 8.12706C21.3811 7.24799 21.875 6.0557 21.875 4.8125C21.875 3.5693 21.3811 2.37701 20.5021 1.49794C19.623 0.61886 18.4307 0.125 17.1875 0.125C15.9443 0.125 14.752 0.61886 13.8729 1.49794C12.9939 2.37701 12.5 3.5693 12.5 4.8125C12.5 6.0557 12.9939 7.24799 13.8729 8.12706C14.752 9.00614 15.9443 9.5 17.1875 9.5ZM8.15 18.875C7.91837 18.3872 7.80285 17.8524 7.8125 17.3125C7.8125 15.1953 8.875 13.0156 10.8375 11.5C9.85795 11.1982 8.83742 11.0506 7.8125 11.0625C1.5625 11.0625 0 15.75 0 17.3125C0 18.875 1.5625 18.875 1.5625 18.875H8.15ZM7.03125 9.5C8.06725 9.5 9.06082 9.08845 9.79339 8.35589C10.5259 7.62332 10.9375 6.62975 10.9375 5.59375C10.9375 4.55775 10.5259 3.56418 9.79339 2.83161C9.06082 2.09905 8.06725 1.6875 7.03125 1.6875C5.99525 1.6875 5.00168 2.09905 4.26911 2.83161C3.53655 3.56418 3.125 4.55775 3.125 5.59375C3.125 6.62975 3.53655 7.62332 4.26911 8.35589C5.00168 9.08845 5.99525 9.5 7.03125 9.5Z" fill="#868585"/>
</svg>
