<svg width="21" height="18" viewBox="0 0 21 18" fill="none" xmlns="http://www.w3.org/2000/svg">
<path d="M1.54289 1.207L2.24989 0.5L18.9999 17.25L18.2929 17.957L14.9449 14.609C13.5779 15.183 12.0749 15.5 10.4999 15.5C8.33648 15.5007 6.21674 14.8912 4.38417 13.7414C2.55159 12.5916 1.08051 10.9482 0.139893 9C1.10552 7.00688 2.62383 5.33341 4.51389 4.179L1.54289 1.207ZM10.4999 14.5C11.7929 14.5 13.0309 14.266 14.1749 13.839L13.0459 12.711C12.1795 13.3053 11.1325 13.5778 10.0864 13.4812C9.04021 13.3846 8.06083 12.925 7.31799 12.182C6.57515 11.439 6.11568 10.4596 6.01922 9.41339C5.92277 8.36721 6.19541 7.32025 6.78989 6.454L5.24389 4.908C3.56641 5.88035 2.18933 7.29618 1.26389 9C2.16478 10.6641 3.49869 12.0537 5.12452 13.0218C6.75034 13.99 8.60763 14.5007 10.4999 14.5V14.5ZM19.7349 9C18.8341 7.3361 17.5003 5.94658 15.8747 4.97842C14.2491 4.01026 12.392 3.49944 10.4999 3.5C9.37696 3.49863 8.26109 3.67758 7.19489 4.03L6.41189 3.248C7.71767 2.75191 9.10305 2.49842 10.4999 2.5C12.6633 2.49928 14.783 3.10882 16.6156 4.2586C18.4482 5.40838 19.9193 7.05177 20.8599 9C19.948 10.8826 18.542 12.4822 16.7919 13.628L16.0679 12.904C17.6057 11.9397 18.8687 10.5951 19.7349 9V9ZM10.4999 4.5C11.2889 4.4998 12.0641 4.70707 12.7478 5.10102C13.4314 5.49497 13.9995 6.06175 14.395 6.74452C14.7904 7.42728 14.9994 8.20203 15.001 8.99106C15.0026 9.7801 14.7967 10.5557 14.4039 11.24L13.6639 10.5C13.9743 9.84725 14.0751 9.11439 13.9523 8.40208C13.8295 7.68977 13.4892 7.03295 12.978 6.52185C12.4669 6.01074 11.8101 5.67041 11.0978 5.5476C10.3855 5.4248 9.65264 5.52554 8.99989 5.836L8.25989 5.096C8.94135 4.70427 9.71387 4.49872 10.4999 4.5V4.5ZM6.99989 9C6.99974 9.62175 7.16521 10.2323 7.47929 10.7689C7.79337 11.3055 8.24472 11.7487 8.78692 12.053C9.32911 12.3573 9.94258 12.5117 10.5642 12.5003C11.1859 12.4888 11.7932 12.312 12.3239 11.988L7.51189 7.176C7.17602 7.72504 6.9988 8.35638 6.99989 9V9Z" fill="#494949"/>
</svg>
