<svg width="24" height="16" viewBox="0 0 24 16" fill="none" xmlns="http://www.w3.org/2000/svg">
<path d="M23.0137 7.77219C22.9819 7.69906 22.2019 5.96938 20.46 4.2275C18.8438 2.61313 16.0669 0.6875 12 0.6875C7.93313 0.6875 5.15625 2.61313 3.54 4.2275C1.79813 5.96938 1.01813 7.69625 0.98625 7.77219C0.9542 7.84419 0.937637 7.92212 0.937637 8.00094C0.937637 8.07975 0.9542 8.15768 0.98625 8.22969C1.01813 8.30187 1.79813 10.0316 3.54 11.7734C5.15625 13.3878 7.93313 15.3125 12 15.3125C16.0669 15.3125 18.8438 13.3878 20.46 11.7734C22.2019 10.0316 22.9819 8.30469 23.0137 8.22969C23.0458 8.15768 23.0624 8.07975 23.0624 8.00094C23.0624 7.92212 23.0458 7.84419 23.0137 7.77219ZM12 14.1875C9.05813 14.1875 6.48938 13.1169 4.36406 11.0066C3.47313 10.1211 2.71922 9.10781 2.12719 8C2.71905 6.89237 3.47299 5.87932 4.36406 4.99438C6.48938 2.88313 9.05813 1.8125 12 1.8125C14.9419 1.8125 17.5106 2.88313 19.6359 4.99438C20.527 5.87932 21.281 6.89237 21.8728 8C21.2756 9.14469 18.2813 14.1875 12 14.1875ZM12 3.6875C11.1471 3.6875 10.3133 3.94042 9.6041 4.41429C8.89492 4.88815 8.34217 5.56167 8.01577 6.34968C7.68937 7.13768 7.60397 8.00478 7.77036 8.84133C7.93676 9.67787 8.34749 10.4463 8.9506 11.0494C9.55372 11.6525 10.3221 12.0632 11.1587 12.2296C11.9952 12.396 12.8623 12.3106 13.6503 11.9842C14.4383 11.6578 15.1118 11.1051 15.5857 10.3959C16.0596 9.68671 16.3125 8.85293 16.3125 8C16.311 6.85671 15.8562 5.76067 15.0478 4.95225C14.2393 4.14382 13.1433 3.68899 12 3.6875ZM12 11.1875C11.3696 11.1875 10.7533 11.0006 10.2291 10.6503C9.70494 10.3001 9.29639 9.80224 9.05513 9.2198C8.81388 8.63736 8.75076 7.99646 8.87375 7.37815C8.99674 6.75984 9.30032 6.19188 9.7461 5.7461C10.1919 5.30032 10.7598 4.99674 11.3782 4.87375C11.9965 4.75076 12.6374 4.81388 13.2198 5.05513C13.8022 5.29639 14.3001 5.70494 14.6503 6.22912C15.0006 6.7533 15.1875 7.36957 15.1875 8C15.1875 8.84538 14.8517 9.65613 14.2539 10.2539C13.6561 10.8517 12.8454 11.1875 12 11.1875Z" fill="#494949"/>
</svg>
