<svg width="28" height="28" viewBox="0 0 24 24" fill="none" xmlns="http://www.w3.org/2000/svg">
<g clip-path="url(#clip0_1766_4699)">
<path d="M11 13.75H12V9.75001M16 9.50001V8.00001M9.00001 16.5C10.5 18 13.5 18 15 16.5M8.00001 9.50001V8.00001M7.50001 20.886C6.03701 20.742 5.05301 20.416 4.31801 19.682C3.58301 18.947 3.25801 17.962 3.11401 16.5M7.50001 3.11401C6.03701 3.25801 5.05301 3.58401 4.31801 4.31801C3.58301 5.05301 3.25801 6.03801 3.11401 7.50001M16.5 3.11401C17.963 3.25801 18.947 3.58401 19.682 4.31801C20.417 5.05301 20.742 6.03801 20.886 7.50001M16.5 20.886C17.963 20.742 18.947 20.416 19.682 19.682C20.417 18.947 20.742 17.962 20.886 16.5" stroke="#868585" stroke-width="1.5" stroke-linecap="round" stroke-linejoin="round"/>
</g>
<defs>
<clipPath id="clip0_1766_4699">
<rect width="24" height="24" fill="white"/>
</clipPath>
</defs>
</svg>
