<svg width="30" height="30" viewBox="0 0 30 30" fill="none" xmlns="http://www.w3.org/2000/svg">
<g id="emojione:flag-for-british-indian-ocean-territory" clip-path="url(#clip0_15_322)">
<path id="Vector" d="M12.5625 2.85937C10.875 2.85937 10.3594 2.39062 9.375 2.10938C8.25 2.57812 7.21875 3.23438 6.23438 3.98438C6.60938 3.89062 7.07812 3.84375 7.6875 3.84375C10.125 3.84375 10.125 4.78125 12.5625 4.78125C15 4.78125 15 3.84375 17.4375 3.84375C19.875 3.84375 19.875 4.78125 22.3125 4.78125C23.25 4.78125 23.8125 4.64062 24.3281 4.45312C23.625 3.84375 22.875 3.28125 22.0313 2.8125C19.8281 2.76562 19.7813 1.875 17.4375 1.875C15 1.92188 15 2.85937 12.5625 2.85937Z" fill="white"/>
<path id="Vector_2" d="M22.3125 4.78125C19.875 4.78125 19.875 3.84375 17.4375 3.84375C15 3.84375 15 4.78125 12.5625 4.78125C10.125 4.78125 10.125 6.70313 12.5625 6.70313C15 6.70313 15 5.76563 17.4375 5.76563C19.875 5.76563 19.875 6.70313 22.3125 6.70313C24.1406 6.70313 24.6094 6.1875 25.7344 5.90625C25.3125 5.39062 24.7969 4.92188 24.3281 4.45312C23.8125 4.64062 23.25 4.78125 22.3125 4.78125ZM17.4375 1.92188C19.7813 1.92188 19.875 2.76562 22.0781 2.85938C20.0156 1.64063 17.5781 0.984375 15.0469 0.984375C13.0312 0.984375 10.9219 2.90625 12.6094 2.90625C15 2.85938 15 1.92188 17.4375 1.92188Z" fill="#2A5F9E"/>
<path id="Vector_3" d="M22.3125 6.70312C19.875 6.70312 19.875 5.76562 17.4375 5.76562C15 5.76562 15 6.70312 12.5625 6.70312C10.125 6.70312 10.125 5.76562 7.6875 5.76562C5.57812 5.76562 5.29688 6.46875 3.65625 6.65625C3.1875 7.26562 2.8125 7.92187 2.4375 8.625H2.8125C5.25 8.625 5.25 7.6875 7.6875 7.6875C10.125 7.6875 10.125 8.625 12.5625 8.625C15 8.625 15 7.6875 17.4375 7.6875C19.875 7.6875 19.875 8.625 22.3125 8.625C24.7031 8.625 24.75 7.73437 27.0469 7.6875C26.6719 7.03125 26.25 6.46875 25.7344 5.90625C24.6094 6.1875 24.1406 6.70312 22.3125 6.70312Z" fill="white"/>
<path id="Vector_4" d="M22.3125 8.67188C19.875 8.67188 19.875 7.73438 17.4375 7.73438C15 7.73438 15 8.67188 12.5625 8.67188C10.125 8.67188 10.125 10.5938 12.5625 10.5938C15 10.5938 15 9.65625 17.4375 9.65625C19.875 9.65625 19.875 10.5938 22.3125 10.5938C24.75 10.5938 24.75 9.65625 27.1875 9.65625C27.5156 9.65625 27.7969 9.65625 28.0312 9.70313C27.75 9 27.4219 8.34375 27.0469 7.73438C24.75 7.78125 24.7031 8.67188 22.3125 8.67188Z" fill="#2A5F9E"/>
<path id="Vector_5" d="M27.1875 9.65625C24.75 9.65625 24.75 10.5938 22.3125 10.5938C19.875 10.5938 19.875 9.65625 17.4375 9.65625C15 9.65625 15 10.5938 12.5625 10.5938C10.125 10.5938 10.125 9.65625 7.6875 9.65625C5.25 9.65625 5.25 10.5938 2.8125 10.5938C2.34375 10.5938 1.96875 10.5469 1.6875 10.5C1.5 11.0625 1.3125 11.6719 1.21875 12.2813C1.64062 12.4219 2.15625 12.5156 2.85938 12.5156C5.29688 12.5156 5.29688 11.5781 7.73438 11.5781C10.1719 11.5781 10.1719 12.5156 12.6094 12.5156C15.0469 12.5156 15.0469 11.5781 17.4844 11.5781C19.9219 11.5781 19.9219 12.5156 22.3594 12.5156C24.7969 12.5156 24.7969 11.5781 27.2344 11.5781C27.8906 11.5781 28.3594 11.625 28.7344 11.7187C28.5469 11.0156 28.3594 10.3594 28.0781 9.70313C27.7969 9.70313 27.5156 9.65625 27.1875 9.65625Z" fill="white"/>
<path id="Vector_6" d="M27.1875 11.625C24.75 11.625 24.75 12.5625 22.3125 12.5625C19.875 12.5625 19.875 11.625 17.4375 11.625C15 11.625 15 12.5625 12.5625 12.5625C10.125 12.5625 10.125 14.4844 12.5625 14.4844C15 14.4844 15 13.5469 17.4375 13.5469C19.875 13.5469 19.875 14.4844 22.3125 14.4844C24.75 14.4844 24.75 13.5469 27.1875 13.5469C28.0313 13.5469 28.5469 13.6406 29.0156 13.7813C28.9688 13.125 28.875 12.4219 28.6875 11.8125C28.3125 11.6719 27.8438 11.625 27.1875 11.625Z" fill="#2A5F9E"/>
<path id="Vector_7" d="M27.1875 13.5469C24.75 13.5469 24.75 14.4844 22.3125 14.4844C19.875 14.4844 19.875 13.5469 17.4375 13.5469C15 13.5469 15 14.4844 12.5625 14.4844C10.125 14.4844 10.125 13.5469 7.6875 13.5469C5.25 13.5469 5.25 14.4844 2.8125 14.4844C1.96875 14.4844 1.40625 14.3906 0.9375 14.25V15C0.9375 15.375 0.9375 15.7969 0.984375 16.1719C1.45312 16.3125 1.96875 16.4531 2.8125 16.4531C5.25 16.4531 5.25 15.5156 7.6875 15.5156C10.125 15.5156 10.125 16.4531 12.5625 16.4531C15 16.4531 15 15.5156 17.4375 15.5156C19.875 15.5156 19.875 16.4531 22.3125 16.4531C24.75 16.4531 24.75 15.5156 27.1875 15.5156C28.0312 15.5156 28.5938 15.6094 29.0625 15.75V15C29.0625 14.625 29.0625 14.25 29.0156 13.8281C28.5469 13.6875 28.0312 13.5469 27.1875 13.5469Z" fill="white"/>
<path id="Vector_8" d="M27.1875 15.5156C24.75 15.5156 24.75 16.4531 22.3125 16.4531C19.875 16.4531 19.875 15.5156 17.4375 15.5156C15 15.5156 15 16.4531 12.5625 16.4531C10.125 16.4531 10.125 15.5156 7.6875 15.5156C5.25 15.5156 5.25 16.4531 2.8125 16.4531C1.96875 16.4531 1.45312 16.3594 0.984375 16.2187C1.03125 16.875 1.125 17.5781 1.3125 18.1875C1.6875 18.2813 2.15625 18.375 2.8125 18.375C5.25 18.375 5.25 17.4375 7.6875 17.4375C10.125 17.4375 10.125 18.375 12.5625 18.375C15 18.375 15 17.4375 17.4375 17.4375C19.875 17.4375 19.875 18.375 22.3125 18.375C24.75 18.375 24.75 17.4375 27.1875 17.4375C27.8906 17.4375 28.4062 17.5312 28.8281 17.625C28.9219 17.0156 29.0156 16.4063 29.0625 15.7969C28.5938 15.6563 28.0312 15.5156 27.1875 15.5156Z" fill="#2A5F9E"/>
<path id="Vector_9" d="M27.1875 17.4375C24.75 17.4375 24.75 18.375 22.3125 18.375C19.875 18.375 19.875 17.4375 17.4375 17.4375C15 17.4375 15 18.375 12.5625 18.375C10.125 18.375 10.125 17.4375 7.6875 17.4375C5.25 17.4375 5.25 18.375 2.8125 18.375C2.15625 18.375 1.6875 18.3281 1.3125 18.2344C1.5 18.9375 1.6875 19.5938 1.96875 20.25C2.20312 20.2969 2.48438 20.2969 2.8125 20.2969C5.25 20.2969 5.25 19.3594 7.6875 19.3594C10.125 19.3594 10.125 20.2969 12.5625 20.2969C15 20.2969 15 19.3594 17.4375 19.3594C19.875 19.3594 19.875 20.2969 22.3125 20.2969C24.75 20.2969 24.75 19.3594 27.1875 19.3594C27.6562 19.3594 28.0313 19.4062 28.3125 19.4531C28.5 18.8906 28.6875 18.2812 28.7813 17.6719C28.4063 17.5312 27.8906 17.4375 27.1875 17.4375Z" fill="white"/>
<path id="Vector_10" d="M27.1875 19.4063C24.75 19.4063 24.75 20.3438 22.3125 20.3438C19.875 20.3438 19.875 19.4063 17.4375 19.4063C15 19.4063 15 20.3438 12.5625 20.3438C10.125 20.3438 10.125 19.4063 7.6875 19.4063C5.25 19.4063 5.25 20.3438 2.8125 20.3438C2.48438 20.3438 2.20312 20.3437 1.96875 20.2969C2.25 21 2.57813 21.6562 2.95313 22.2656C5.25 22.2187 5.29688 21.3281 7.6875 21.3281C10.125 21.3281 10.125 22.2656 12.5625 22.2656C15 22.2656 15 21.3281 17.4375 21.3281C19.875 21.3281 19.875 22.2656 22.3125 22.2656C24.75 22.2656 24.75 21.3281 27.1875 21.3281H27.5625C27.8438 20.7187 28.125 20.1094 28.3594 19.5C28.0312 19.4062 27.6562 19.4063 27.1875 19.4063Z" fill="#2A5F9E"/>
<path id="Vector_11" d="M27.1875 21.3281C24.75 21.3281 24.75 22.2656 22.3125 22.2656C19.875 22.2656 19.875 21.3281 17.4375 21.3281C15 21.3281 15 22.2656 12.5625 22.2656C10.125 22.2656 10.125 21.3281 7.6875 21.3281C5.29687 21.3281 5.25 22.2188 2.95312 22.2656C3.32812 22.9219 3.75 23.4844 4.26563 24.0469C5.4375 23.7656 5.85937 23.25 7.6875 23.25C10.125 23.25 10.125 24.1875 12.5625 24.1875C15 24.1875 15 23.25 17.4375 23.25C19.875 23.25 19.875 24.1875 22.3125 24.1875C24.4219 24.1875 24.7031 23.4844 26.3438 23.2969C26.8125 22.6875 27.1875 22.0312 27.5625 21.3281H27.1875Z" fill="white"/>
<path id="Vector_12" d="M22.3125 24.2344C19.875 24.2344 19.875 23.2969 17.4375 23.2969C15 23.2969 15 24.2344 12.5625 24.2344C10.125 24.2344 10.125 23.2969 7.6875 23.2969C5.85937 23.2969 5.39063 23.8125 4.26562 24.0938C4.6875 24.6094 5.20313 25.125 5.67188 25.5469C6.1875 25.3594 6.75 25.2187 7.6875 25.2187C10.125 25.2187 10.125 26.1562 12.5625 26.1562C15 26.1562 15 25.2187 17.4375 25.2187C19.875 25.2187 19.875 26.1562 22.3125 26.1562C22.9219 26.1562 23.3906 26.1094 23.7656 26.0156C24.75 25.2187 25.5938 24.3281 26.3438 23.3437C24.7031 23.4844 24.4219 24.2344 22.3125 24.2344Z" fill="#2A5F9E"/>
<path id="Vector_13" d="M22.3125 26.1563C19.875 26.1563 19.875 25.2188 17.4375 25.2188C15 25.2188 15 26.1563 12.5625 26.1563C10.125 26.1563 10.125 25.2188 7.6875 25.2188C6.75 25.2188 6.1875 25.3594 5.67188 25.5469C6.375 26.1563 7.125 26.7188 7.92187 27.1875C10.0781 27.2344 10.1719 28.125 12.5156 28.125C14.9531 28.125 14.9531 27.1875 17.3906 27.1875C19.0781 27.1875 19.5938 27.6562 20.5781 27.9375C21.7031 27.4687 22.7344 26.8125 23.7188 26.0625C23.3438 26.1094 22.9219 26.1563 22.3125 26.1563Z" fill="white"/>
<path id="Vector_14" d="M12.5625 28.0781C10.2187 28.0781 10.125 27.2344 7.92188 27.1406C9.98438 28.3594 12.4219 29.0156 14.9531 29.0156C16.9688 29.0156 18.8438 28.5938 20.5781 27.8438C19.5938 27.5625 19.0781 27.0938 17.3906 27.0938C15 27.1406 15 28.0781 12.5625 28.0781Z" fill="#2A5F9E"/>
<path id="Vector_15" d="M25.5 11.5313L27.3281 11.5781C26.8594 10.7344 25.3125 10.6875 24.0469 10.9219C24.8438 10.6875 25.7813 10.4063 25.9688 10.3594C25.5938 10.0781 23.9531 9.04688 21.8906 11.1094H21.8437C19.7812 9.04688 18.1406 10.0781 17.7656 10.3594C17.9063 10.4063 18.8906 10.6406 19.6875 10.9219C18.4219 10.7344 16.875 10.7813 16.4062 11.5781L18.2344 11.5313C17.4844 11.9062 17.0625 11.9531 16.9219 12.8437C16.9687 12.8437 17.9062 12.5625 18.8906 12.3281C18.375 12.6094 17.8594 12.9375 17.6719 13.2656C18.5625 13.3125 19.3125 13.0781 19.9219 12.7969C19.5469 13.2656 19.3594 13.7812 19.3594 14.0625C19.7812 13.9687 20.25 13.5938 20.625 13.2188C20.3906 14.0625 20.4375 14.9531 20.6719 15.2812C21.0469 15 21.2812 14.5312 21.4688 14.0156V14.5312H22.2656L22.2188 13.8281C22.4063 14.4375 22.6875 15 23.1094 15.3281C23.3438 14.9531 23.3906 14.1094 23.1563 13.2656C23.5313 13.6406 23.9531 14.0156 24.4219 14.1094C24.4688 13.8281 24.2344 13.3125 23.8594 12.8437C24.4219 13.125 25.2188 13.3594 26.1094 13.3125C25.875 12.9844 25.4062 12.6562 24.8906 12.375C25.875 12.6562 26.8125 12.8906 26.8594 12.8906C26.7188 11.9531 26.2969 11.9062 25.5 11.5313Z" fill="#75A843"/>
<path id="Vector_16" d="M21.2812 13.2188H22.5469V23.4375H21.2812V13.2188Z" fill="#C94747"/>
<path id="Vector_17" d="M18.8906 19.7344L19.9219 20.8125H23.7187L24.75 19.7344L24.8438 18.1406L22.3594 17.3906L22.5938 17.2031L21.7969 16.7344L21 17.2031L21.2344 17.3906L18.9844 17.9531L18.8906 19.7344ZM24.2812 18.4219L23.6719 19.3594L23.0625 19.125L22.3125 18.9844V17.625L24.2812 18.4219ZM19.4063 18.4219L21.375 17.625V18.9844L20.625 19.125L20.0156 19.3594L19.4063 18.4219Z" fill="#F1BF31"/>
<path id="Vector_18" d="M5.15625 5.15625H15V15H5.15625V5.15625Z" fill="#2A5F9E"/>
<g id="Group">
<path id="Vector_19" d="M8.85937 3.79688V6.5625H5.4375L12.1875 15H15V11.4844L8.85937 3.79688Z" fill="white"/>
<path id="Vector_20" d="M5.15625 8.85938H2.34375C1.45312 10.7344 0.9375 12.7969 0.9375 15H6.5625V6.51562H5.15625V8.85938Z" fill="white"/>
</g>
<path id="Vector_21" d="M15 12.7031L8.90625 5.15625H6.09375L14.0625 15H15V12.7031Z" fill="#ED4C5C"/>
<path id="Vector_22" d="M8.85937 2.34375V5.15625H5.15625V6.5625H15V0.9375C12.7969 0.9375 10.7344 1.45312 8.85937 2.34375Z" fill="white"/>
<path id="Vector_23" d="M15 2.34375H8.85938C6.04687 3.70312 3.70312 6.04687 2.34375 8.85938V15H5.15625V5.15625H15V2.34375Z" fill="#ED4C5C"/>
</g>
<defs>
<clipPath id="clip0_15_322">
<rect width="30" height="30" fill="white"/>
</clipPath>
</defs>
</svg>
