<svg width="50" height="50" viewBox="0 0 50 50" fill="none" xmlns="http://www.w3.org/2000/svg">
<g id="emojione:flag-for-nigeria">
<path id="Vector" d="M1.5625 25C1.5625 35.2344 8.125 43.9062 17.1875 47.1094V2.89062C8.125 6.09375 1.5625 14.7656 1.5625 25ZM48.4375 25C48.4375 14.7656 41.9531 6.09375 32.8125 2.89062V47.1094C41.9531 43.9062 48.4375 35.2344 48.4375 25Z" fill="#2A5A00"/>
<path id="Vector_2" d="M17.1875 47.1094C19.6094 47.9688 22.2656 48.4375 25 48.4375C27.7344 48.4375 30.3906 47.9688 32.8125 47.1094V2.89062C30.3906 2.03125 27.7344 1.5625 25 1.5625C22.2656 1.5625 19.6094 2.03125 17.1875 2.89062V47.1094Z" fill="#F9F9F9"/>
</g>
</svg>
