<svg width="23" height="21" viewBox="0 0 23 21" fill="none" xmlns="http://www.w3.org/2000/svg">
<path d="M8.68251 0.849584C6.87126 0.84 5.10793 2.58417 5.91293 4.75H2.87501C2.36668 4.75 1.87917 4.95193 1.51972 5.31138C1.16028 5.67082 0.958344 6.15834 0.958344 6.66667V8.58333C0.958344 8.8375 1.05931 9.08125 1.23903 9.26098C1.41876 9.4407 1.66251 9.54167 1.91668 9.54167H10.5417V6.66667H12.4583V9.54167H21.0833C21.3375 9.54167 21.5813 9.4407 21.761 9.26098C21.9407 9.08125 22.0417 8.8375 22.0417 8.58333V6.66667C22.0417 6.15834 21.8397 5.67082 21.4803 5.31138C21.1209 4.95193 20.6333 4.75 20.125 4.75H17.0871C18.2083 1.61625 13.9917 -0.597499 12.0463 2.105L11.5 2.83333L10.9538 2.08583C10.35 1.23292 9.51626 0.859167 8.68251 0.849584ZM8.62501 2.83333C9.47793 2.83333 9.90918 3.86833 9.30543 4.47208C8.70168 5.07583 7.66668 4.64458 7.66668 3.79167C7.66668 3.5375 7.76764 3.29375 7.94737 3.11402C8.12709 2.9343 8.37084 2.83333 8.62501 2.83333ZM14.375 2.83333C15.2279 2.83333 15.6592 3.86833 15.0554 4.47208C14.4517 5.07583 13.4167 4.64458 13.4167 3.79167C13.4167 3.5375 13.5176 3.29375 13.6974 3.11402C13.8771 2.9343 14.1208 2.83333 14.375 2.83333ZM1.91668 10.5V18.1667C1.91668 18.675 2.11861 19.1625 2.47806 19.522C2.8375 19.8814 3.32501 20.0833 3.83334 20.0833H19.1667C19.675 20.0833 20.1625 19.8814 20.522 19.522C20.8814 19.1625 21.0833 18.675 21.0833 18.1667V10.5H12.4583V18.1667H10.5417V10.5H1.91668Z" fill="#525252"/>
</svg>
