<svg width="50" height="50" viewBox="0 0 50 50" fill="none" xmlns="http://www.w3.org/2000/svg">
<circle cx="25" cy="25" r="25" fill="#D5FFD5"/>
<path d="M25.0747 36.7819C31.7318 36.7819 37.1284 31.3853 37.1284 24.7282C37.1284 18.0711 31.7318 12.6745 25.0747 12.6745C18.4176 12.6745 13.021 18.0711 13.021 24.7282C13.021 31.3853 18.4176 36.7819 25.0747 36.7819Z" fill="#50B651"/>
<path opacity="0.663" fill-rule="evenodd" clip-rule="evenodd" d="M37.0917 24.6943C37.0917 31.3723 31.6782 36.7858 25.0017 36.7858C18.3252 36.7858 12.9102 31.3723 12.9102 24.6943C12.9102 21.7402 12.993 21.301 14.1558 19.6192C14.1558 19.6192 14.0958 21.5188 15.4887 22.6492C16.3548 23.3515 17.2587 22.8445 18.9132 22.0825C20.703 21.2575 22.158 20.7253 23.2932 20.8657C25.0032 21.0775 30.2739 24.2428 33.0246 23.6125C35.2221 23.11 34.9902 17.929 34.9902 17.929C37.3902 20.2726 37.0917 21.8566 37.0917 24.6943Z" fill="url(#paint0_linear_1_20637)"/>
<path opacity="0.586" fill-rule="evenodd" clip-rule="evenodd" d="M30.1899 33.5758C34.5629 29.4624 35.2898 24.75 32.3706 19.4386C32.3854 19.4494 32.566 18.8262 32.9124 17.569C34.466 19.4504 35.2921 21.7726 35.3907 24.5356C35.3899 28.1144 33.6563 31.1278 30.1899 33.5758Z" fill="url(#paint1_linear_1_20637)"/>
<path opacity="0.744" fill-rule="evenodd" clip-rule="evenodd" d="M28.1159 17.5939C26.0051 16.4257 23.5835 14.0758 23.9054 13.5823C24.2273 13.0888 28.4054 13.1737 30.5165 14.3419C32.6276 15.5101 34.4243 19.0144 34.1027 19.5079C33.7811 20.0014 30.2267 18.7621 28.1159 17.5939Z" fill="url(#paint2_radial_1_20637)"/>
<path fill-rule="evenodd" clip-rule="evenodd" d="M29.9544 27.6967C28.2033 27.6967 26.7837 26.2366 26.7837 24.4357C26.7837 22.6348 28.2033 21.175 29.9544 21.175C31.7055 21.175 33.1254 22.6348 33.1254 24.4357C33.1254 26.2366 31.7058 27.6967 29.9544 27.6967ZM29.9769 26.6623C31.0698 26.6623 31.9569 25.6654 31.9569 24.4357C31.9569 23.206 31.0698 22.21 29.9769 22.21C28.884 22.21 27.9969 23.2069 27.9969 24.4363C27.9969 25.6657 28.884 26.6623 29.9769 26.6623Z" fill="white"/>
<path fill-rule="evenodd" clip-rule="evenodd" d="M23.4126 18.5494H25.6974V27.6604H24.4431V19.5487H23.4126V18.5494Z" fill="white"/>
<path fill-rule="evenodd" clip-rule="evenodd" d="M21.7097 21.2677H22.8956V28.8763C22.8956 29.5696 22.1663 30.2917 21.4556 30.6025C21.1196 30.7493 20.4996 30.8365 19.5956 30.8641V30.1072C20.4798 30.0086 21.0766 29.8119 21.386 29.5171C21.5645 29.269 21.6761 28.9791 21.71 28.6753V26.44C21.393 27.1126 20.9938 27.5585 20.5124 27.7777C20.012 28.0477 18.9935 28.0033 18.5777 27.7777C18.1619 27.5521 17.552 26.9581 17.2724 26.0734C17.195 25.8292 17.0024 25.1647 17.0225 24.4606C17.0405 23.7901 17.2625 23.0806 17.447 22.789C17.7638 22.291 18.2633 21.6673 19.0199 21.4066C19.3895 21.2792 20.0745 21.2334 21.0749 21.2692V22.0219C20.3315 21.9717 19.8677 21.9968 19.6835 22.0972C19.4072 22.2472 18.7835 22.4323 18.5777 23.7916C18.3719 25.1509 18.5837 26.2633 19.2362 26.6116C19.4597 26.7316 19.8551 26.8735 20.2205 26.7484C20.9225 26.5084 21.5831 25.6525 21.6335 25.0726C21.6843 24.4842 21.7097 23.2159 21.7097 21.2677Z" fill="white"/>
<path fill-rule="evenodd" clip-rule="evenodd" d="M36.7125 27.1144C35.5926 32.5069 30.8142 36.5587 25.0899 36.5587C18.534 36.5587 13.2192 31.2439 13.2192 24.688C13.2192 20.6152 15.2703 17.0215 18.3957 14.884C15.8562 16.99 14.2392 20.1715 14.2392 23.7292C14.2392 30.0751 19.3836 35.2192 25.7292 35.2192C30.897 35.2192 35.2674 31.8079 36.7125 27.1144Z" fill="url(#paint3_radial_1_20637)"/>
<path fill-rule="evenodd" clip-rule="evenodd" d="M25.09 10.63C17.326 10.63 11.0317 16.924 11.0317 24.688C11.0317 32.452 17.326 38.7463 25.09 38.7463C32.854 38.7463 39.1483 32.452 39.1483 24.688C39.1483 16.924 32.854 10.63 25.09 10.63ZM25.09 36.559C18.5341 36.559 13.2193 31.2442 13.2193 24.6883C13.2193 20.6155 15.2704 17.0218 18.3958 14.8843C20.3669 13.5343 22.701 12.8136 25.09 12.8173C31.6459 12.8173 36.9607 18.1318 36.9607 24.688C36.9612 25.5031 36.878 26.3162 36.7126 27.1144C35.5927 32.5069 30.8143 36.5587 25.09 36.5587V36.559Z" fill="white"/>
<defs>
<linearGradient id="paint0_linear_1_20637" x1="24.5346" y1="19.5802" x2="26.0844" y2="33.5761" gradientUnits="userSpaceOnUse">
<stop stop-color="#123214"/>
<stop offset="0.46" stop-color="#3E7C37"/>
<stop offset="0.91" stop-color="#5FBB46"/>
</linearGradient>
<linearGradient id="paint1_linear_1_20637" x1="33.4877" y1="18.6704" x2="33.4877" y2="29.988" gradientUnits="userSpaceOnUse">
<stop stop-color="white" stop-opacity="0"/>
<stop offset="0.64" stop-color="white" stop-opacity="0.43"/>
<stop offset="1" stop-color="white" stop-opacity="0.42"/>
</linearGradient>
<radialGradient id="paint2_radial_1_20637" cx="0" cy="0" r="1" gradientUnits="userSpaceOnUse" gradientTransform="translate(29.261 16.6244) rotate(26.7606) scale(5.9563 2.48069)">
<stop offset="0.13" stop-color="white"/>
<stop offset="0.29" stop-color="white" stop-opacity="0.69"/>
<stop offset="0.45" stop-color="white" stop-opacity="0.4"/>
<stop offset="0.59" stop-color="white" stop-opacity="0.18"/>
<stop offset="0.69" stop-color="white" stop-opacity="0.05"/>
<stop offset="0.74" stop-color="white" stop-opacity="0"/>
</radialGradient>
<radialGradient id="paint3_radial_1_20637" cx="0" cy="0" r="1" gradientUnits="userSpaceOnUse" gradientTransform="translate(27.1255 21.953) rotate(39.84) scale(13.3479 14.5492)">
<stop offset="0.86" stop-opacity="0"/>
<stop offset="0.98" stop-opacity="0.47"/>
<stop offset="1"/>
</radialGradient>
</defs>
</svg>
