<svg width="25" height="25" viewBox="0 0 25 25" fill="none" xmlns="http://www.w3.org/2000/svg">
<g id="solar:history-3-outline">
<path id="Vector" fill-rule="evenodd" clip-rule="evenodd" d="M9.47915 2.4979C9.51612 2.59365 9.53386 2.69575 9.53136 2.79836C9.52886 2.90097 9.50616 3.00208 9.46456 3.09592C9.42297 3.18975 9.36329 3.27447 9.28893 3.34523C9.21458 3.41599 9.12701 3.47141 9.03123 3.50831C8.88394 3.56477 8.73806 3.62486 8.59373 3.68852C8.49935 3.7349 8.39657 3.76175 8.29156 3.76746C8.18655 3.77317 8.08147 3.75762 7.98262 3.72174C7.88376 3.68586 7.79317 3.63039 7.71626 3.55865C7.63936 3.48692 7.57773 3.4004 7.53508 3.30427C7.49242 3.20815 7.4696 3.1044 7.468 2.99925C7.4664 2.89409 7.48605 2.7897 7.52577 2.69232C7.56548 2.59495 7.62445 2.50659 7.69913 2.43255C7.77382 2.35851 7.86268 2.30031 7.9604 2.26144C8.12707 2.18644 8.29686 2.1156 8.46873 2.04998C8.56449 2.01301 8.66658 1.99527 8.7692 1.99777C8.87181 2.00027 8.97292 2.02297 9.06676 2.06457C9.16059 2.10617 9.24531 2.16585 9.31607 2.2402C9.38683 2.31455 9.44225 2.40212 9.47915 2.4979ZM5.88332 4.41665C6.02608 4.56669 6.10343 4.76729 6.09835 4.97434C6.09327 5.18139 6.00619 5.37795 5.85623 5.52081C5.74206 5.62988 5.63057 5.74172 5.52186 5.85623C5.37889 6.00638 5.18213 6.09359 4.97486 6.09867C4.7676 6.10375 4.5668 6.02628 4.41665 5.88331C4.2665 5.74034 4.17929 5.54358 4.17421 5.33632C4.16913 5.12905 4.2466 4.92826 4.38957 4.7781C4.51665 4.64581 4.64582 4.51665 4.77811 4.38956C4.92815 4.2468 5.12875 4.16945 5.3358 4.17453C5.54285 4.17961 5.74045 4.26669 5.88332 4.41665ZM3.29165 7.56352C3.38543 7.60517 3.47009 7.66488 3.54079 7.73924C3.61149 7.81361 3.66685 7.90117 3.7037 7.99694C3.74056 8.0927 3.75819 8.19479 3.75558 8.29736C3.75298 8.39994 3.73019 8.501 3.68853 8.59477C3.62498 8.73852 3.56353 8.88435 3.50728 9.03123C3.42941 9.21987 3.28083 9.37055 3.0933 9.45105C2.90577 9.53156 2.69419 9.53548 2.5038 9.46199C2.31341 9.38851 2.15934 9.24344 2.07453 9.05782C1.98972 8.8722 1.98091 8.66076 2.04998 8.46873C2.11561 8.29685 2.1854 8.1281 2.2604 7.9604C2.30204 7.86662 2.36176 7.78196 2.43612 7.71126C2.51049 7.64056 2.59805 7.5852 2.69382 7.54835C2.78958 7.51149 2.89167 7.49386 2.99424 7.49647C3.09682 7.49907 3.19788 7.52186 3.29165 7.56352ZM2.10519 11.4625C2.2078 11.4649 2.30892 11.4875 2.40277 11.5291C2.49663 11.5706 2.58138 11.6302 2.6522 11.7045C2.72301 11.7788 2.77848 11.8663 2.81546 11.962C2.85244 12.0578 2.87018 12.1599 2.86769 12.2625C2.86387 12.4208 2.86387 12.5792 2.86769 12.7375C2.87267 12.9447 2.79512 13.1454 2.65213 13.2954C2.50913 13.4454 2.31239 13.5325 2.10519 13.5375C1.89799 13.5425 1.6973 13.4649 1.54727 13.3219C1.39724 13.1789 1.31016 12.9822 1.30519 12.775C1.30078 12.5917 1.30078 12.4083 1.30519 12.225C1.30763 12.1224 1.33025 12.0213 1.37178 11.9274C1.4133 11.8335 1.47292 11.7488 1.54721 11.678C1.6215 11.6072 1.70902 11.5517 1.80476 11.5147C1.9005 11.4777 2.00259 11.46 2.10519 11.4625ZM22.5021 15.5208C22.5978 15.5577 22.6854 15.6131 22.7598 15.6839C22.8341 15.7547 22.8938 15.8394 22.9354 15.9332C22.977 16.027 22.9997 16.1282 23.0022 16.2308C23.0047 16.3334 22.987 16.4355 22.95 16.5312C22.8833 16.7031 22.8146 16.8719 22.7396 17.0396C22.6979 17.1333 22.6382 17.218 22.5638 17.2887C22.4895 17.3594 22.4019 17.4147 22.3061 17.4516C22.2104 17.4884 22.1083 17.5061 22.0057 17.5035C21.9031 17.5009 21.8021 17.4781 21.7083 17.4364C21.6145 17.3948 21.5299 17.3351 21.4592 17.2607C21.3885 17.1863 21.3332 17.0988 21.2963 17.003C21.2594 16.9072 21.2418 16.8052 21.2444 16.7026C21.247 16.6 21.2698 16.499 21.3114 16.4052C21.3754 16.2612 21.4358 16.1157 21.4927 15.9687C21.5296 15.873 21.585 15.7854 21.6558 15.711C21.7265 15.6367 21.8113 15.577 21.9051 15.5354C21.9989 15.4938 22.1 15.4711 22.2026 15.4686C22.3053 15.4661 22.4074 15.4838 22.5031 15.5208H22.5021ZM2.4979 15.5208C2.59365 15.4838 2.69575 15.4661 2.79836 15.4686C2.90097 15.4711 3.00209 15.4938 3.09592 15.5354C3.18976 15.577 3.27448 15.6367 3.34524 15.711C3.416 15.7854 3.47141 15.873 3.50832 15.9687C3.56457 16.1156 3.62498 16.2614 3.68853 16.4062C3.73491 16.5006 3.76176 16.6034 3.76747 16.7084C3.77317 16.8134 3.75762 16.9185 3.72174 17.0173C3.68586 17.1162 3.63039 17.2068 3.55866 17.2837C3.48692 17.3606 3.4004 17.4222 3.30428 17.4649C3.20815 17.5075 3.1044 17.5304 2.99925 17.532C2.8941 17.5336 2.7897 17.5139 2.69233 17.4742C2.59495 17.4345 2.50659 17.3755 2.43255 17.3008C2.35851 17.2261 2.30031 17.1373 2.26144 17.0396C2.18605 16.8722 2.11554 16.7027 2.04998 16.5312C2.01301 16.4355 1.99527 16.3334 1.99777 16.2308C2.00028 16.1282 2.02298 16.027 2.06457 15.9332C2.10617 15.8394 2.16585 15.7547 2.2402 15.6839C2.31455 15.6131 2.40212 15.5577 2.4979 15.5208ZM20.5833 19.1166C20.8958 19.4146 20.9073 19.9083 20.6104 20.2208C20.4838 20.3535 20.3542 20.4834 20.2219 20.6104C20.1475 20.6812 20.0599 20.7366 19.9642 20.7736C19.8684 20.8105 19.7663 20.8283 19.6636 20.8258C19.4564 20.8207 19.2596 20.7335 19.1167 20.5833C18.9737 20.4332 18.8962 20.2324 18.9013 20.0251C18.9064 19.8178 18.9936 19.6211 19.1437 19.4781C19.2583 19.3698 19.3698 19.2583 19.4781 19.1448C19.6208 18.9947 19.8173 18.9074 20.0244 18.9021C20.2314 18.8969 20.4331 18.974 20.5833 19.1166ZM4.41665 19.1166C4.56669 18.9739 4.76729 18.8965 4.97434 18.9016C5.18139 18.9067 5.37795 18.9938 5.52082 19.1437C5.63019 19.2583 5.74165 19.3698 5.85623 19.4781C5.93058 19.5489 5.99026 19.6336 6.03186 19.7275C6.07345 19.8213 6.09616 19.9225 6.09867 20.0251C6.10119 20.1277 6.08346 20.2298 6.04651 20.3256C6.00956 20.4214 5.95411 20.509 5.88332 20.5833C5.81253 20.6577 5.72779 20.7173 5.63393 20.7589C5.54008 20.8005 5.43895 20.8232 5.33632 20.8258C5.23369 20.8283 5.13158 20.8105 5.0358 20.7736C4.94002 20.7366 4.85246 20.6812 4.77811 20.6104C4.64545 20.4841 4.5159 20.3545 4.38957 20.2219C4.2468 20.0718 4.16945 19.8712 4.17453 19.6642C4.17961 19.4571 4.2667 19.2606 4.41665 19.1177V19.1166ZM7.56353 21.7083C7.60517 21.6145 7.66488 21.5299 7.73925 21.4592C7.81361 21.3885 7.90118 21.3331 7.99694 21.2963C8.09271 21.2594 8.19479 21.2418 8.29737 21.2444C8.39995 21.247 8.50101 21.2698 8.59478 21.3114C8.73853 21.375 8.88436 21.4364 9.03123 21.4927C9.21987 21.5705 9.37056 21.7191 9.45106 21.9067C9.53156 22.0942 9.53549 22.3058 9.462 22.4962C9.38851 22.6866 9.24344 22.8406 9.05782 22.9254C8.8722 23.0102 8.66077 23.0191 8.46873 22.95C8.29757 22.8841 8.12807 22.8139 7.9604 22.7396C7.86662 22.6979 7.78196 22.6382 7.71126 22.5638C7.64056 22.4895 7.5852 22.4019 7.54835 22.3061C7.5115 22.2104 7.49387 22.1083 7.49647 22.0057C7.49907 21.9031 7.52186 21.8021 7.56353 21.7083ZM17.4364 21.7083C17.4781 21.8021 17.5009 21.9031 17.5035 22.0057C17.5061 22.1083 17.4885 22.2104 17.4516 22.3061C17.4148 22.4019 17.3594 22.4895 17.2887 22.5638C17.218 22.6382 17.1333 22.6979 17.0396 22.7396C16.8729 22.8135 16.7031 22.8844 16.5312 22.95C16.4355 22.9869 16.3334 23.0046 16.2308 23.0021C16.1282 22.9996 16.0271 22.9769 15.9333 22.9353C15.8394 22.8937 15.7547 22.834 15.684 22.7597C15.6132 22.6854 15.5578 22.5978 15.5208 22.5021C15.4839 22.4063 15.4662 22.3042 15.4687 22.2016C15.4712 22.099 15.4939 21.9979 15.5355 21.9041C15.5771 21.8103 15.6368 21.7255 15.7111 21.6548C15.7854 21.584 15.873 21.5286 15.9687 21.4916C16.116 21.4352 16.2619 21.3751 16.4062 21.3114C16.5955 21.2276 16.8103 21.2223 17.0034 21.2967C17.1966 21.3712 17.3523 21.5192 17.4364 21.7083ZM11.4625 22.8948C11.4649 22.7922 11.4875 22.691 11.5291 22.5972C11.5706 22.5033 11.6302 22.4186 11.7045 22.3478C11.7788 22.277 11.8663 22.2215 11.9621 22.1845C12.0578 22.1475 12.1599 22.1298 12.2625 22.1323C12.4208 22.1362 12.5792 22.1362 12.7375 22.1323C12.9447 22.1273 13.1454 22.2048 13.2954 22.3478C13.4454 22.4908 13.5325 22.6876 13.5375 22.8948C13.5425 23.102 13.4649 23.3027 13.3219 23.4527C13.1789 23.6027 12.9822 23.6898 12.775 23.6948C12.5917 23.6991 12.4083 23.6991 12.225 23.6948C12.1224 23.6923 12.0213 23.6697 11.9274 23.6282C11.8335 23.5867 11.7488 23.527 11.678 23.4528C11.6072 23.3785 11.5517 23.2909 11.5147 23.1952C11.4777 23.0995 11.46 22.9974 11.4625 22.8948ZM11.7187 2.08331C11.7187 1.87611 11.801 1.6774 11.9476 1.53089C12.0941 1.38437 12.2928 1.30206 12.5 1.30206C18.6844 1.30206 23.6979 6.3156 23.6979 12.5C23.6979 12.7072 23.6156 12.9059 23.4691 13.0524C23.3226 13.1989 23.1239 13.2812 22.9167 13.2812C22.7095 13.2812 22.5107 13.1989 22.3642 13.0524C22.2177 12.9059 22.1354 12.7072 22.1354 12.5C22.1354 9.94451 21.1202 7.4937 19.3133 5.68671C17.5063 3.87972 15.0555 2.86456 12.5 2.86456C12.2928 2.86456 12.0941 2.78225 11.9476 2.63574C11.801 2.48923 11.7187 2.29051 11.7187 2.08331ZM12.5 8.59373C12.7072 8.59373 12.9059 8.67604 13.0524 8.82255C13.1989 8.96907 13.2812 9.16778 13.2812 9.37498V12.7604H16.6667C16.8739 12.7604 17.0726 12.8427 17.2191 12.9892C17.3656 13.1357 17.4479 13.3344 17.4479 13.5416C17.4479 13.7488 17.3656 13.9476 17.2191 14.0941C17.0726 14.2406 16.8739 14.3229 16.6667 14.3229H12.5C12.2928 14.3229 12.0941 14.2406 11.9476 14.0941C11.801 13.9476 11.7187 13.7488 11.7187 13.5416V9.37498C11.7187 9.16778 11.801 8.96907 11.9476 8.82255C12.0941 8.67604 12.2928 8.59373 12.5 8.59373Z" fill="#868585"/>
</g>
</svg>
