<svg width="21" height="21" viewBox="0 0 21 21" fill="none" xmlns="http://www.w3.org/2000/svg">
<path d="M11.5417 10.0833L14.6667 13.2083C14.8577 13.3993 14.9532 13.6424 14.9532 13.9375C14.9532 14.2326 14.8577 14.4757 14.6667 14.6667C14.4758 14.8576 14.2327 14.9531 13.9376 14.9531C13.6424 14.9531 13.3994 14.8576 13.2084 14.6667L9.77091 11.2292C9.66675 11.125 9.58862 11.0076 9.53654 10.8771C9.48446 10.7472 9.45841 10.6129 9.45841 10.474V6.33334C9.45841 6.0382 9.55841 5.79063 9.75841 5.59063C9.95772 5.39132 10.2049 5.29167 10.5001 5.29167C10.7952 5.29167 11.0428 5.39132 11.2428 5.59063C11.4421 5.79063 11.5417 6.0382 11.5417 6.33334V10.0833ZM0.968831 14.7448C0.743137 14.2413 0.560845 13.7247 0.421956 13.1948C0.283068 12.6656 0.187581 12.1146 0.135498 11.5417H2.24487C2.29696 11.9236 2.37057 12.2924 2.46571 12.6479C2.56154 13.0042 2.6789 13.3559 2.81779 13.7031L0.968831 14.7448ZM0.135498 9.45834C0.187581 8.88542 0.287581 8.32987 0.435498 7.79167C0.58272 7.25348 0.769179 6.73264 0.994873 6.22917L2.81779 7.27084C2.6789 7.61806 2.56154 7.97396 2.46571 8.33855C2.37057 8.70313 2.29696 9.07639 2.24487 9.45834H0.135498ZM4.43237 18.9896C3.96362 18.6424 3.5296 18.2646 3.13029 17.8563C2.73098 17.4486 2.35772 17.0104 2.0105 16.5417L3.83341 15.5C4.07647 15.8125 4.33272 16.1031 4.60216 16.3719C4.87091 16.6413 5.16154 16.8976 5.47404 17.1406L4.43237 18.9896ZM3.85946 5.47396L2.0105 4.4323C2.35772 3.96355 2.73098 3.52952 3.13029 3.13021C3.5296 2.73091 3.96362 2.35764 4.43237 2.01042L5.47404 3.85938C5.16154 4.10244 4.87508 4.35417 4.61466 4.61459C4.35425 4.87501 4.10251 5.16146 3.85946 5.47396ZM9.45841 20.8646C8.8855 20.8125 8.32994 20.7129 7.79175 20.5656C7.25355 20.4177 6.73272 20.2309 6.22925 20.0052L7.27091 18.1823C7.61814 18.3212 7.97404 18.4382 8.33862 18.5333C8.70321 18.6292 9.07647 18.7031 9.45841 18.7552V20.8646ZM7.27091 2.81771L6.22925 0.994797C6.73272 0.769102 7.25355 0.582297 7.79175 0.43438C8.32994 0.287158 8.8855 0.187505 9.45841 0.135422V2.2448C9.07647 2.29688 8.70321 2.37049 8.33862 2.46563C7.97404 2.56146 7.61814 2.67882 7.27091 2.81771ZM11.5417 20.8646V18.7552C11.9237 18.7031 12.297 18.6292 12.6615 18.5333C13.0261 18.4382 13.382 18.3212 13.7292 18.1823L14.7709 20.0052C14.2674 20.2309 13.7466 20.4177 13.2084 20.5656C12.6702 20.7129 12.1147 20.8125 11.5417 20.8646ZM13.7292 2.81771C13.382 2.67882 13.0261 2.56146 12.6615 2.46563C12.297 2.37049 11.9237 2.29688 11.5417 2.2448V0.135422C12.1147 0.187505 12.6702 0.287158 13.2084 0.43438C13.7466 0.582297 14.2674 0.769102 14.7709 0.994797L13.7292 2.81771ZM16.5678 18.9896L15.5261 17.1406C15.8386 16.8976 16.1251 16.6458 16.3855 16.3854C16.6459 16.125 16.8977 15.8385 17.1407 15.526L18.9897 16.5677C18.6424 17.0365 18.2692 17.4747 17.8699 17.8823C17.4706 18.2906 17.0365 18.6597 16.5678 18.9896ZM17.1407 5.47396C16.8977 5.17882 16.6417 4.89653 16.373 4.62709C16.1036 4.35834 15.8213 4.10244 15.5261 3.85938L16.5678 2.01042C17.0192 2.34028 17.4487 2.70903 17.8563 3.11667C18.2647 3.52501 18.6338 3.95487 18.9636 4.40626L17.1407 5.47396ZM18.7553 9.45834C18.7032 9.05903 18.6296 8.68125 18.5345 8.325C18.4386 7.96945 18.3213 7.61806 18.1824 7.27084L20.0053 6.20313C20.231 6.7066 20.4178 7.2316 20.5657 7.77813C20.7129 8.32535 20.8126 8.88542 20.8647 9.45834H18.7553ZM20.0053 14.7708L18.1824 13.7292C18.3213 13.3819 18.4386 13.026 18.5345 12.6615C18.6296 12.2969 18.7032 11.9236 18.7553 11.5417H20.8647C20.8126 12.1146 20.7129 12.6701 20.5657 13.2083C20.4178 13.7465 20.231 14.2674 20.0053 14.7708Z" fill="#868585"/>
</svg>
