<svg width="20" height="23" viewBox="0 0 20 23" fill="none" xmlns="http://www.w3.org/2000/svg">
<path d="M2.5 22.75C1.8125 22.75 1.22417 22.5054 0.735 22.0163C0.245 21.5263 0 20.9375 0 20.25V9C0 8.60417 0.0887498 8.22917 0.26625 7.875C0.442916 7.52083 0.6875 7.22917 1 7L8.5 1.375C8.72917 1.20833 8.96875 1.08333 9.21875 1C9.46875 0.916667 9.72917 0.875 10 0.875C10.2708 0.875 10.5312 0.916667 10.7812 1C11.0312 1.08333 11.2708 1.20833 11.5 1.375L19 7C19.3125 7.22917 19.5575 7.52083 19.735 7.875C19.9117 8.22917 20 8.60417 20 9V20.25C20 20.9375 19.7554 21.5263 19.2663 22.0163C18.7763 22.5054 18.1875 22.75 17.5 22.75H12.5V14H7.5V22.75H2.5Z" fill="#000"/>
</svg>
