<svg width="144" height="104" viewBox="0 0 144 104" fill="none" xmlns="http://www.w3.org/2000/svg">
<g clip-path="url(#clip0_1007_2800)">
<path d="M115.667 12.5H32.3333C30.1463 12.5728 28.0687 13.4741 26.5214 15.0214C24.9741 16.5687 24.0728 18.6463 24 20.8333V79.1667C24.0728 81.3537 24.9741 83.4313 26.5214 84.9786C28.0687 86.5259 30.1463 87.4272 32.3333 87.5H115.667C117.854 87.4272 119.931 86.5259 121.479 84.9786C123.026 83.4313 123.927 81.3537 124 79.1667V20.8333C123.927 18.6463 123.026 16.5687 121.479 15.0214C119.931 13.4741 117.854 12.5728 115.667 12.5ZM115.667 79.1667H32.3333V20.8333H115.667M82.3333 70.8333V65.625C82.3333 58.7083 68.4167 55.2083 61.5 55.2083C54.5833 55.2083 40.6667 58.7083 40.6667 65.625V70.8333H82.3333ZM61.5 29.1667C59.4398 29.1667 57.4258 29.7776 55.7128 30.9222C53.9998 32.0668 52.6647 33.6936 51.8763 35.597C51.0878 37.5004 50.8816 39.5949 51.2835 41.6155C51.6854 43.6362 52.6775 45.4922 54.1343 46.949C55.5911 48.4058 57.4472 49.3979 59.4678 49.7998C61.4884 50.2018 63.5829 49.9955 65.4863 49.2071C67.3897 48.4187 69.0165 47.0835 70.1611 45.3705C71.3057 43.6575 71.9167 41.6436 71.9167 39.5833C71.9167 38.2154 71.6472 36.8609 71.1237 35.597C70.6003 34.3332 69.833 33.1849 68.8657 32.2176C67.8984 31.2504 66.7501 30.4831 65.4863 29.9596C64.2225 29.4361 62.8679 29.1667 61.5 29.1667ZM86.5 41.6667V54.1667H103.167V41.6667H86.5Z" fill="#525252"/>
</g>
<path d="M16 4H4V16" stroke="#868585" stroke-width="2"/>
<path d="M140 16V4L128 4" stroke="#868585" stroke-width="2"/>
<path d="M128 100H140V88" stroke="#868585" stroke-width="2"/>
<path d="M4 88L4 100H16" stroke="#868585" stroke-width="2"/>
<defs>
<clipPath id="clip0_1007_2800">
<rect width="100" height="100" fill="white" transform="translate(24)"/>
</clipPath>
</defs>
</svg>
