<svg width="21" height="19" viewBox="0 0 21 19" fill="none" xmlns="http://www.w3.org/2000/svg">
<path d="M3.29004 2.67188H17.665C17.833 2.6718 18.0007 2.68245 18.1673 2.70377C18.1108 2.30746 17.9747 1.92668 17.7671 1.5844C17.5595 1.24212 17.2847 0.945428 16.9594 0.712206C16.634 0.478985 16.2648 0.314067 15.874 0.227396C15.4831 0.140726 15.0788 0.134098 14.6854 0.207911L2.86328 2.22625H2.8498C2.10773 2.36816 1.44782 2.78801 1.00486 3.40006C1.67222 2.92538 2.47109 2.67082 3.29004 2.67188ZM17.665 3.75H3.29004C2.5278 3.75083 1.79701 4.054 1.25803 4.59299C0.71904 5.13197 0.415871 5.86276 0.415039 6.625V15.25C0.415871 16.0122 0.71904 16.743 1.25803 17.282C1.79701 17.821 2.5278 18.1242 3.29004 18.125H17.665C18.4273 18.1242 19.1581 17.821 19.6971 17.282C20.236 16.743 20.5392 16.0122 20.54 15.25V6.625C20.5392 5.86276 20.236 5.13197 19.6971 4.59299C19.1581 4.054 18.4273 3.75083 17.665 3.75ZM15.5312 12.375C15.2469 12.375 14.969 12.2907 14.7326 12.1327C14.4962 11.9748 14.312 11.7503 14.2032 11.4876C14.0944 11.2249 14.0659 10.9359 14.1214 10.6571C14.1768 10.3782 14.3137 10.1221 14.5148 9.92104C14.7158 9.72 14.972 9.58309 15.2508 9.52762C15.5297 9.47216 15.8187 9.50062 16.0814 9.60942C16.344 9.71823 16.5685 9.90247 16.7265 10.1389C16.8844 10.3753 16.9688 10.6532 16.9688 10.9375C16.9688 11.3188 16.8173 11.6844 16.5477 11.954C16.2781 12.2236 15.9125 12.375 15.5312 12.375Z" fill="#525252"/>
</svg>
