<svg width="21" height="21" viewBox="0 0 21 21" fill="none" xmlns="http://www.w3.org/2000/svg">
<path d="M20.9166 16.75V20.9167H16.7499V17.7917H13.6249V14.6667H10.4999L8.14575 12.3125C7.57284 12.4896 6.96867 12.5833 6.33325 12.5833C4.67565 12.5833 3.08594 11.9249 1.91383 10.7528C0.741732 9.58065 0.083252 7.99094 0.083252 6.33334C0.083252 4.67573 0.741732 3.08602 1.91383 1.91392C3.08594 0.741816 4.67565 0.0833359 6.33325 0.0833359C7.99086 0.0833359 9.58057 0.741816 10.7527 1.91392C11.9248 3.08602 12.5833 4.67573 12.5833 6.33334C12.5833 6.96875 12.4895 7.57292 12.3124 8.14584L20.9166 16.75ZM5.29159 3.20834C4.73905 3.20834 4.20915 3.42783 3.81845 3.81853C3.42775 4.20923 3.20825 4.73914 3.20825 5.29167C3.20825 5.8442 3.42775 6.37411 3.81845 6.76481C4.20915 7.15551 4.73905 7.375 5.29159 7.375C5.84412 7.375 6.37402 7.15551 6.76472 6.76481C7.15543 6.37411 7.37492 5.8442 7.37492 5.29167C7.37492 4.73914 7.15543 4.20923 6.76472 3.81853C6.37402 3.42783 5.84412 3.20834 5.29159 3.20834Z" fill="#868585"/>
</svg>
