<svg width="16" height="16" viewBox="0 0 16 16" fill="none" xmlns="http://www.w3.org/2000/svg">
<path d="M9.66669 1.33333C9.66685 1.01232 9.79051 0.70367 10.012 0.471343C10.2336 0.239017 10.536 0.100821 10.8566 0.0853946C11.1773 0.0699677 11.4916 0.178491 11.7344 0.388477C11.9772 0.598463 12.1299 0.893816 12.1609 1.21333L12.1667 1.33333L12.1667 11.6492L13.3667 10.4492C13.5932 10.2219 13.8984 10.0904 14.2192 10.0819C14.5399 10.0734 14.8517 10.1886 15.0899 10.4037C15.328 10.6187 15.4744 10.9171 15.4986 11.2371C15.5228 11.557 15.4231 11.874 15.22 12.1225L15.1342 12.2175L11.9425 15.4083C11.1309 16.22 9.76169 15.6917 9.67169 14.5825L9.66669 14.4658L9.66669 1.33333V1.33333ZM0.866694 5.55C0.647858 5.33136 0.517867 5.03934 0.501859 4.73041C0.485851 4.42148 0.584962 4.11759 0.780027 3.8775L0.865861 3.7825L4.05753 0.591665C4.86919 -0.220001 6.23836 0.308331 6.32836 1.4175L6.33336 1.53416L6.33336 14.6667C6.3332 14.9877 6.20955 15.2963 5.98802 15.5287C5.76649 15.761 5.46408 15.8992 5.14343 15.9146C4.82279 15.93 4.5085 15.8215 4.26569 15.6115C4.02288 15.4015 3.87017 15.1062 3.83919 14.7867L3.83336 14.6667L3.83336 4.35083L2.63336 5.55083C2.39899 5.78491 2.08128 5.9164 1.75003 5.9164C1.41878 5.9164 1.10107 5.78491 0.866694 5.55083V5.55Z" fill="#fff"/>
</svg>
