<svg width="17" height="22" viewBox="0 0 17 22" fill="none" xmlns="http://www.w3.org/2000/svg">
<path d="M8.50008 16.7083C9.05262 16.7083 9.58252 16.4888 9.97322 16.0981C10.3639 15.7074 10.5834 15.1775 10.5834 14.625C10.5834 14.0725 10.3639 13.5426 9.97322 13.1519C9.58252 12.7612 9.05262 12.5417 8.50008 12.5417C7.94755 12.5417 7.41764 12.7612 7.02694 13.1519C6.63624 13.5426 6.41675 14.0725 6.41675 14.625C6.41675 15.1775 6.63624 15.7074 7.02694 16.0981C7.41764 16.4888 7.94755 16.7083 8.50008 16.7083ZM14.7501 7.33333C15.3026 7.33333 15.8325 7.55283 16.2232 7.94353C16.6139 8.33423 16.8334 8.86413 16.8334 9.41667V19.8333C16.8334 20.3859 16.6139 20.9158 16.2232 21.3065C15.8325 21.6972 15.3026 21.9167 14.7501 21.9167H2.25008C1.69755 21.9167 1.16764 21.6972 0.776942 21.3065C0.386241 20.9158 0.166748 20.3859 0.166748 19.8333V9.41667C0.166748 8.86413 0.386241 8.33423 0.776942 7.94353C1.16764 7.55283 1.69755 7.33333 2.25008 7.33333H3.29175V5.25C3.29175 3.86866 3.84048 2.5439 4.81723 1.56715C5.79399 0.5904 7.11875 0.041667 8.50008 0.041667C9.18405 0.041667 9.86132 0.176385 10.4932 0.438128C11.1251 0.699871 11.6993 1.08351 12.1829 1.56715C12.6666 2.05079 13.0502 2.62495 13.312 3.25686C13.5737 3.88876 13.7084 4.56603 13.7084 5.25V7.33333H14.7501ZM8.50008 2.125C7.67128 2.125 6.87642 2.45424 6.29037 3.04029C5.70432 3.62634 5.37508 4.4212 5.37508 5.25V7.33333H11.6251V5.25C11.6251 4.4212 11.2958 3.62634 10.7098 3.04029C10.1237 2.45424 9.32888 2.125 8.50008 2.125Z" fill="#868585"/>
</svg>
