<svg width="17" height="22" viewBox="0 0 17 22" fill="none" xmlns="http://www.w3.org/2000/svg">
<path d="M2.25008 21.9167C1.67716 21.9167 1.18689 21.7128 0.779248 21.3052C0.370915 20.8969 0.166748 20.4062 0.166748 19.8333V9.41667C0.166748 8.84375 0.370915 8.35313 0.779248 7.94479C1.18689 7.53715 1.67716 7.33333 2.25008 7.33333H3.29175V5.25C3.29175 3.80903 3.79973 2.58056 4.81571 1.56458C5.83098 0.549307 7.05911 0.0416679 8.50008 0.0416679C9.94105 0.0416679 11.1695 0.549307 12.1855 1.56458C13.2008 2.58056 13.7084 3.80903 13.7084 5.25V7.33333H14.7501C15.323 7.33333 15.8136 7.53715 16.222 7.94479C16.6296 8.35313 16.8334 8.84375 16.8334 9.41667V19.8333C16.8334 20.4062 16.6296 20.8969 16.222 21.3052C15.8136 21.7128 15.323 21.9167 14.7501 21.9167H2.25008ZM8.50008 16.7083C9.073 16.7083 9.56362 16.5045 9.97196 16.0969C10.3796 15.6885 10.5834 15.1979 10.5834 14.625C10.5834 14.0521 10.3796 13.5615 9.97196 13.1531C9.56362 12.7455 9.073 12.5417 8.50008 12.5417C7.92716 12.5417 7.43689 12.7455 7.02925 13.1531C6.62091 13.5615 6.41675 14.0521 6.41675 14.625C6.41675 15.1979 6.62091 15.6885 7.02925 16.0969C7.43689 16.5045 7.92716 16.7083 8.50008 16.7083ZM5.37508 7.33333H11.6251V5.25C11.6251 4.38195 11.3213 3.6441 10.7136 3.03646C10.106 2.42882 9.36814 2.125 8.50008 2.125C7.63203 2.125 6.89418 2.42882 6.28654 3.03646C5.6789 3.6441 5.37508 4.38195 5.37508 5.25V7.33333Z" fill="#000"/>
</svg>
