<svg width="25" height="25" viewBox="0 0 25 25" fill="none" xmlns="http://www.w3.org/2000/svg">
<path d="M6.25008 2.08334H15.6251C16.1776 2.08334 16.7075 2.30284 17.0982 2.69354C17.4889 3.08424 17.7084 3.61414 17.7084 4.16668V6.25001H15.6251V4.16668H6.25008V20.8333H15.6251V18.75H17.7084V20.8333C17.7084 21.3859 17.4889 21.9158 17.0982 22.3065C16.7075 22.6972 16.1776 22.9167 15.6251 22.9167H6.25008C5.69755 22.9167 5.16764 22.6972 4.77694 22.3065C4.38624 21.9158 4.16675 21.3859 4.16675 20.8333V4.16668C4.16675 3.61414 4.38624 3.08424 4.77694 2.69354C5.16764 2.30284 5.69755 2.08334 6.25008 2.08334Z" fill="#F9F9F9"/>
<path d="M16.7604 16.2396L18.2292 17.7083L23.4375 12.5L18.2292 7.29166L16.7604 8.76041L19.4479 11.4583H9.375V13.5417H19.4479L16.7604 16.2396Z" fill="#F9F9F9"/>
</svg>
