<svg width="23" height="19" viewBox="0 0 23 19" fill="none" xmlns="http://www.w3.org/2000/svg">
<path d="M19.7031 0.90625H3.29688C2.57191 0.907026 1.87686 1.19536 1.36424 1.70799C0.85161 2.22061 0.563276 2.91566 0.5625 3.64062V15.3594C0.563276 16.0843 0.85161 16.7794 1.36424 17.292C1.87686 17.8046 2.57191 18.093 3.29688 18.0938H19.7031C20.4281 18.093 21.1231 17.8046 21.6358 17.292C22.1484 16.7794 22.4367 16.0843 22.4375 15.3594V3.64062C22.4367 2.91566 22.1484 2.22061 21.6358 1.70799C21.1231 1.19536 20.4281 0.907026 19.7031 0.90625ZM19.0107 5.4292L11.9795 10.8979C11.8424 11.0045 11.6737 11.0624 11.5 11.0624C11.3263 11.0624 11.1576 11.0045 11.0205 10.8979L3.98926 5.4292C3.90665 5.36681 3.83726 5.28863 3.78512 5.1992C3.73299 5.10976 3.69915 5.01086 3.68557 4.90823C3.67199 4.80561 3.67894 4.70131 3.70602 4.60139C3.7331 4.50147 3.77977 4.40794 3.84331 4.32621C3.90685 4.24449 3.986 4.17621 4.07616 4.12534C4.16632 4.07447 4.26569 4.04202 4.3685 4.02989C4.4713 4.01775 4.5755 4.02617 4.67502 4.05465C4.77455 4.08314 4.86742 4.13111 4.94824 4.1958L11.5 9.2915L18.0518 4.1958C18.2156 4.07208 18.4215 4.01782 18.6251 4.04475C18.8286 4.07168 19.0133 4.17764 19.1393 4.33971C19.2653 4.50178 19.3225 4.70694 19.2984 4.91082C19.2744 5.1147 19.171 5.30092 19.0107 5.4292Z" fill="#000"/>
</svg>
