<svg width="26" height="27" viewBox="0 0 26 27" fill="none" xmlns="http://www.w3.org/2000/svg">
<mask id="mask0_1_19755" style="mask-type:alpha" maskUnits="userSpaceOnUse" x="0" y="0" width="26" height="27">
<path d="M9.4 1.5H2.2C1.88174 1.5 1.57652 1.62643 1.35147 1.85147C1.12643 2.07652 1 2.38174 1 2.7V9.9C1 10.2183 1.12643 10.5235 1.35147 10.7485C1.57652 10.9736 1.88174 11.1 2.2 11.1H9.4C9.71826 11.1 10.0235 10.9736 10.2485 10.7485C10.4736 10.5235 10.6 10.2183 10.6 9.9V2.7C10.6 2.38174 10.4736 2.07652 10.2485 1.85147C10.0235 1.62643 9.71826 1.5 9.4 1.5ZM9.4 15.9H2.2C1.88174 15.9 1.57652 16.0264 1.35147 16.2515C1.12643 16.4765 1 16.7817 1 17.1V24.3C1 24.6183 1.12643 24.9235 1.35147 25.1485C1.57652 25.3736 1.88174 25.5 2.2 25.5H9.4C9.71826 25.5 10.0235 25.3736 10.2485 25.1485C10.4736 24.9235 10.6 24.6183 10.6 24.3V17.1C10.6 16.7817 10.4736 16.4765 10.2485 16.2515C10.0235 16.0264 9.71826 15.9 9.4 15.9ZM23.8 1.5H16.6C16.2817 1.5 15.9765 1.62643 15.7515 1.85147C15.5264 2.07652 15.4 2.38174 15.4 2.7V9.9C15.4 10.2183 15.5264 10.5235 15.7515 10.7485C15.9765 10.9736 16.2817 11.1 16.6 11.1H23.8C24.1183 11.1 24.4235 10.9736 24.6485 10.7485C24.8736 10.5235 25 10.2183 25 9.9V2.7C25 2.38174 24.8736 2.07652 24.6485 1.85147C24.4235 1.62643 24.1183 1.5 23.8 1.5Z" fill="white" stroke="white" stroke-width="2" stroke-linejoin="round"/>
<path d="M15.4 15.9H25M20.2 20.7H25M15.4 25.5H25" stroke="white" stroke-width="2" stroke-linecap="round" stroke-linejoin="round"/>
</mask>
<g mask="url(#mask0_1_19755)">
<path d="M-1.40002 -0.899994H27.4V27.9H-1.40002V-0.899994Z" fill="#000"/>
</g>
</svg>
