<svg width="50" height="50" viewBox="0 0 50 50" fill="none" xmlns="http://www.w3.org/2000/svg">
<circle cx="25" cy="25" r="25" fill="#FFF7DD"/>
<circle cx="25" cy="25" r="15" fill="#FFD54F"/>
<ellipse cx="25" cy="25.5" rx="15" ry="8.5" fill="#0E153A"/>
<path d="M16.1289 29L17.3359 23.2891H19.3594V27.3438H19.3906L21.2578 23.2891H23.3125L22.0898 29H20.7188L21.1758 26.8555C21.2617 26.457 21.3372 26.1302 21.4023 25.875C21.4674 25.6198 21.5208 25.4167 21.5625 25.2656C21.6068 25.112 21.638 24.9909 21.6562 24.9023H21.625L19.7422 29H18.2969V24.9023H18.2656C18.224 25.1706 18.1836 25.4258 18.1445 25.668C18.1055 25.9076 18.0677 26.1302 18.0312 26.3359C17.9974 26.5417 17.9635 26.7305 17.9297 26.9023L17.4883 29H16.1289ZM27.8164 29L29.0234 23.2891H30.8008L31.918 27.1289H31.9531C31.9661 27.0143 31.9844 26.8685 32.0078 26.6914C32.0339 26.5143 32.0612 26.3346 32.0898 26.1523C32.1211 25.9701 32.1497 25.8125 32.1758 25.6797L32.6875 23.2891H34.0469L32.8398 29H31.0625L29.9336 24.9844H29.9023C29.8997 25.0365 29.8919 25.1263 29.8789 25.2539C29.8659 25.3789 29.849 25.5221 29.8281 25.6836C29.8073 25.8451 29.7839 26.0091 29.7578 26.1758C29.7344 26.3398 29.7083 26.487 29.6797 26.6172L29.1758 29H27.8164Z" fill="white"/>
<path d="M24.1953 29L25.1211 24.5508H23.8828L24.1523 23.2891H28.168L27.8906 24.5508H26.6484L25.7227 29H24.1953Z" fill="#FFD54F"/>
</svg>
