<svg width="300" height="195" viewBox="0 0 300 195" fill="none" xmlns="http://www.w3.org/2000/svg">
<g clip-path="url(#clip0_1223_7464)">
<path d="M9.5077 149.298C10.9944 134.122 19.9804 118.974 34.278 113.675C28.9948 129.393 29.4413 146.473 35.5387 161.893C37.9117 167.831 41.1695 174.189 39.2419 180.287C38.0426 184.081 34.9439 187.04 31.4431 188.932C27.9422 190.823 24.0272 191.783 20.161 192.725L19.4123 193.378C12.8766 179.601 8.02096 164.473 9.5077 149.298Z" fill="#F0F0F0"/>
<path d="M34.4289 113.958C26.3562 123.486 21.2753 135.655 20.3869 148.13C20.1949 150.828 20.2348 153.58 20.892 156.217C21.5524 158.782 22.8875 161.123 24.7587 162.997C26.4684 164.78 28.4236 166.405 29.6701 168.573C30.9839 170.857 31.1007 173.489 30.3068 175.972C29.3354 179.011 27.33 181.519 25.2837 183.904C23.0117 186.552 20.6098 189.267 19.7047 192.722C19.5951 193.141 18.9518 192.946 19.0613 192.528C20.6359 186.516 26.34 182.976 28.9623 177.529C30.1859 174.988 30.651 172.062 29.3736 169.446C28.2565 167.159 26.2418 165.481 24.4951 163.691C22.6611 161.811 21.2383 159.734 20.4673 157.202C19.6785 154.612 19.5309 151.855 19.6532 149.165C19.9759 143.067 21.2555 137.057 23.4451 131.356C25.9079 124.836 29.468 118.785 33.9712 113.465C34.2501 113.136 34.7059 113.631 34.4289 113.958Z" fill="white"/>
<path d="M20.4621 144.06C18.3731 143.61 16.5119 142.432 15.2111 140.737C13.9103 139.042 13.2545 136.939 13.3608 134.805C13.3659 134.718 13.4046 134.636 13.4687 134.577C13.5328 134.518 13.6174 134.486 13.7045 134.488C13.7916 134.49 13.8746 134.526 13.9358 134.588C13.997 134.65 14.0318 134.733 14.0328 134.821C13.9301 136.808 14.5412 138.766 15.7558 140.343C16.9703 141.919 18.7083 143.009 20.6561 143.417C21.0793 143.506 20.8829 144.149 20.4621 144.06Z" fill="white"/>
<path d="M23.7731 162.207C27.4641 159.871 30.1389 156.229 31.2641 152.008C31.3752 151.59 32.0185 151.784 31.9075 152.202C30.7284 156.592 27.9372 160.377 24.0909 162.8C23.7242 163.03 23.4084 162.437 23.7731 162.207Z" fill="white"/>
<path d="M26.5477 125.456C27.3197 125.799 28.1647 125.944 29.0068 125.879C29.8489 125.814 30.6618 125.541 31.3723 125.085C31.736 124.85 32.0514 125.443 31.6901 125.677C30.9027 126.178 30.0047 126.478 29.0744 126.552C28.1442 126.625 27.21 126.47 26.3537 126.1C26.27 126.071 26.2002 126.012 26.1585 125.935C26.1167 125.857 26.1062 125.766 26.1289 125.681C26.1551 125.596 26.2137 125.524 26.2921 125.482C26.3705 125.44 26.4623 125.431 26.5477 125.456Z" fill="white"/>
<path d="M78.9548 139.547C78.7319 139.7 78.509 139.853 78.286 140.012C75.2999 142.089 72.4875 144.405 69.8766 146.938C69.6716 147.13 69.4668 147.329 69.2678 147.527C63.0424 153.695 58.0164 160.966 54.4452 168.969C53.027 172.155 51.8533 175.444 50.9342 178.808C49.6652 183.454 48.6588 188.592 46.0071 192.434C45.735 192.838 45.4381 193.225 45.1181 193.592L20.2666 194.24C20.2094 194.213 20.1521 194.192 20.0946 194.165L19.1035 194.237C19.1388 194.06 19.1792 193.877 19.2145 193.7C19.2345 193.598 19.2601 193.495 19.2801 193.392C19.2953 193.324 19.3107 193.255 19.3204 193.193C19.3253 193.17 19.3305 193.147 19.3356 193.13C19.3454 193.067 19.361 193.01 19.3709 192.953C19.5939 191.932 19.8244 190.91 20.0626 189.888C20.0624 189.882 20.0624 189.882 20.0678 189.877C21.902 182.095 24.4019 174.399 27.9906 167.327C28.0986 167.114 28.2062 166.895 28.3256 166.682C29.9609 163.503 31.8533 160.464 33.9838 157.593C35.1555 156.025 36.4058 154.517 37.7299 153.075C41.1585 149.357 45.1506 146.201 49.5598 143.723C58.3504 138.784 68.6226 136.712 78.2232 139.339C78.4688 139.406 78.7091 139.474 78.9548 139.547Z" fill="#F0F0F0"/>
<path d="M78.9076 139.863C66.7254 142.611 55.3419 149.268 47.1216 158.694C45.3444 160.732 43.7189 162.954 42.6564 165.455C41.6394 167.9 41.2959 170.573 41.6614 173.197C41.9531 175.649 42.5356 178.124 42.226 180.605C41.8997 183.22 40.4086 185.392 38.2794 186.897C35.6743 188.738 32.5628 189.534 29.4931 190.206C26.0847 190.952 22.5326 191.673 19.7295 193.888C19.3898 194.156 18.9934 193.613 19.3325 193.345C24.2095 189.493 30.8955 190.1 36.2684 187.33C38.7755 186.038 40.9083 183.982 41.4632 181.124C41.9485 178.626 41.35 176.073 41.0332 173.592C40.7005 170.987 40.8154 168.471 41.724 165.986C42.6535 163.443 44.1956 161.153 45.9129 159.078C49.8422 154.404 54.4821 150.376 59.6626 147.142C65.5547 143.419 72.0402 140.731 78.8386 139.195C79.2594 139.1 79.3257 139.769 78.9076 139.863Z" fill="white"/>
<path d="M49.6317 155.489C48.2345 153.872 47.4577 151.811 47.4398 149.674C47.4219 147.538 48.1642 145.464 49.5341 143.824C49.8124 143.493 50.3397 143.91 50.061 144.241C48.7825 145.766 48.0913 147.698 48.112 149.688C48.1327 151.677 48.864 153.594 50.174 155.092C50.4583 155.418 49.9143 155.813 49.6317 155.489Z" fill="white"/>
<path d="M41.3497 171.972C45.7035 172.329 50.0318 171.032 53.4715 168.339C53.812 168.072 54.2086 168.614 53.8684 168.881C50.2837 171.677 45.7767 173.018 41.2469 172.637C40.8152 172.6 40.9203 171.936 41.3497 171.972Z" fill="white"/>
<path d="M65.6928 144.299C66.103 145.038 66.6902 145.662 67.4015 146.118C68.1129 146.573 68.9262 146.844 69.7685 146.908C70.2005 146.939 70.0949 147.603 69.6657 147.572C68.7355 147.498 67.8376 147.197 67.0505 146.695C66.2635 146.194 65.6111 145.508 65.1505 144.696C65.1006 144.623 65.0804 144.534 65.0939 144.447C65.1074 144.36 65.1536 144.281 65.2231 144.227C65.2952 144.174 65.385 144.153 65.4729 144.166C65.5608 144.18 65.6398 144.228 65.6928 144.299Z" fill="white"/>
<path d="M224.812 13.3147C224.44 12.2191 219.787 8.49482 222.639 7.86885L224.977 10.9866L235.727 0.236694L236.808 1.31789L224.812 13.3147Z" fill="#525252"/>
<path d="M224.812 49.8689C224.44 48.7733 219.787 45.049 222.639 44.423L224.977 47.5408L235.727 36.7909L236.808 37.8721L224.812 49.8689Z" fill="#525252"/>
<path d="M224.812 86.9453C224.44 85.8497 219.787 82.1254 222.639 81.4994L224.977 84.6172L235.727 73.8672L236.808 74.9484L224.812 86.9453Z" fill="#525252"/>
<path d="M214.913 56.97C216.745 56.97 218.23 55.4848 218.23 53.6528C218.23 51.8207 216.745 50.3355 214.913 50.3355C213.081 50.3355 211.596 51.8207 211.596 53.6528C211.596 55.4848 213.081 56.97 214.913 56.97Z" fill="#3F3D56"/>
<path d="M214.913 20.8119C216.745 20.8119 218.23 19.3267 218.23 17.4946C218.23 15.6626 216.745 14.1774 214.913 14.1774C213.081 14.1774 211.596 15.6626 211.596 17.4946C211.596 19.3267 213.081 20.8119 214.913 20.8119Z" fill="#3F3D56"/>
<path d="M300 9.86493H246.592V10.5284H300V9.86493Z" fill="#3F3D56"/>
<path d="M216.571 95.5145C218.403 95.5145 219.888 94.0293 219.888 92.1973C219.888 90.3652 218.403 88.88 216.571 88.88C214.739 88.88 213.254 90.3652 213.254 92.1973C213.254 94.0293 214.739 95.5145 216.571 95.5145Z" fill="#3F3D56"/>
<path d="M300 46.4191H246.592V47.0825H300V46.4191Z" fill="#3F3D56"/>
<path d="M300 83.4954H246.592V84.1589H300V83.4954Z" fill="#3F3D56"/>
<path d="M233.19 91.888H216.604V74.97H227.882V75.6335H217.267V91.2246H232.526V83.5949H233.19V91.888Z" fill="#3F3D56"/>
<path d="M233.19 54.7347H216.604V37.8167H227.882V38.4802H217.267V54.0713H232.526V46.4416H233.19V54.7347Z" fill="#3F3D56"/>
<path d="M233.19 16.918H216.604V0H227.882V0.663451H217.267V16.2546H232.526V8.62487H233.19V16.918Z" fill="#3F3D56"/>
<path d="M124.897 60.2983C124.897 60.2983 120.464 79.0147 125.882 79.0147C131.3 79.0147 144.106 57.8356 144.106 57.8356L139.673 52.4177L131.717 63.4642L131.3 57.8356L124.897 60.2983Z" fill="#A0616A"/>
<path d="M142.924 58.6493C145.305 58.6493 147.236 56.7185 147.236 54.3368C147.236 51.9552 145.305 50.0244 142.924 50.0244C140.542 50.0244 138.611 51.9552 138.611 54.3368C138.611 56.7185 140.542 58.6493 142.924 58.6493Z" fill="#A0616A"/>
<path d="M121.138 187.773L126.878 187.772L129.609 165.631L121.137 165.631L121.138 187.773Z" fill="#A0616A"/>
<path d="M120.936 193.761L138.588 193.76V193.537C138.588 191.715 137.864 189.967 136.575 188.679C135.287 187.39 133.539 186.666 131.717 186.666H131.717L128.492 184.22L122.476 186.667L120.936 186.667L120.936 193.761Z" fill="#2F2E41"/>
<path d="M59.3906 180.611L64.5267 183.174L76.8576 164.582L69.2771 160.799L59.3906 180.611Z" fill="#A0616A"/>
<path d="M56.5371 185.879L72.3316 193.761L72.4313 193.561C73.2449 191.931 73.3776 190.044 72.8001 188.316C72.2226 186.587 70.9823 185.159 69.3519 184.345L69.3516 184.345L67.5589 180.717L61.0836 180.219L59.7048 179.531L56.5371 185.879Z" fill="#2F2E41"/>
<path d="M189.034 193.783H0V194.526H189.034V193.783Z" fill="#CCCCCC"/>
<path d="M84.0247 94.2525C84.0247 94.2525 81.7307 121.835 81.2382 127.745C80.9005 131.45 80.0723 135.094 78.7755 138.581C78.7755 138.581 77.7904 140.551 77.7904 142.522L66.6263 162.811C66.6263 162.811 63.2147 165.319 63.7073 167.289C64.1998 169.259 61.6504 170.441 61.6504 170.441L73.4073 172.707C73.4073 172.707 72.9147 171.229 74.3924 170.737C75.87 170.244 77.0462 165.972 77.0462 165.972L93.5516 139.074L105.372 114.447C105.372 114.447 112.268 136.611 113.746 139.074C113.746 139.074 119.163 166.656 120.149 169.119C121.134 171.581 121.626 171.581 121.134 172.566C120.641 173.551 120.641 174.536 121.134 175.029C121.626 175.521 130.984 175.029 130.984 175.029L128.522 140.059L124.089 98.1933L101.432 91.2978L84.0247 94.2525Z" fill="#2F2E41"/>
<path d="M106.208 28.4062C111.921 28.4062 116.552 23.7754 116.552 18.063C116.552 12.3506 111.921 7.71973 106.208 7.71973C100.496 7.71973 95.8652 12.3506 95.8652 18.063C95.8652 23.7754 100.496 28.4062 106.208 28.4062Z" fill="#A0616A"/>
<path d="M125.075 43.5218L112.762 36.0618C112.762 36.0618 112.421 31.4293 108.913 31.2113C107.152 31.1019 104.508 30.9346 100.542 30.6788C99.7037 30.6248 99.138 35.2109 98.1773 35.1487L85.18 38.5965L87.1502 72.0889C87.1502 72.0889 84.195 85.3874 85.18 87.8501C86.1651 90.3127 82.7174 91.2978 83.7024 91.7903C84.6875 92.2829 83.7024 95.7306 83.7024 95.7306C83.7024 95.7306 102.911 105.581 124.09 98.1933L122.12 91.7903C122.388 90.9533 122.439 90.0618 122.266 89.1999C122.094 88.3381 121.705 87.5345 121.135 86.865C121.135 86.865 123.105 83.9098 120.643 81.4471C120.643 81.4471 121.628 77.0143 119.165 75.0441L118.672 68.1486L120.15 64.7008L125.075 43.5218Z" fill="#E6E6E6"/>
<path d="M97.2319 23.9718L96.9428 23.3003C96.9056 23.2134 93.2477 14.5662 96.4899 9.23236C97.9908 6.76305 100.72 5.36892 104.601 5.08903C110.674 4.64991 114.831 6.09051 116.958 9.36777C117.315 9.9232 117.516 10.5645 117.539 11.2242C117.562 11.884 117.407 12.5378 117.09 13.1169C116.773 13.696 116.306 14.179 115.738 14.5152C115.17 14.8514 114.522 15.0283 113.862 15.0273H113.78L112.664 13.5785L112.599 13.7194C112.195 14.5934 111.267 15.0719 110.181 14.9671C109.996 14.9538 109.832 15.1134 109.701 15.4548C109.656 15.6042 109.573 15.7389 109.459 15.8447C109.344 15.9506 109.204 16.0238 109.051 16.0566C108.248 16.2129 107.104 15.2015 106.592 14.6974C106.572 14.8134 106.527 14.9238 106.461 15.0212C106.395 15.1186 106.309 15.2006 106.208 15.2617C105.668 15.5732 104.828 15.1663 104.587 15.0368C102.666 15.4449 101.422 15.3358 100.89 14.7126C100.528 17.2681 99.7531 21.8679 98.8235 22.1229C98.7264 22.1452 98.6246 22.1357 98.5333 22.0958C98.4419 22.0558 98.3658 21.9876 98.3162 21.9011C98.0924 21.6105 97.8923 21.4657 97.7675 21.5064C97.465 21.6026 97.2865 22.5984 97.261 23.2411L97.2319 23.9718Z" fill="#2F2E41"/>
<path d="M119.657 44.0143L124.571 43.2161C128.11 46.6167 130.521 51.0212 131.478 55.8352C132.956 63.7158 133.448 65.1934 133.448 65.1934L121.628 68.1486L115.225 55.8352L119.657 44.0143Z" fill="#E6E6E6"/>
<path d="M97.8547 54.2646L94.8184 92.756L172.304 98.8684L175.341 60.3769L97.8547 54.2646Z" fill="white"/>
<path d="M106.134 57.2467C104.237 55.8926 101.83 55.7947 100.91 55.8141C101.191 56.6899 102.063 58.9362 103.959 60.2909C105.86 61.6485 108.264 61.7434 109.183 61.7245C108.902 60.849 108.03 58.6018 106.134 57.2467Z" fill="#525252"/>
<path d="M113.614 81.7396L101.172 80.7581C100.804 80.7291 100.434 80.7728 100.083 80.8867C99.7327 81.0006 99.4078 81.1825 99.1274 81.4219C98.8469 81.6614 98.6164 81.9537 98.4489 82.2823C98.2814 82.6108 98.1803 82.9691 98.1513 83.3368C98.1223 83.7044 98.166 84.0742 98.2799 84.4249C98.3938 84.7756 98.5756 85.1005 98.8151 85.381C99.0545 85.6614 99.3469 85.892 99.6754 86.0595C100.004 86.2269 100.362 86.3281 100.73 86.3571L113.172 87.3385C113.914 87.3971 114.65 87.1583 115.216 86.6747C115.783 86.1912 116.134 85.5024 116.192 84.7599C116.251 84.0174 116.012 83.2821 115.528 82.7157C115.045 82.1493 114.356 81.7982 113.614 81.7396Z" fill="#525252"/>
<path d="M172.286 56.6355L102.527 51.1322C101.716 51.0683 100.9 51.1648 100.126 51.4163C99.3515 51.6678 98.6345 52.0693 98.0156 52.5978C97.3967 53.1264 96.888 53.7717 96.5185 54.4969C96.149 55.222 95.926 56.0129 95.8621 56.8243L93.1793 90.8099C93.0503 92.449 93.5776 94.0722 94.6452 95.3226C95.7127 96.5731 97.2332 97.3484 98.8722 97.478L168.631 102.981C169.442 103.045 170.258 102.949 171.032 102.697C171.806 102.446 172.523 102.044 173.142 101.516C173.761 100.987 174.27 100.342 174.639 99.6167C175.009 98.8915 175.232 98.1006 175.296 97.2892L177.845 64.9873L177.897 64.3274L177.978 63.3004C178.042 62.4891 177.945 61.673 177.694 60.899C177.442 60.1249 177.041 59.408 176.512 58.7891C175.984 58.1702 175.338 57.6614 174.613 57.2919C173.888 56.9224 173.097 56.6994 172.286 56.6355ZM170.226 86.2048L169.784 91.8039C169.703 92.7928 169.234 93.7095 168.479 94.3535C167.724 94.9976 166.745 95.3166 165.756 95.2408L156.423 94.5055C155.435 94.4247 154.518 93.9556 153.874 93.2009C153.23 92.4461 152.911 91.4671 152.986 90.4778L153.429 84.8787C153.51 83.89 153.979 82.9735 154.733 82.3295C155.488 81.6855 156.467 81.3664 157.456 81.4418L166.786 82.178C167.774 82.2591 168.691 82.728 169.336 83.4824C169.98 84.2368 170.3 85.2154 170.226 86.2048ZM97.5335 83.2853C97.6059 82.3792 98.0347 81.5389 98.7259 80.9487C99.4171 80.3585 100.314 80.0665 101.22 80.1369L113.662 81.119C114.111 81.1537 114.55 81.2766 114.951 81.4807C115.353 81.6849 115.711 81.9662 116.004 82.3086C116.297 82.6511 116.52 83.048 116.66 83.4766C116.8 83.9051 116.853 84.3571 116.818 84.8065C116.783 85.2559 116.66 85.694 116.456 86.0957C116.251 86.4975 115.969 86.855 115.627 87.1478C115.284 87.4407 114.887 87.6631 114.458 87.8025C114.03 87.9418 113.578 87.9953 113.128 87.9599L113.122 87.9615L100.68 86.9794C100.231 86.9439 99.793 86.8201 99.3916 86.6151C98.9901 86.4102 98.633 86.1281 98.3407 85.7849C98.0485 85.4418 97.8267 85.0444 97.6882 84.6155C97.5497 84.1866 97.4971 83.7345 97.5335 83.2853ZM100.197 55.5922L100.112 55.2442L100.47 55.2114C100.61 55.1963 103.919 54.8992 106.496 56.7395C109.072 58.5798 109.862 61.8085 109.896 61.9436L109.978 62.2924L109.621 62.3285C109.114 62.3661 108.605 62.3628 108.099 62.3184C106.488 62.2241 104.932 61.6987 103.594 60.7971C101.018 58.9569 100.228 55.7281 100.197 55.5922Z" fill="#525252"/>
<path d="M159.761 89.9181L155.717 89.5991C155.429 89.5769 155.143 89.67 154.923 89.8581C154.703 90.0461 154.567 90.3137 154.544 90.6021C154.522 90.8905 154.614 91.1761 154.802 91.3963C154.99 91.6165 155.257 91.7532 155.545 91.7765L159.589 92.0955C159.877 92.1177 160.163 92.0246 160.383 91.8365C160.603 91.6485 160.739 91.3809 160.762 91.0925C160.784 90.8041 160.692 90.5184 160.504 90.2983C160.316 90.0781 160.049 89.9413 159.761 89.9181Z" fill="#525252"/>
<path d="M167.225 90.507L163.181 90.188C162.893 90.166 162.607 90.2592 162.388 90.4472C162.168 90.6352 162.032 90.9027 162.009 91.191C161.987 91.4793 162.079 91.7648 162.267 91.9849C162.454 92.2051 162.721 92.3419 163.009 92.3653L167.053 92.6843C167.341 92.7063 167.627 92.6131 167.846 92.4251C168.066 92.2371 168.202 91.9696 168.225 91.6813C168.248 91.3931 168.155 91.1075 167.968 90.8874C167.78 90.6672 167.513 90.5304 167.225 90.507Z" fill="#525252"/>
<path d="M159.981 87.1187L155.937 86.7997C155.649 86.7777 155.363 86.8709 155.144 87.0589C154.924 87.2469 154.788 87.5144 154.765 87.8027C154.742 88.091 154.835 88.3765 155.022 88.5966C155.21 88.8168 155.477 88.9536 155.765 88.977L159.809 89.296C160.097 89.3183 160.383 89.2252 160.603 89.0371C160.823 88.8491 160.959 88.5815 160.982 88.2931C161.004 88.0047 160.912 87.719 160.724 87.4988C160.536 87.2786 160.269 87.1419 159.981 87.1187Z" fill="#525252"/>
<path d="M167.446 87.7075L163.403 87.3885C163.114 87.3663 162.829 87.4594 162.609 87.6475C162.389 87.8355 162.253 88.1031 162.23 88.3915C162.207 88.6799 162.3 88.9655 162.487 89.1857C162.675 89.4059 162.942 89.5426 163.231 89.5659L167.274 89.8849C167.563 89.9071 167.848 89.814 168.068 89.626C168.288 89.4379 168.424 89.1703 168.447 88.8819C168.47 88.5935 168.377 88.3079 168.19 88.0877C168.002 87.8675 167.735 87.7308 167.446 87.7075Z" fill="#525252"/>
<path d="M160.202 84.3192L156.158 84.0002C155.87 83.9779 155.585 84.0711 155.365 84.2591C155.145 84.4471 155.009 84.7147 154.986 85.0031C154.963 85.2915 155.056 85.5772 155.243 85.7974C155.431 86.0176 155.698 86.1543 155.987 86.1775L160.03 86.4965C160.319 86.5186 160.604 86.4253 160.824 86.2373C161.043 86.0493 161.18 85.7818 161.202 85.4935C161.225 85.2052 161.132 84.9197 160.945 84.6996C160.757 84.4794 160.49 84.3426 160.202 84.3192Z" fill="#525252"/>
<path d="M167.666 84.908L163.623 84.5891C163.334 84.567 163.049 84.6602 162.829 84.8483C162.61 85.0363 162.473 85.3038 162.451 85.5921C162.428 85.8803 162.52 86.1659 162.708 86.386C162.895 86.6062 163.163 86.743 163.451 86.7664L167.494 87.0854C167.783 87.1074 168.068 87.0142 168.288 86.8262C168.507 86.6381 168.644 86.3706 168.666 86.0824C168.689 85.7941 168.597 85.5086 168.409 85.2884C168.222 85.0683 167.954 84.9315 167.666 84.908Z" fill="#525252"/>
<path d="M94.8254 67.5477L94.7734 68.2094L176.661 74.642L176.713 73.9803L94.8254 67.5477Z" fill="white"/>
<path d="M177.898 64.3273L177.847 64.9874L174.997 64.7638L144.633 62.3787L144.688 61.7179L175.048 64.1037L177.898 64.3273Z" fill="#3F3D56"/>
<path d="M77.7918 57.3128C77.7918 57.3128 73.3589 76.0292 78.7768 76.0292C84.1947 76.0292 97.0007 54.8501 97.0007 54.8501L92.5678 49.4323L84.6114 60.4787L84.1947 54.8501L77.7918 57.3128Z" fill="#A0616A"/>
<path d="M95.8183 55.6637C98.2 55.6637 100.131 53.733 100.131 51.3513C100.131 48.9696 98.2 47.0389 95.8183 47.0389C93.4366 47.0389 91.5059 48.9696 91.5059 51.3513C91.5059 53.733 93.4366 55.6637 95.8183 55.6637Z" fill="#A0616A"/>
<path d="M88.7665 41.5516L85.8113 38.5964C85.8113 38.5964 79.9009 42.0442 79.4083 45.4919C78.9158 48.9397 76.4531 59.7755 76.4531 59.7755L85.565 60.5143L88.5203 56.0815L88.7665 41.5516Z" fill="#E6E6E6"/>
</g>
<defs>
<clipPath id="clip0_1223_7464">
<rect width="300" height="194.526" fill="white"/>
</clipPath>
</defs>
</svg>
