<svg width="20" height="25" viewBox="0 0 20 25" fill="none" xmlns="http://www.w3.org/2000/svg">
<path id="Vector" d="M10 0C6.55375 0 3.75 2.80375 3.75 6.25V10H2.5C1.83696 10 1.20107 10.2634 0.732233 10.7322C0.263392 11.2011 0 11.837 0 12.5V22.5C0 23.163 0.263392 23.7989 0.732233 24.2678C1.20107 24.7366 1.83696 25 2.5 25H17.5C18.163 25 18.7989 24.7366 19.2678 24.2678C19.7366 23.7989 20 23.163 20 22.5V12.5C20 11.837 19.7366 11.2011 19.2678 10.7322C18.7989 10.2634 18.163 10 17.5 10H16.25V6.25C16.25 2.80375 13.4462 0 10 0ZM6.25 6.25C6.25 4.1825 7.9325 2.5 10 2.5C12.0675 2.5 13.75 4.1825 13.75 6.25V10H6.25V6.25ZM11.25 19.6537V22.5H8.75V19.6537C8.31298 19.4035 7.96207 19.0267 7.74354 18.5729C7.525 18.1192 7.44911 17.6099 7.52586 17.1122C7.6026 16.6145 7.8284 16.1517 8.17346 15.7849C8.51852 15.4181 8.96664 15.1645 9.45875 15.0575C9.82427 14.9767 10.2033 14.9789 10.5678 15.0641C10.9323 15.1493 11.2731 15.3152 11.565 15.5496C11.8569 15.784 12.0924 16.0809 12.2542 16.4185C12.416 16.7561 12.5 17.1257 12.5 17.5C12.4993 17.9372 12.3834 18.3664 12.1639 18.7446C11.9445 19.1227 11.6292 19.4363 11.25 19.6537Z" fill="black"/>
</svg>
