<svg width="15" height="15" viewBox="0 0 15 15" fill="none" xmlns="http://www.w3.org/2000/svg">
<g id="bxs:copy">
<path id="Vector" d="M8.75 5H2.5C1.81062 5 1.25 5.56062 1.25 6.25V12.5C1.25 13.1894 1.81062 13.75 2.5 13.75H8.75C9.43937 13.75 10 13.1894 10 12.5V6.25C10 5.56062 9.43937 5 8.75 5Z" fill="white"/>
<path id="Vector_2" d="M12.5 1.25H6.25C5.91848 1.25 5.60054 1.3817 5.36612 1.61612C5.1317 1.85054 5 2.16848 5 2.5V3.75H10C10.3315 3.75 10.6495 3.8817 10.8839 4.11612C11.1183 4.35054 11.25 4.66848 11.25 5V10H12.5C12.8315 10 13.1495 9.8683 13.3839 9.63388C13.6183 9.39946 13.75 9.08152 13.75 8.75V2.5C13.75 2.16848 13.6183 1.85054 13.3839 1.61612C13.1495 1.3817 12.8315 1.25 12.5 1.25Z" fill="white"/>
</g>
</svg>
