<svg width="50" height="50" viewBox="0 0 50 50" fill="none" xmlns="http://www.w3.org/2000/svg">
<g id="ic:baseline-pending-actions">
<path id="Vector" d="M35.4166 25C29.6666 25 24.9999 29.6667 24.9999 35.4167C24.9999 41.1667 29.6666 45.8334 35.4166 45.8334C41.1666 45.8334 45.8333 41.1667 45.8333 35.4167C45.8333 29.6667 41.1666 25 35.4166 25ZM38.8541 40.3125L34.3749 35.8334V29.1667H36.4583V34.9792L40.3124 38.8334L38.8541 40.3125ZM37.4999 6.25004H30.8749C29.9999 3.83337 27.7083 2.08337 24.9999 2.08337C22.2916 2.08337 19.9999 3.83337 19.1249 6.25004H12.4999C10.2083 6.25004 8.33325 8.12504 8.33325 10.4167V41.6667C8.33325 43.9584 10.2083 45.8334 12.4999 45.8334H25.2291C23.9965 44.637 22.9938 43.2248 22.2708 41.6667H12.4999V10.4167H16.6666V16.6667H33.3333V10.4167H37.4999V21C38.9791 21.2084 40.3749 21.6459 41.6666 22.25V10.4167C41.6666 8.12504 39.7916 6.25004 37.4999 6.25004ZM24.9999 10.4167C23.8541 10.4167 22.9166 9.47921 22.9166 8.33337C22.9166 7.18754 23.8541 6.25004 24.9999 6.25004C26.1458 6.25004 27.0833 7.18754 27.0833 8.33337C27.0833 9.47921 26.1458 10.4167 24.9999 10.4167Z" fill="#1E1E1E"/>
</g>
</svg>
