<svg width="16" height="21" viewBox="0 0 16 21" fill="none" xmlns="http://www.w3.org/2000/svg">
<path d="M3.09594 0.540625L4.21677 0.182292C5.26781 -0.153125 6.39073 0.389583 6.84073 1.45L7.73657 3.5625C8.12615 4.48229 7.90948 5.56458 7.20115 6.2375L5.22719 8.11042C5.34906 9.23125 5.72615 10.3344 6.3574 11.4198C6.95684 12.4699 7.76091 13.3891 8.72198 14.1229L11.0928 13.3313C11.9907 13.0323 12.9699 13.3771 13.5199 14.1865L14.8043 16.0719C15.4449 17.0135 15.3293 18.3115 14.5345 19.1094L13.6834 19.9646C12.8355 20.8156 11.6241 21.125 10.5043 20.775C7.85844 19.95 5.42823 17.501 3.20948 13.4281C0.987606 9.34896 0.203231 5.88646 0.857398 3.04479C1.1324 1.84896 1.98344 0.895833 3.09594 0.540625Z" fill="#000"/>
</svg>
