<svg width="20" height="25" viewBox="0 0 20 25" fill="none" xmlns="http://www.w3.org/2000/svg">
<path id="Vector" fill-rule="evenodd" clip-rule="evenodd" d="M4.28571 0H1.42857C1.04969 0 0.686328 0.131696 0.418419 0.366117C0.15051 0.600537 0 0.918479 0 1.25V3.75C0 4.08152 0.15051 4.39946 0.418419 4.63388C0.686328 4.8683 1.04969 5 1.42857 5H4.28571C4.6646 5 5.02796 4.8683 5.29587 4.63388C5.56378 4.39946 5.71429 4.08152 5.71429 3.75V1.25C5.71429 0.918479 5.56378 0.600537 5.29587 0.366117C5.02796 0.131696 4.6646 0 4.28571 0V0ZM11.4286 0H8.57143C8.19255 0 7.82919 0.131696 7.56128 0.366117C7.29337 0.600537 7.14286 0.918479 7.14286 1.25V3.75C7.14286 4.08152 7.29337 4.39946 7.56128 4.63388C7.82919 4.8683 8.19255 5 8.57143 5H11.4286C11.8075 5 12.1708 4.8683 12.4387 4.63388C12.7066 4.39946 12.8571 4.08152 12.8571 3.75V1.25C12.8571 0.918479 12.7066 0.600537 12.4387 0.366117C12.1708 0.131696 11.8075 0 11.4286 0V0ZM18.5714 0H15.7143C15.3354 0 14.972 0.131696 14.7041 0.366117C14.4362 0.600537 14.2857 0.918479 14.2857 1.25V3.75C14.2857 4.08152 14.4362 4.39946 14.7041 4.63388C14.972 4.8683 15.3354 5 15.7143 5H18.5714C18.9503 5 19.3137 4.8683 19.5816 4.63388C19.8495 4.39946 20 4.08152 20 3.75V1.25C20 0.918479 19.8495 0.600537 19.5816 0.366117C19.3137 0.131696 18.9503 0 18.5714 0V0ZM4.28571 6.25H1.42857C1.04969 6.25 0.686328 6.3817 0.418419 6.61612C0.15051 6.85054 0 7.16848 0 7.5V10C0 10.3315 0.15051 10.6495 0.418419 10.8839C0.686328 11.1183 1.04969 11.25 1.42857 11.25H4.28571C4.6646 11.25 5.02796 11.1183 5.29587 10.8839C5.56378 10.6495 5.71429 10.3315 5.71429 10V7.5C5.71429 7.16848 5.56378 6.85054 5.29587 6.61612C5.02796 6.3817 4.6646 6.25 4.28571 6.25ZM11.4286 6.25H8.57143C8.19255 6.25 7.82919 6.3817 7.56128 6.61612C7.29337 6.85054 7.14286 7.16848 7.14286 7.5V10C7.14286 10.3315 7.29337 10.6495 7.56128 10.8839C7.82919 11.1183 8.19255 11.25 8.57143 11.25H11.4286C11.8075 11.25 12.1708 11.1183 12.4387 10.8839C12.7066 10.6495 12.8571 10.3315 12.8571 10V7.5C12.8571 7.16848 12.7066 6.85054 12.4387 6.61612C12.1708 6.3817 11.8075 6.25 11.4286 6.25ZM18.5714 6.25H15.7143C15.3354 6.25 14.972 6.3817 14.7041 6.61612C14.4362 6.85054 14.2857 7.16848 14.2857 7.5V10C14.2857 10.3315 14.4362 10.6495 14.7041 10.8839C14.972 11.1183 15.3354 11.25 15.7143 11.25H18.5714C18.9503 11.25 19.3137 11.1183 19.5816 10.8839C19.8495 10.6495 20 10.3315 20 10V7.5C20 7.16848 19.8495 6.85054 19.5816 6.61612C19.3137 6.3817 18.9503 6.25 18.5714 6.25ZM4.28571 12.5H1.42857C1.04969 12.5 0.686328 12.6317 0.418419 12.8661C0.15051 13.1005 0 13.4185 0 13.75V16.25C0 16.5815 0.15051 16.8995 0.418419 17.1339C0.686328 17.3683 1.04969 17.5 1.42857 17.5H4.28571C4.6646 17.5 5.02796 17.3683 5.29587 17.1339C5.56378 16.8995 5.71429 16.5815 5.71429 16.25V13.75C5.71429 13.4185 5.56378 13.1005 5.29587 12.8661C5.02796 12.6317 4.6646 12.5 4.28571 12.5ZM11.4286 12.5H8.57143C8.19255 12.5 7.82919 12.6317 7.56128 12.8661C7.29337 13.1005 7.14286 13.4185 7.14286 13.75V16.25C7.14286 16.5815 7.29337 16.8995 7.56128 17.1339C7.82919 17.3683 8.19255 17.5 8.57143 17.5H11.4286C11.8075 17.5 12.1708 17.3683 12.4387 17.1339C12.7066 16.8995 12.8571 16.5815 12.8571 16.25V13.75C12.8571 13.4185 12.7066 13.1005 12.4387 12.8661C12.1708 12.6317 11.8075 12.5 11.4286 12.5ZM11.4286 20H8.57143C8.19255 20 7.82919 20.1317 7.56128 20.3661C7.29337 20.6005 7.14286 20.9185 7.14286 21.25V23.75C7.14286 24.0815 7.29337 24.3995 7.56128 24.6339C7.82919 24.8683 8.19255 25 8.57143 25H11.4286C11.8075 25 12.1708 24.8683 12.4387 24.6339C12.7066 24.3995 12.8571 24.0815 12.8571 23.75V21.25C12.8571 20.9185 12.7066 20.6005 12.4387 20.3661C12.1708 20.1317 11.8075 20 11.4286 20ZM18.5714 12.5H15.7143C15.3354 12.5 14.972 12.6317 14.7041 12.8661C14.4362 13.1005 14.2857 13.4185 14.2857 13.75V16.25C14.2857 16.5815 14.4362 16.8995 14.7041 17.1339C14.972 17.3683 15.3354 17.5 15.7143 17.5H18.5714C18.9503 17.5 19.3137 17.3683 19.5816 17.1339C19.8495 16.8995 20 16.5815 20 16.25V13.75C20 13.4185 19.8495 13.1005 19.5816 12.8661C19.3137 12.6317 18.9503 12.5 18.5714 12.5Z" fill="black"/>
</svg>
