<svg width="21" height="21" viewBox="0 0 21 21" fill="none" xmlns="http://www.w3.org/2000/svg">
<path fill-rule="evenodd" clip-rule="evenodd" d="M8.97599 0.254166C9.39657 0.215899 9.82054 0.263276 10.2223 0.393434C10.624 0.523593 10.9953 0.733834 11.3135 1.01146L11.4697 1.15729L19.6177 9.30625C20.1784 9.86711 20.5049 10.6202 20.531 11.4129C20.5572 12.2055 20.2809 12.9785 19.7583 13.575L19.6177 13.725L13.7249 19.6177C13.1641 20.1785 12.411 20.505 11.6183 20.5311C10.8257 20.5572 10.0527 20.281 9.4562 19.7583L9.3062 19.6177L1.1562 11.4688C0.857736 11.1703 0.622825 10.8145 0.465637 10.4228C0.308449 10.0311 0.232243 9.61156 0.241615 9.18958L0.253074 8.97604L0.74474 3.575C0.807863 2.87894 1.1025 2.22413 1.58157 1.71523C2.06063 1.20633 2.69647 0.872717 3.38745 0.767708L3.57391 0.745833L8.97495 0.254166H8.97599ZM6.35828 6.35937C6.16479 6.55287 6.0113 6.78258 5.90658 7.03539C5.80186 7.28821 5.74797 7.55917 5.74797 7.83281C5.74797 8.10645 5.80186 8.37742 5.90658 8.63023C6.0113 8.88304 6.16479 9.11275 6.35828 9.30625C6.55178 9.49974 6.78149 9.65323 7.0343 9.75795C7.28712 9.86267 7.55808 9.91657 7.83172 9.91657C8.10536 9.91657 8.37633 9.86267 8.62914 9.75795C8.88195 9.65323 9.11166 9.49974 9.30516 9.30625C9.69594 8.91547 9.91547 8.38546 9.91547 7.83281C9.91547 7.28017 9.69594 6.75015 9.30516 6.35937C8.91438 5.96859 8.38437 5.74906 7.83172 5.74906C7.27907 5.74906 6.74906 5.96859 6.35828 6.35937Z" fill="#868585"/>
</svg>
