<svg width="25" height="25" viewBox="0 0 25 25" fill="none" xmlns="http://www.w3.org/2000/svg">
<path id="Vector" d="M9.27052 1.35931C9.6911 0.928908 10.1935 0.586909 10.7481 0.353412C11.3027 0.119916 11.8984 -0.000366211 12.5002 -0.000366211C13.102 -0.000366211 13.6977 0.119916 14.2523 0.353412C14.807 0.586909 15.3093 0.928908 15.7299 1.35931L16.7018 2.35619L18.0924 2.339C18.6943 2.33188 19.2917 2.44519 19.8492 2.67226C20.4067 2.89934 20.9132 3.23561 21.3389 3.66128C21.7645 4.08696 22.1008 4.59345 22.3279 5.15097C22.555 5.7085 22.6683 6.3058 22.6611 6.90775L22.6455 8.29838L23.6393 9.27025C24.0697 9.69083 24.4117 10.1932 24.6452 10.7478C24.8787 11.3025 24.999 11.8982 24.999 12.4999C24.999 13.1017 24.8787 13.6974 24.6452 14.2521C24.4117 14.8067 24.0697 15.309 23.6393 15.7296L22.644 16.7015L22.6611 18.0921C22.6683 18.6941 22.555 19.2914 22.3279 19.8489C22.1008 20.4064 21.7645 20.9129 21.3389 21.3386C20.9132 21.7643 20.4067 22.1005 19.8492 22.3276C19.2917 22.5547 18.6943 22.668 18.0924 22.6609L16.7018 22.6453L15.7299 23.639C15.3093 24.0694 14.807 24.4114 14.2523 24.6449C13.6977 24.8784 13.102 24.9987 12.5002 24.9987C11.8984 24.9987 11.3027 24.8784 10.7481 24.6449C10.1935 24.4114 9.6911 24.0694 9.27052 23.639L8.29865 22.6437L6.90802 22.6609C6.30607 22.668 5.70877 22.5547 5.15124 22.3276C4.59372 22.1005 4.08722 21.7643 3.66155 21.3386C3.23588 20.9129 2.89961 20.4064 2.67253 19.8489C2.44545 19.2914 2.33215 18.6941 2.33927 18.0921L2.3549 16.7015L1.36115 15.7296C0.930739 15.309 0.58874 14.8067 0.355243 14.2521C0.121747 13.6974 0.00146484 13.1017 0.00146484 12.4999C0.00146484 11.8982 0.121747 11.3025 0.355243 10.7478C0.58874 10.1932 0.930739 9.69083 1.36115 9.27025L2.35646 8.29838L2.33927 6.90775C2.33215 6.3058 2.44545 5.7085 2.67253 5.15097C2.89961 4.59345 3.23588 4.08696 3.66155 3.66128C4.08722 3.23561 4.59372 2.89934 5.15124 2.67226C5.70877 2.44519 6.30607 2.33188 6.90802 2.339L8.29865 2.35463L9.27052 1.36088V1.35931ZM10.9408 17.1874C10.9408 17.3926 10.9812 17.5958 11.0598 17.7854C11.1383 17.975 11.2534 18.1472 11.3985 18.2923C11.5436 18.4374 11.7158 18.5525 11.9054 18.631C12.095 18.7095 12.2981 18.7499 12.5033 18.7499C12.7085 18.7499 12.9117 18.7095 13.1013 18.631C13.2908 18.5525 13.4631 18.4374 13.6082 18.2923C13.7533 18.1472 13.8684 17.975 13.9469 17.7854C14.0254 17.5958 14.0658 17.3926 14.0658 17.1874C14.0658 16.773 13.9012 16.3756 13.6082 16.0826C13.3152 15.7896 12.9177 15.6249 12.5033 15.6249C12.0889 15.6249 11.6915 15.7896 11.3985 16.0826C11.1055 16.3756 10.9408 16.773 10.9408 17.1874ZM13.444 14.0203C13.5065 13.1859 13.7533 12.7468 14.7658 12.0515C15.819 11.3093 16.4065 10.3484 16.4065 8.94838C16.4065 6.87806 14.969 5.46869 12.8721 5.46869C11.2783 5.46869 10.0721 6.23744 9.59083 7.48431C9.44499 7.82485 9.37156 8.192 9.37521 8.56244C9.37521 9.1765 9.6924 9.56244 10.2268 9.56244C10.6518 9.56244 10.9377 9.33275 11.108 8.76556C11.3549 7.84056 11.9283 7.33588 12.7861 7.33588C13.7393 7.33588 14.3955 8.03275 14.3955 9.02963C14.3955 9.90931 14.0705 10.4124 13.1111 11.0999C12.144 11.7765 11.6643 12.5281 11.6643 13.6624V13.8359C11.6643 14.5046 11.9893 14.9999 12.5783 14.9999C13.1033 14.9999 13.3658 14.6249 13.444 14.0203Z" fill="black"/>
</svg>
