<svg width="25" height="25" viewBox="0 0 25 25" fill="none" xmlns="http://www.w3.org/2000/svg">
<path d="M21.6484 3.35157C21.543 3.24662 21.4098 3.17396 21.2644 3.14213C21.1191 3.1103 20.9677 3.12062 20.8281 3.17188L3.6406 9.42188C3.49237 9.4781 3.36475 9.57809 3.2747 9.70856C3.18464 9.83903 3.13641 9.99381 3.13641 10.1523C3.13641 10.3109 3.18464 10.4657 3.2747 10.5961C3.36475 10.7266 3.49237 10.8266 3.6406 10.8828L10.3515 13.5625L15.3047 8.59375L16.4062 9.69532L11.4297 14.6719L14.1172 21.3828C14.175 21.5282 14.2753 21.6528 14.4048 21.7406C14.5343 21.8283 14.6873 21.8752 14.8437 21.875C15.0016 21.8718 15.1548 21.8208 15.2831 21.7287C15.4114 21.6367 15.5088 21.5079 15.5625 21.3594L21.8125 4.17188C21.8657 4.03366 21.8785 3.88315 21.8495 3.73791C21.8204 3.59267 21.7507 3.45868 21.6484 3.35157Z" fill="#525252"/>
</svg>
