<svg width="24" height="23" viewBox="0 0 24 23" fill="none" xmlns="http://www.w3.org/2000/svg">
<path d="M22.9781 0.521873C22.8515 0.395941 22.6917 0.308751 22.5173 0.270554C22.3429 0.232356 22.1613 0.24474 21.9937 0.306248L1.36869 7.80625C1.19082 7.87372 1.03768 7.9937 0.929613 8.15027C0.821548 8.30683 0.763672 8.49257 0.763672 8.68281C0.763672 8.87305 0.821548 9.05879 0.929613 9.21535C1.03768 9.37192 1.19082 9.49191 1.36869 9.55937L9.42181 12.775L15.3656 6.8125L16.6874 8.13437L10.7156 14.1062L13.9406 22.1594C14.01 22.3338 14.1303 22.4834 14.2857 22.5887C14.4412 22.694 14.6247 22.7502 14.8124 22.75C15.0019 22.7461 15.1857 22.6849 15.3397 22.5744C15.4937 22.464 15.6106 22.3095 15.6749 22.1312L23.1749 1.50625C23.2388 1.34038 23.2542 1.15978 23.2194 0.985489C23.1845 0.811201 23.1008 0.650413 22.9781 0.521873Z" fill="#000"/>
</svg>
