<svg width="268" height="269" viewBox="0 0 268 269" fill="none" xmlns="http://www.w3.org/2000/svg">
<path d="M48.0625 58.875C35.2109 58.875 24.625 69.4609 24.625 82.3125V191.688C24.625 204.539 35.2109 215.125 48.0625 215.125H219.938C232.789 215.125 243.375 204.539 243.375 191.688V82.3125C243.375 69.4609 232.789 58.875 219.938 58.875H48.0625ZM48.0625 74.5H219.938C224.359 74.5 227.75 77.8906 227.75 82.3125V191.688C227.75 196.109 224.359 199.5 219.938 199.5H48.0625C43.6406 199.5 40.25 196.109 40.25 191.688V82.3125C40.25 77.8906 43.6406 74.5 48.0625 74.5ZM94.9375 90.125C77.75 90.125 63.6875 104.188 63.6875 121.375C63.6875 130.07 67.4141 137.914 73.2109 143.594C67.8932 147.182 63.5336 152.017 60.512 157.676C57.4904 163.335 55.8985 169.647 55.875 176.062H71.5C71.5 163.031 81.9062 152.625 94.9375 152.625C107.969 152.625 118.375 163.031 118.375 176.062H134C133.977 169.647 132.385 163.335 129.363 157.676C126.341 152.017 121.982 147.182 116.664 143.594C122.461 137.914 126.188 130.078 126.188 121.375C126.188 104.188 112.125 90.125 94.9375 90.125ZM149.625 97.9375V113.562H212.125V97.9375H149.625ZM94.9375 105.75C103.664 105.75 110.562 112.648 110.562 121.375C110.562 130.102 103.664 137 94.9375 137C86.2109 137 79.3125 130.102 79.3125 121.375C79.3125 112.648 86.2109 105.75 94.9375 105.75ZM149.625 129.188V144.812H212.125V129.188H149.625ZM149.625 160.438V176.062H188.688V160.438H149.625Z" fill="#525252"/>
<path d="M267.334 85V34.9C267.334 26.0767 263.836 17.6134 257.606 11.365C251.376 5.1167 242.924 1.59313 234.1 1.56666L184 1.41666M267.334 185V235C267.334 243.841 263.822 252.319 257.571 258.57C251.319 264.821 242.841 268.333 234 268.333H184M84.0003 1.41666L33.9003 1.58332C25.0771 1.60979 16.6243 5.13337 10.3947 11.3817C4.16512 17.6301 0.666952 26.0934 0.666992 34.9167V85M84.0003 268.333H34.0003C25.1598 268.333 16.6813 264.821 10.4301 258.57C4.17889 252.319 0.666992 243.841 0.666992 235V185" stroke="#BBBBBB" stroke-linecap="round" stroke-linejoin="round"/>
</svg>
