<svg width="25" height="25" viewBox="0 0 25 25" fill="none" xmlns="http://www.w3.org/2000/svg">
<g id="streamline:interface-validation-check-circle-checkmark-addition-circle-success-check-validation-add-form" clip-path="url(#clip0_1071_3219)">
<g id="Group">
<path id="Vector" d="M12.5002 24.1072C18.9107 24.1072 24.1074 18.9105 24.1074 12.5C24.1074 6.08958 18.9107 0.892883 12.5002 0.892883C6.08976 0.892883 0.893066 6.08958 0.893066 12.5C0.893066 18.9105 6.08976 24.1072 12.5002 24.1072Z" fill="#006E53"/>
<path id="Vector_2" d="M7.14307 14.2857L10.8038 17.2143C10.9021 17.2953 11.0172 17.3533 11.1408 17.3842C11.2643 17.4151 11.3932 17.4181 11.5181 17.3929C11.6441 17.3692 11.7636 17.3187 11.8683 17.2448C11.9731 17.1708 12.0607 17.0752 12.1252 16.9643L17.8574 7.14288" stroke="white" stroke-linecap="round" stroke-linejoin="round"/>
</g>
</g>
<defs>
<clipPath id="clip0_1071_3219">
<rect width="25" height="25" fill="white"/>
</clipPath>
</defs>
</svg>
