<svg width="10" height="10" viewBox="0 0 10 10" fill="none" xmlns="http://www.w3.org/2000/svg">
<g id="bxs:sort-alt">
<path id="Vector" d="M2.59464 4.58335H7.40589C7.76506 4.58335 7.95589 4.15835 7.71714 3.8896L5.31172 1.18335C5.27271 1.13931 5.22479 1.10405 5.17113 1.07991C5.11748 1.05576 5.05931 1.04327 5.00048 1.04327C4.94164 1.04327 4.88347 1.05576 4.82982 1.07991C4.77616 1.10405 4.72824 1.13931 4.68922 1.18335L2.28297 3.8896C2.04422 4.15835 2.23506 4.58335 2.59464 4.58335ZM4.68881 8.81627C4.72783 8.86031 4.77574 8.89557 4.8294 8.91971C4.88305 8.94386 4.94122 8.95635 5.00006 8.95635C5.0589 8.95635 5.11706 8.94386 5.17072 8.91971C5.22437 8.89557 5.27229 8.86031 5.31131 8.81627L7.71672 6.11002C7.95589 5.84169 7.76506 5.41669 7.40548 5.41669H2.59464C2.23547 5.41669 2.04464 5.84169 2.28339 6.11044L4.68881 8.81627Z" fill="#868585"/>
</g>
</svg>
