<svg width="20" height="16" viewBox="0 0 20 16" fill="none" xmlns="http://www.w3.org/2000/svg">
<path d="M11.5833 5.45833C11.5833 6.03125 11.1146 6.5 10.5417 6.5H1.16667C0.59375 6.5 0.125 6.03125 0.125 5.45833C0.125 4.88542 0.59375 4.41667 1.16667 4.41667H10.5417C11.1146 4.41667 11.5833 4.88542 11.5833 5.45833ZM0.125 1.29167C0.125 1.86458 0.59375 2.33333 1.16667 2.33333H10.5417C11.1146 2.33333 11.5833 1.86458 11.5833 1.29167C11.5833 0.71875 11.1146 0.25 10.5417 0.25H1.16667C0.59375 0.25 0.125 0.71875 0.125 1.29167ZM7.41667 9.625C7.41667 9.05208 6.94792 8.58333 6.375 8.58333H1.16667C0.59375 8.58333 0.125 9.05208 0.125 9.625C0.125 10.1979 0.59375 10.6667 1.16667 10.6667H6.375C6.94792 10.6667 7.41667 10.1979 7.41667 9.625ZM15.7604 7.40625L16.5 6.66667C16.5964 6.5701 16.7108 6.49349 16.8368 6.44122C16.9629 6.38894 17.0979 6.36204 17.2344 6.36204C17.3708 6.36204 17.5059 6.38894 17.6319 6.44122C17.7579 6.49349 17.8724 6.5701 17.9687 6.66667L18.7083 7.40625C19.1146 7.8125 19.1146 8.46875 18.7083 8.875L17.9687 9.61458L15.7604 7.40625ZM15.0208 8.14583L9.64583 13.5208C9.55208 13.6146 9.5 13.7396 9.5 13.8854V15.3542C9.5 15.6458 9.72917 15.875 10.0208 15.875H11.4896C11.625 15.875 11.7604 15.8229 11.8542 15.7188L17.2292 10.3437L15.0208 8.14583Z" fill="#525252"/>
</svg>
