<svg width="27" height="27" viewBox="0 0 27 27" fill="none" xmlns="http://www.w3.org/2000/svg">
<g id="system-uicons:clipboard-notes">
<g id="Group">
<path id="Vector" d="M9.64291 5.78571H7.07148C6.73049 5.78571 6.40346 5.92116 6.16234 6.16228C5.92123 6.4034 5.78577 6.73043 5.78577 7.07142V21.2143C5.78577 21.5553 5.92123 21.8823 6.16234 22.1234C6.40346 22.3645 6.73049 22.5 7.07148 22.5H19.9286C20.2696 22.5 20.5966 22.3645 20.8378 22.1234C21.0789 21.8823 21.2143 21.5553 21.2143 21.2143V7.07142C21.2143 6.73043 21.0789 6.4034 20.8378 6.16228C20.5966 5.92116 20.2696 5.78571 19.9286 5.78571H17.3572" stroke="#868585" stroke-linecap="round" stroke-linejoin="round"/>
<path id="Vector_2" d="M12.2143 10.9286H18.6429M12.2143 14.7857H18.6429M12.2143 18.6429H18.6429M8.35718 10.9286H9.64289M8.35718 14.7857H9.64289M8.35718 18.6429H9.64289M10.9286 4.5H16.0715C16.4125 4.5 16.7395 4.63546 16.9806 4.87658C17.2217 5.1177 17.3572 5.44472 17.3572 5.78571C17.3572 6.12671 17.2217 6.45373 16.9806 6.69485C16.7395 6.93597 16.4125 7.07143 16.0715 7.07143H10.9286C10.5876 7.07143 10.2606 6.93597 10.0195 6.69485C9.77835 6.45373 9.64289 6.12671 9.64289 5.78571C9.64289 5.44472 9.77835 5.1177 10.0195 4.87658C10.2606 4.63546 10.5876 4.5 10.9286 4.5Z" stroke="#868585" stroke-linecap="round" stroke-linejoin="round"/>
</g>
</g>
</svg>
