<svg width="50" height="50" viewBox="0 0 50 50" fill="none" xmlns="http://www.w3.org/2000/svg">
<g id="ion:checkmark-done-circle">
<path id="Vector" d="M25.2831 4.6875C13.8593 4.5332 4.53314 13.8594 4.68743 25.2832C4.83978 36.2393 13.7607 45.1602 24.7167 45.3125C36.1425 45.4687 45.4667 36.1426 45.3105 24.7187C45.1601 13.7607 36.2392 4.83984 25.2831 4.6875ZM23.6435 23.4834L28.6777 17.7217C28.9504 17.4096 29.3359 17.2186 29.7495 17.1908C30.163 17.1629 30.5707 17.3005 30.8827 17.5732C31.1948 17.846 31.3858 18.2315 31.4137 18.645C31.4415 19.0586 31.3039 19.4662 31.0312 19.7783L25.997 25.54C25.862 25.6946 25.6978 25.821 25.5139 25.9121C25.33 26.0032 25.13 26.0572 24.9252 26.0709C24.7204 26.0847 24.515 26.058 24.3205 25.9924C24.1261 25.9268 23.9465 25.8235 23.7919 25.6885C23.6374 25.5534 23.511 25.3893 23.4199 25.2054C23.3288 25.0215 23.2748 24.8214 23.261 24.6167C23.2472 24.4119 23.2739 24.2064 23.3395 24.012C23.4052 23.8175 23.5084 23.6379 23.6435 23.4834ZM19.8486 32.3555C19.5556 32.6483 19.1583 32.8127 18.7441 32.8127C18.3299 32.8127 17.9326 32.6483 17.6396 32.3555L12.957 27.668C12.8119 27.5228 12.6969 27.3505 12.6184 27.1608C12.54 26.9712 12.4997 26.768 12.4998 26.5628C12.4998 26.3576 12.5404 26.1544 12.619 25.9648C12.6976 25.7753 12.8128 25.603 12.9579 25.458C13.1031 25.313 13.2754 25.1979 13.4651 25.1195C13.6547 25.041 13.8579 25.0007 14.0631 25.0008C14.2683 25.0009 14.4715 25.0414 14.6611 25.12C14.8506 25.1986 15.0229 25.3138 15.1679 25.459L19.8554 30.1465C20.1473 30.4404 20.3106 30.8382 20.3093 31.2524C20.308 31.6666 20.1423 32.0634 19.8486 32.3555ZM37.1142 19.7783L26.1884 32.2783C26.0476 32.4396 25.8752 32.5703 25.6819 32.6621C25.4885 32.754 25.2783 32.8052 25.0644 32.8125H25.0117C24.8063 32.8125 24.603 32.7721 24.4133 32.6935C24.2237 32.6149 24.0513 32.4997 23.9062 32.3545L19.2245 27.667C18.9316 27.3738 18.7672 26.9763 18.7673 26.5618C18.7675 26.1474 18.9323 25.75 19.2255 25.457C19.5187 25.1641 19.9163 24.9996 20.3307 24.9998C20.7452 25 21.1426 25.1648 21.4355 25.458L24.3456 28.3711C24.4213 28.4468 24.5117 28.5061 24.6112 28.5454C24.7107 28.5847 24.8173 28.6031 24.9242 28.5996C25.0312 28.596 25.1362 28.5705 25.2329 28.5246C25.3296 28.4788 25.4158 28.4136 25.4863 28.333L34.7636 17.7217C35.0363 17.4096 35.4219 17.2186 35.8354 17.1908C36.2489 17.1629 36.6566 17.3005 36.9687 17.5732C37.2808 17.846 37.4717 18.2315 37.4996 18.645C37.5274 19.0586 37.3898 19.4662 37.1171 19.7783H37.1142Z" fill="#006E53"/>
</g>
</svg>
