<svg width="30" height="30" viewBox="0 0 30 30" fill="none" xmlns="http://www.w3.org/2000/svg">
<g id="logos:whatsapp-icon" clip-path="url(#clip0_609_1932)">
<path id="Vector" d="M0.635392 14.8205C0.634695 17.341 1.2933 19.8022 2.54562 21.9715L0.515625 29.3834L8.10074 27.3945C10.1987 28.5366 12.5493 29.1351 14.938 29.1352H14.9442C22.8297 29.1352 29.2486 22.7186 29.252 14.8317C29.2535 11.01 27.7666 7.41627 25.0649 4.71255C22.3638 2.00907 18.7713 0.519414 14.9436 0.51767C7.05725 0.51767 0.638765 6.93395 0.635509 14.8205" fill="url(#paint0_linear_609_1932)"/>
<path id="Vector_2" d="M0.124419 14.8158C0.123605 17.4271 0.805814 19.9763 2.10279 22.2233L0 29.9008L7.85709 27.8407C10.022 29.021 12.4594 29.6434 14.9397 29.6443H14.946C23.1144 29.6443 29.764 22.9969 29.7674 14.8277C29.7688 10.8686 28.2284 7.1457 25.4302 4.34512C22.6317 1.54488 18.9108 0.00162791 14.946 0C6.77628 0 0.127674 6.64651 0.124419 14.8158ZM4.80349 21.8363L4.51012 21.3706C3.27686 19.4097 2.62593 17.1436 2.62686 14.8167C2.62953 8.02663 8.15558 2.50233 14.9507 2.50233C18.2414 2.50372 21.334 3.78651 23.66 6.11395C25.9859 8.44163 27.2658 11.5358 27.265 14.8267C27.262 21.6169 21.7358 27.1419 14.946 27.1419H14.9412C12.7303 27.1407 10.5621 26.547 8.67116 25.425L8.22116 25.1581L3.5586 26.3806L4.80349 21.8362V21.8363Z" fill="url(#paint1_linear_609_1932)"/>
<path id="Vector_3" d="M11.2408 8.62186C10.9634 8.00523 10.6714 7.99279 10.4076 7.98197C10.1915 7.97267 9.94453 7.97337 9.69778 7.97337C9.45081 7.97337 9.04953 8.06628 8.71034 8.43663C8.37081 8.80732 7.41406 9.70314 7.41406 11.5251C7.41406 13.3472 8.74116 15.108 8.92616 15.3553C9.11139 15.6022 11.4881 19.4608 15.2523 20.9452C18.3807 22.1788 19.0173 21.9335 19.6963 21.8716C20.3753 21.81 21.8874 20.976 22.1959 20.1113C22.5046 19.2466 22.5046 18.5055 22.4121 18.3506C22.3195 18.1963 22.0725 18.1036 21.7022 17.9185C21.3317 17.7333 19.511 16.8373 19.1716 16.7137C18.8321 16.5902 18.5852 16.5286 18.3382 16.8994C18.0913 17.2696 17.3821 18.1036 17.1659 18.3506C16.95 18.5981 16.7338 18.629 16.3636 18.4437C15.993 18.2579 14.8003 17.8673 13.3853 16.6058C12.2844 15.6242 11.5412 14.412 11.3251 14.0412C11.1091 13.6709 11.302 13.4702 11.4877 13.2857C11.6541 13.1198 11.8581 12.8533 12.0435 12.6371C12.2281 12.4208 12.2898 12.2665 12.4132 12.0195C12.5369 11.7723 12.475 11.556 12.3826 11.3708C12.2898 11.1856 11.5701 9.35407 11.2408 8.62186Z" fill="white"/>
</g>
<defs>
<linearGradient id="paint0_linear_609_1932" x1="1437.34" y1="2887.09" x2="1437.34" y2="0.51767" gradientUnits="userSpaceOnUse">
<stop stop-color="#1FAF38"/>
<stop offset="1" stop-color="#60D669"/>
</linearGradient>
<linearGradient id="paint1_linear_609_1932" x1="1488.37" y1="2990.08" x2="1488.37" y2="0" gradientUnits="userSpaceOnUse">
<stop stop-color="#F9F9F9"/>
<stop offset="1" stop-color="white"/>
</linearGradient>
<clipPath id="clip0_609_1932">
<rect width="29.7674" height="30" fill="white"/>
</clipPath>
</defs>
</svg>
