<svg width="20" height="20" viewBox="0 0 20 20" fill="none" xmlns="http://www.w3.org/2000/svg">
<g id="uiw:swap" clip-path="url(#clip0_636_2135)">
<path id="Vector" d="M19.2981 13.098C19.436 13.0982 19.5707 13.1391 19.6855 13.2156C19.8002 13.2921 19.8898 13.4007 19.943 13.528C19.9962 13.6552 20.0106 13.7953 19.9845 13.9307C19.9583 14.0661 19.8928 14.1907 19.7961 14.289L14.3691 19.792C14.3045 19.8574 14.2276 19.9094 14.1429 19.9451C14.0582 19.9808 13.9673 19.9995 13.8753 20C13.6897 20.0012 13.5112 19.9285 13.3791 19.798C13.247 19.6675 13.1722 19.4899 13.171 19.3042C13.1699 19.1186 13.2426 18.9401 13.3731 18.808L17.6251 14.498H0.702083C0.516432 14.498 0.338384 14.4242 0.207108 14.293C0.0758329 14.1617 0.00208309 13.9837 0.00208309 13.798C0.00208309 13.6123 0.0758329 13.4343 0.207108 13.303C0.338384 13.1718 0.516432 13.098 0.702083 13.098H19.2981ZM6.61808 0.202C6.68355 0.266541 6.73567 0.343347 6.77145 0.428031C6.80724 0.512715 6.82599 0.603618 6.82664 0.69555C6.82729 0.787482 6.80983 0.878642 6.77524 0.963823C6.74066 1.049 6.68963 1.12654 6.62508 1.192L2.37308 5.502H19.2961C19.4817 5.502 19.6598 5.57575 19.7911 5.70703C19.9223 5.8383 19.9961 6.01635 19.9961 6.202C19.9961 6.38765 19.9223 6.5657 19.7911 6.69697C19.6598 6.82825 19.4817 6.902 19.2961 6.902H0.699083C0.561191 6.90182 0.426424 6.86092 0.311693 6.78442C0.196962 6.70793 0.107379 6.59926 0.0541839 6.47204C0.000989232 6.34482 -0.0134468 6.20473 0.0126873 6.06933C0.0388215 5.93394 0.104362 5.80928 0.201083 5.711L5.62908 0.208C5.69369 0.142596 5.77055 0.0905589 5.85527 0.0548604C5.93999 0.019162 6.03091 0.000501354 6.12284 -5.5808e-05C6.21477 -0.00061297 6.30591 0.0169442 6.39106 0.0516132C6.47621 0.0862822 6.55269 0.137384 6.61808 0.202Z" fill="#1e1e1e"/>
</g>
<defs>
<clipPath id="clip0_636_2135">
<rect width="20" height="20" fill="white"/>
</clipPath>
</defs>
</svg>
