<svg width="19" height="19" viewBox="0 0 19 19" fill="none" xmlns="http://www.w3.org/2000/svg">
<path d="M17.1667 11.4167C17.5358 11.4168 17.8908 11.559 18.158 11.8138C18.4251 12.0686 18.5841 12.4163 18.6018 12.7851C18.6195 13.1538 18.4947 13.5153 18.2533 13.7945C18.0118 14.0737 17.6721 14.2493 17.3047 14.285L17.1667 14.2917H5.30346L6.68346 15.6717C6.94486 15.9321 7.09609 16.2831 7.10583 16.652C7.11557 17.0209 6.98308 17.3794 6.73579 17.6533C6.4885 17.9272 6.14535 18.0955 5.77739 18.1234C5.40943 18.1512 5.04485 18.0365 4.75913 17.803L4.64988 17.7043L0.980418 14.0339C0.0470017 13.1005 0.654585 11.5259 1.93013 11.4224L2.06429 11.4167H17.1667ZM12.3175 1.29666C12.5689 1.045 12.9048 0.895512 13.26 0.877103C13.6153 0.858693 13.9648 0.972671 14.2409 1.197L14.3501 1.2957L18.0196 4.96612C18.953 5.89954 18.3454 7.47408 17.0699 7.57758L16.9357 7.58333H1.83334C1.46417 7.58315 1.10922 7.44094 0.842048 7.18619C0.574872 6.93143 0.415949 6.58365 0.398208 6.21491C0.380467 5.84617 0.505269 5.48474 0.746753 5.20551C0.988238 4.92628 1.32789 4.75066 1.69534 4.71504L1.83334 4.70833H13.6965L12.3165 3.32833C12.0473 3.0588 11.8961 2.69344 11.8961 2.3125C11.8961 1.93156 12.0473 1.5662 12.3165 1.29666H12.3175Z" fill="#525252"/>
</svg>
