<svg width="25" height="25" viewBox="0 0 25 25" fill="none" xmlns="http://www.w3.org/2000/svg">
<g id="ion:switch-sharp" clip-path="url(#clip0_640_3039)">
<path id="Vector" d="M17.9688 5.46875H7.03125C5.16645 5.46875 3.37802 6.20954 2.05941 7.52816C0.74079 8.84677 0 10.6352 0 12.5C0 14.3648 0.74079 16.1532 2.05941 17.4718C3.37802 18.7905 5.16645 19.5312 7.03125 19.5312H17.9688C19.8336 19.5312 21.622 18.7905 22.9406 17.4718C24.2592 16.1532 25 14.3648 25 12.5C25 10.6352 24.2592 8.84677 22.9406 7.52816C21.622 6.20954 19.8336 5.46875 17.9688 5.46875ZM17.9688 16.6992C17.1382 16.6992 16.3263 16.4529 15.6358 15.9915C14.9452 15.5301 14.407 14.8743 14.0892 14.107C13.7713 13.3397 13.6882 12.4953 13.8502 11.6808C14.0122 10.8662 14.4122 10.118 14.9995 9.5307C15.5867 8.94343 16.335 8.5435 17.1495 8.38147C17.9641 8.21944 18.8084 8.3026 19.5757 8.62043C20.343 8.93826 20.9989 9.47648 21.4603 10.167C21.9217 10.8576 22.168 11.6695 22.168 12.5C22.1687 13.0517 22.0606 13.5981 21.8499 14.1079C21.6391 14.6177 21.3299 15.0809 20.9398 15.471C20.5497 15.8611 20.0865 16.1704 19.5766 16.3811C19.0668 16.5919 18.5204 16.7 17.9688 16.6992Z" fill="black"/>
</g>
<defs>
<clipPath id="clip0_640_3039">
<rect width="25" height="25" fill="white"/>
</clipPath>
</defs>
</svg>
