<svg width="75" height="70" viewBox="0 0 75 70" fill="none" xmlns="http://www.w3.org/2000/svg">
<g clip-path="url(#clip0_1_20427)">
<path fill-rule="evenodd" clip-rule="evenodd" d="M22.384 3.64543e-06C21.0913 0.00333869 19.8372 0.423626 18.8227 1.1935L7.55914 9.7454C6.58768 10.4834 5.88984 11.5028 5.56925 12.6523C5.24867 13.8018 5.32243 15.0199 5.7796 16.1259L11.0832 28.9429C11.4147 29.7441 11.9365 30.4598 12.6069 31.0329C13.2774 31.6059 14.0779 32.0205 14.9446 32.2434L56.6971 42.9968C58.1718 43.3756 59.7427 43.176 61.0643 42.4419C62.3859 41.7079 63.35 40.4994 63.7446 39.0824L69.7031 17.7114C70.0977 16.2946 69.8906 14.7852 69.1273 13.5151C68.3639 12.2451 67.1069 11.3184 65.6326 10.9389L23.8809 0.186904C23.3927 0.0615753 22.8894 -0.00126753 22.384 3.64543e-06ZM45.4335 10.5343C44.6453 10.9774 43.8834 11.5689 43.1725 12.2801C42.4716 12.9904 41.8432 13.7637 41.296 14.5894L37.7064 13.6661C39.8271 11.7939 42.5581 10.687 45.4335 10.5343ZM48.6028 10.9788L47.1751 16.1042L42.7055 14.9527C43.1418 14.3305 43.631 13.7443 44.1682 13.1999C45.6484 11.7187 47.2006 10.9529 48.6028 10.9788ZM49.9519 11.27C51.2922 11.8615 52.3251 13.321 52.8685 15.4399C53.0433 16.1224 53.1606 16.8679 53.2225 17.6603L48.5096 16.4472L49.9519 11.27ZM15.413 11.3218C15.9507 11.3048 16.4865 11.3915 16.9888 11.5767C17.4911 11.7618 17.9497 12.0418 18.3376 12.4C18.7255 12.7583 19.0349 13.1875 19.2474 13.6625C19.4599 14.1375 19.5713 14.6485 19.575 15.1655C19.5787 15.6825 19.4746 16.195 19.2689 16.6727C19.0632 17.1504 18.76 17.5837 18.3773 17.947C17.9945 18.3104 17.54 18.5964 17.0404 18.7882C16.5408 18.98 16.0062 19.0737 15.4684 19.0638C14.418 19.0445 13.4169 18.6317 12.6786 17.9135C11.9403 17.1952 11.5231 16.2283 11.5159 15.2187C11.5087 14.2092 11.912 13.2368 12.64 12.5089C13.368 11.7809 14.363 11.355 15.413 11.3218ZM53.2473 12.6728C55.4927 14.1863 57.1549 16.3703 57.9755 18.8853L54.6313 18.0236C54.5876 17.0459 54.4461 16.0745 54.2088 15.1228C53.9786 14.2268 53.6574 13.4001 53.2473 12.6728ZM36.6152 14.7574L40.5647 15.7759C39.8296 17.0854 39.2348 18.4633 38.7895 19.8884L34.3097 18.7334C34.8044 17.2777 35.5873 15.9276 36.6152 14.7574ZM41.9422 16.1287L46.816 17.3838L45.6287 21.6482L40.1247 20.2314C40.6055 18.725 41.2268 17.3397 41.9422 16.1287ZM48.1505 17.7282L53.272 19.0463C53.2618 20.4386 53.0797 21.9359 52.7112 23.4717L46.961 21.9912L48.1505 17.7282ZM54.648 19.4012L58.3528 20.3546C58.6267 21.8246 58.6172 23.3667 58.2799 24.9074L54.0471 23.8161C54.4149 22.2978 54.6109 20.8103 54.6488 19.4019L54.648 19.4012ZM33.9521 20.0144L38.4239 21.1666C38.0522 22.6088 37.8319 24.0831 37.7661 25.5675L33.8807 24.5665C33.6068 23.0965 33.6148 21.5551 33.9521 20.0144ZM39.7576 21.5103L45.2696 22.9306L44.0801 27.1936L39.1406 25.9217C39.1814 24.4342 39.3885 22.9552 39.7583 21.5103H39.7576ZM46.6055 23.2736L52.3644 24.7555C51.9324 26.1844 51.3419 27.5645 50.6031 28.8722L45.4167 27.538L46.6055 23.2736ZM53.6931 25.0985L57.923 26.187C57.4285 27.6426 56.6459 28.9927 55.6183 30.163L51.9747 29.2264C52.6894 27.9089 53.2653 26.5261 53.6938 25.0985H53.6931ZM34.2566 26.0365L37.7603 26.9395C37.7996 28.0714 37.9482 29.1424 38.1988 30.1203C38.3955 30.8889 38.6613 31.6043 38.9913 32.2518C36.7428 30.7387 35.0782 28.5535 34.2566 26.0365ZM39.1647 27.3L43.7246 28.4746L42.2379 33.8065C42.157 33.7813 42.0776 33.7526 41.9975 33.726C40.8801 33.026 40.0184 31.6715 39.5391 29.8018C39.3349 28.9806 39.2096 28.1432 39.1647 27.3ZM45.0591 28.8176L49.8652 30.0566C49.3874 30.765 48.8429 31.4297 48.2386 32.0425C46.8794 33.4033 45.4604 34.1607 44.1515 34.2566C43.9571 34.226 43.7635 34.191 43.5709 34.1516L45.0591 28.8176ZM51.2674 30.4171L54.5271 31.255C52.609 32.9479 50.1867 34.0202 47.6013 34.321C48.1897 33.9197 48.7366 33.4649 49.2344 32.963C49.9606 32.2364 50.6453 31.3789 51.2674 30.4171ZM17.3593 38.9697L42.7536 68.2199C44.4151 70.2765 47.6981 70.6055 49.7647 68.922C55.7523 64.1249 61.7567 59.3425 67.732 54.5251L67.7436 54.5153L67.7545 54.5048C69.7395 52.7702 69.8335 49.6538 67.9949 47.7911L67.9672 47.7624L67.9337 47.7344C67.7533 47.5917 67.5255 47.5162 67.292 47.5216C67.0896 47.5337 66.8967 47.6084 66.742 47.7344C66.514 47.9164 66.4456 48.0662 66.3676 48.2006C66.2897 48.3357 66.2292 48.4589 66.1804 48.5422C66.1323 48.6255 66.0748 48.6654 66.1673 48.5912L66.1943 48.5702C65.9852 48.7242 65.7849 48.9776 65.7346 49.266C65.6836 49.553 65.771 49.7861 65.8439 49.9352C65.9888 50.232 66.085 50.3748 66.0668 50.3104L66.0784 50.351L66.0952 50.3909C66.3866 51.0853 66.1506 52.0387 65.5307 52.4125L65.4826 52.4419L65.4411 52.4762C59.6457 57.2348 53.7331 61.8772 47.881 66.5952C47.1526 67.1482 45.923 67.1741 45.3293 66.542C39.1567 59.479 33.0204 52.3845 26.8769 45.2942L17.3593 38.9697Z" fill="#428BC1"/>
<path fill-rule="evenodd" clip-rule="evenodd" d="M69.2085 29.3804L68.2951 32.6774L68.4226 32.9252C68.711 33.4873 68.6651 34.2265 68.2769 34.6528L68.2383 34.6948L68.2084 34.741C64.2247 40.7323 60.195 46.7026 56.2324 52.717L56.2178 52.7408L56.2033 52.7667C55.9644 53.2021 55.5776 53.6137 55.1544 53.8601C54.7319 54.1072 54.3021 54.1996 53.849 54.0932H53.8446L53.8417 54.0918C53.2881 53.9686 52.6901 53.4198 51.8138 52.9564C43.0283 47.5608 34.269 42.1211 25.5017 36.6905C21.7722 35.6237 17.9014 34.5163 14.5186 33.5006L51.7628 56.4473L51.7752 56.4543L51.7868 56.462C54.0734 57.757 57.1706 56.9625 58.4956 54.7582L58.4774 54.7883C62.6673 48.5191 66.8973 42.2688 71.0675 35.9793L71.0806 35.9611L71.0915 35.9408C72.1667 34.0802 71.7573 31.6673 70.1424 30.2197L69.2085 29.3804Z" fill="#428BC1"/>
</g>
<defs>
<clipPath id="clip0_1_20427">
<rect width="74.6082" height="70" fill="white" transform="translate(0.39209)"/>
</clipPath>
</defs>
</svg>
