<svg width="22" height="24" viewBox="0 0 22 24" fill="none" xmlns="http://www.w3.org/2000/svg">
<path d="M15.3222 12.6243C14.9258 12.9823 14.5866 13.3819 14.3046 13.8231C13.6719 13.4735 13.0125 13.2154 12.3264 13.0489C11.6403 12.8824 10.939 12.795 10.2225 12.7867C9.39917 12.7867 8.614 12.8991 7.86694 13.1238C7.11989 13.3486 6.41857 13.6649 5.76299 14.0728C5.10742 14.4807 4.52044 14.9761 4.00208 15.5588C3.48371 16.1415 3.03015 16.7867 2.64137 17.4943C2.2526 18.2019 1.96292 18.9719 1.77235 19.8044C1.58177 20.6368 1.47886 21.4943 1.46362 22.3767H0C0 21.1613 0.163895 19.9917 0.491684 18.8678C0.819473 17.744 1.2921 16.7159 1.90956 15.7836C2.52703 14.8512 3.26265 14.0354 4.11642 13.3361C4.9702 12.6368 5.93832 12.0999 7.02079 11.7253C6.60915 11.4256 6.24324 11.0801 5.92308 10.6889C5.60291 10.2976 5.32848 9.87305 5.09979 9.41519C4.8711 8.95734 4.69577 8.47451 4.5738 7.9667C4.45184 7.4589 4.39085 6.93444 4.39085 6.39334C4.39085 5.51093 4.54331 4.68262 4.84823 3.90843C5.15315 3.13424 5.57242 2.45994 6.10603 1.88554C6.63964 1.31113 7.26091 0.853278 7.96985 0.511967C8.67879 0.170656 9.43728 0 10.2453 0C11.0534 0 11.8119 0.166493 12.5208 0.49948C13.2297 0.832466 13.8472 1.29032 14.3732 1.87305C14.8992 2.45578 15.3184 3.13424 15.631 3.90843C15.9435 4.68262 16.0998 5.51093 16.0998 6.39334C16.0998 6.93444 16.0388 7.4589 15.9168 7.9667C15.7949 8.47451 15.6234 8.9615 15.4023 9.42768C15.1812 9.89386 14.903 10.3184 14.5676 10.7014C14.2322 11.0843 13.8624 11.4298 13.4584 11.7378C13.7862 11.8543 14.1026 11.9834 14.4075 12.1249C14.7124 12.2664 15.0173 12.4329 15.3222 12.6243ZM5.85447 6.39334C5.85447 7.05931 5.96881 7.6795 6.1975 8.2539C6.4262 8.8283 6.73874 9.33611 7.13514 9.77732C7.53153 10.2185 7.99653 10.564 8.53015 10.8137C9.06376 11.0635 9.63548 11.1883 10.2453 11.1883C10.8475 11.1883 11.4155 11.0635 11.9491 10.8137C12.4827 10.564 12.9477 10.2227 13.3441 9.7898C13.7405 9.35692 14.0568 8.84912 14.2931 8.26639C14.5295 7.68366 14.6438 7.05931 14.6362 6.39334C14.6362 5.73569 14.5218 5.1155 14.2931 4.53278C14.0644 3.95005 13.7519 3.44225 13.3555 3.00937C12.9591 2.57648 12.4903 2.23101 11.9491 1.97294C11.4078 1.71488 10.8399 1.59001 10.2453 1.59834C9.63548 1.59834 9.06757 1.7232 8.54158 1.97294C8.01559 2.22268 7.55059 2.564 7.14657 2.99688C6.74255 3.42976 6.4262 3.94173 6.1975 4.53278C5.96881 5.12383 5.85447 5.74402 5.85447 6.39334ZM18.3181 12.7742C18.8212 12.7742 19.2976 12.8783 19.7474 13.0864C20.1972 13.2945 20.5859 13.5817 20.9137 13.948C21.2415 14.3143 21.5045 14.7388 21.7027 15.2216C21.9009 15.7045 22 16.2248 22 16.7825C22 17.3319 21.9047 17.8481 21.7141 18.3309C21.5236 18.8137 21.2606 19.2383 20.9252 19.6046C20.5897 19.9709 20.1972 20.2581 19.7474 20.4662C19.2976 20.6743 18.8212 20.7825 18.3181 20.7908C17.5787 20.7908 16.904 20.5661 16.2942 20.1165L12.9553 23.7627C12.8105 23.9209 12.6389 24 12.4407 24C12.2425 24 12.071 23.9209 11.9262 23.7627C11.7814 23.6046 11.7089 23.4173 11.7089 23.2008C11.7089 22.9844 11.7814 22.7971 11.9262 22.6389L15.2651 18.9927C14.8534 18.3267 14.6476 17.59 14.6476 16.7825C14.6476 16.2331 14.7429 15.717 14.9335 15.2341C15.124 14.7513 15.387 14.3267 15.7225 13.9605C16.0579 13.5942 16.4466 13.307 16.8888 13.0989C17.3309 12.8907 17.8073 12.7825 18.3181 12.7742ZM18.3181 19.1925C18.623 19.1925 18.9089 19.1301 19.1757 19.0052C19.4425 18.8803 19.675 18.7097 19.8732 18.4932C20.0714 18.2768 20.2315 18.0187 20.3534 17.719C20.4754 17.4194 20.5364 17.1072 20.5364 16.7825C20.5364 16.4495 20.4792 16.1374 20.3649 15.846C20.2505 15.5546 20.0904 15.3007 19.8846 15.0843C19.6788 14.8678 19.4463 14.693 19.1871 14.5598C18.9279 14.4266 18.6383 14.3642 18.3181 14.3725C18.0132 14.3725 17.7273 14.435 17.4605 14.5598C17.1937 14.6847 16.9612 14.8595 16.763 15.0843C16.5648 15.3091 16.4047 15.563 16.2827 15.846C16.1608 16.129 16.1036 16.4412 16.1112 16.7825C16.1112 17.1155 16.1684 17.4277 16.2827 17.719C16.3971 18.0104 16.5534 18.2643 16.7516 18.4807C16.9498 18.6972 17.1861 18.872 17.4605 19.0052C17.7349 19.1384 18.0208 19.2008 18.3181 19.1925Z" fill="black"/>
</svg>
