<svg width="22" height="15" viewBox="0 0 22 15" fill="none" xmlns="http://www.w3.org/2000/svg">
<path fill-rule="evenodd" clip-rule="evenodd" d="M3.44458 11.6765V13.7995C3.44458 14.081 3.55642 14.351 3.75549 14.55C3.95455 14.7491 4.22455 14.861 4.50608 14.861H20.4285C20.7101 14.861 20.98 14.7491 21.1791 14.55C21.3782 14.351 21.49 14.081 21.49 13.7995V5.30748C21.49 5.02596 21.3782 4.75596 21.1791 4.55689C20.98 4.35782 20.7101 4.24599 20.4285 4.24599H19.107V6.1933C19.2526 6.41007 19.4493 6.58769 19.6798 6.71052C19.9102 6.83334 20.1674 6.89759 20.4285 6.89761V12.2072C20.0078 12.2096 19.6051 12.3784 19.3085 12.6767C19.0118 12.9751 18.8453 13.3787 18.8453 13.7995H6.09567C6.09037 13.381 5.92057 12.9815 5.62299 12.6873C5.32542 12.3931 4.924 12.2279 4.50555 12.2274V11.6765H3.44458ZM9.02274 6.36898C9.30427 6.36898 9.57427 6.25714 9.77334 6.05807C9.9724 5.85901 10.0842 5.58901 10.0842 5.30748C10.0842 5.02596 9.9724 4.75596 9.77334 4.55689C9.57427 4.35782 9.30427 4.24599 9.02274 4.24599C8.74122 4.24599 8.47122 4.35782 8.27215 4.55689C8.07308 4.75596 7.96125 5.02596 7.96125 5.30748C7.96125 5.58901 8.07308 5.85901 8.27215 6.05807C8.47122 6.25714 8.74122 6.36898 9.02274 6.36898ZM9.02274 7.43048C9.5858 7.43048 10.1258 7.2068 10.5239 6.80867C10.9221 6.41053 11.1457 5.87054 11.1457 5.30748C11.1457 4.74443 10.9221 4.20444 10.5239 3.8063C10.1258 3.40816 9.5858 3.18449 9.02274 3.18449C8.45969 3.18449 7.9197 3.40816 7.52156 3.8063C7.12342 4.20444 6.89975 4.74443 6.89975 5.30748C6.89975 5.87054 7.12342 6.41053 7.52156 6.80867C7.9197 7.2068 8.45969 7.43048 9.02274 7.43048Z" fill="black"/>
<path fill-rule="evenodd" clip-rule="evenodd" d="M1.0615 0C0.77997 0 0.509974 0.111836 0.310905 0.310905C0.111836 0.509975 0 0.77997 0 1.0615V9.55347C0 9.835 0.111836 10.105 0.310905 10.3041C0.509974 10.5031 0.77997 10.615 1.0615 10.615H16.9839C17.2655 10.615 17.5355 10.5031 17.7345 10.3041C17.9336 10.105 18.0454 9.835 18.0454 9.55347V1.0615C18.0454 0.77997 17.9336 0.509975 17.7345 0.310905C17.5355 0.111836 17.2655 0 16.9839 0H1.0615ZM2.65268 1.0615H15.3922C15.3928 1.48333 15.5607 1.88769 15.8591 2.18582C16.1576 2.48395 16.5621 2.65148 16.9839 2.65162V7.96122C16.5632 7.96361 16.1605 8.13241 15.8639 8.43076C15.5672 8.72911 15.4007 9.13274 15.4007 9.55347H2.65162C2.64632 9.13505 2.47652 8.73554 2.17895 8.44134C1.88137 8.14715 1.47995 7.98192 1.0615 7.98139V2.65374C1.4836 2.65346 1.88832 2.48558 2.1867 2.18701C2.48507 1.88843 2.65268 1.4836 2.65268 1.0615Z" fill="black"/>
</svg>
