<svg width="19" height="18" viewBox="0 0 19 18" fill="none" xmlns="http://www.w3.org/2000/svg">
<path d="M17.3452 11.7784L17.7243 11.4167L17.3452 11.0549L14.5382 8.37637L14.193 8.04698L13.8478 8.37637L11.0408 11.0549L10.6617 11.4167L11.0408 11.7784L11.8268 12.5284L12.172 12.8578L12.5171 12.5284L13.1316 11.942V15.1667V15.6667H13.6316H14.7544H15.2544V15.1667V11.942L15.8689 12.5284L16.2141 12.8578L16.5592 12.5284L17.3452 11.7784Z" fill="#418DFF" stroke="#418DFF"/>
<path d="M7.15277 16.4346L7.55447 16.6631L7.81384 16.2806L8.43138 15.3699L8.73623 14.9203L8.263 14.6537L2.62281 11.4757V5.52444L7.73685 2.64523L12.8509 5.52444V8.5V9H13.3509H14.4737H14.9737V8.5V5.23214C14.9737 4.63922 14.6171 4.17721 14.1807 3.89956L14.1693 3.89234L14.1576 3.88573L8.55432 0.731083C8.31067 0.578851 8.05274 0.5 7.73685 0.5C7.42096 0.5 7.16303 0.578851 6.91938 0.731083L1.32918 3.87837C0.818351 4.13071 0.5 4.68173 0.5 5.23214V11.7679C0.5 12.3608 0.856581 12.8228 1.29303 13.1004L1.30344 13.1071L1.31417 13.1132L7.15277 16.4346Z" fill="#418DFF" stroke="#418DFF"/>
</svg>
