<svg width="24" height="25" viewBox="0 0 24 25" fill="none" xmlns="http://www.w3.org/2000/svg">
<g id="formkit:people" clip-path="url(#clip0_739_3573)">
<path id="Vector" d="M12.2812 10.9375C11.2452 10.9375 10.2517 10.5259 9.51911 9.79339C8.78655 9.06082 8.375 8.06725 8.375 7.03125C8.375 5.99525 8.78655 5.00168 9.51911 4.26911C10.2517 3.53655 11.2452 3.125 12.2812 3.125C13.3173 3.125 14.3108 3.53655 15.0434 4.26911C15.7759 5.00168 16.1875 5.99525 16.1875 7.03125C16.1875 8.06725 15.7759 9.06082 15.0434 9.79339C14.3108 10.5259 13.3173 10.9375 12.2812 10.9375ZM12.2812 4.6875C10.9844 4.6875 9.9375 5.73438 9.9375 7.03125C9.9375 8.32812 10.9844 9.375 12.2812 9.375C13.5781 9.375 14.625 8.32812 14.625 7.03125C14.625 5.73438 13.5781 4.6875 12.2812 4.6875Z" fill="#868585"/>
<path id="Vector_2" d="M21.6562 17.1875C21.2188 17.1875 20.875 16.8438 20.875 16.4062C20.875 15.9688 21.2188 15.625 21.6562 15.625C22.0938 15.625 22.4375 15.2812 22.4375 14.8438C22.4375 13.8077 22.0259 12.8142 21.2934 12.0816C20.5608 11.3491 19.5673 10.9375 18.5312 10.9375H16.9688C16.5312 10.9375 16.1875 10.5938 16.1875 10.1562C16.1875 9.71875 16.5312 9.375 16.9688 9.375C18.2656 9.375 19.3125 8.32812 19.3125 7.03125C19.3125 5.73438 18.2656 4.6875 16.9688 4.6875C16.5312 4.6875 16.1875 4.34375 16.1875 3.90625C16.1875 3.46875 16.5312 3.125 16.9688 3.125C18.0048 3.125 18.9983 3.53655 19.7309 4.26911C20.4634 5.00168 20.875 5.99525 20.875 7.03125C20.875 8 20.5312 8.875 19.9375 9.5625C22.2656 10.1875 24 12.3125 24 14.8438C24 16.1406 22.9531 17.1875 21.6562 17.1875ZM2.90625 17.1875C1.60938 17.1875 0.5625 16.1406 0.5625 14.8438C0.5625 12.3125 2.28125 10.1875 4.625 9.5625C4.04687 8.875 3.6875 8 3.6875 7.03125C3.6875 5.99525 4.09905 5.00168 4.83161 4.26911C5.56418 3.53655 6.55775 3.125 7.59375 3.125C8.03125 3.125 8.375 3.46875 8.375 3.90625C8.375 4.34375 8.03125 4.6875 7.59375 4.6875C6.29688 4.6875 5.25 5.73438 5.25 7.03125C5.25 8.32812 6.29688 9.375 7.59375 9.375C8.03125 9.375 8.375 9.71875 8.375 10.1562C8.375 10.5938 8.03125 10.9375 7.59375 10.9375H6.03125C4.99525 10.9375 4.00168 11.3491 3.26911 12.0816C2.53655 12.8142 2.125 13.8077 2.125 14.8438C2.125 15.2812 2.46875 15.625 2.90625 15.625C3.34375 15.625 3.6875 15.9688 3.6875 16.4062C3.6875 16.8438 3.34375 17.1875 2.90625 17.1875ZM16.9688 21.875H7.59375C6.29688 21.875 5.25 20.8281 5.25 19.5312V17.9688C5.25 14.9531 7.70312 12.5 10.7188 12.5H13.8438C16.8594 12.5 19.3125 14.9531 19.3125 17.9688V19.5312C19.3125 20.8281 18.2656 21.875 16.9688 21.875ZM10.7188 14.0625C9.68275 14.0625 8.68918 14.4741 7.95661 15.2066C7.22405 15.9392 6.8125 16.9327 6.8125 17.9688V19.5312C6.8125 19.9688 7.15625 20.3125 7.59375 20.3125H16.9688C17.4062 20.3125 17.75 19.9688 17.75 19.5312V17.9688C17.75 16.9327 17.3384 15.9392 16.6059 15.2066C15.8733 14.4741 14.8798 14.0625 13.8438 14.0625H10.7188Z" fill="#868585"/>
</g>
<defs>
<clipPath id="clip0_739_3573">
<rect width="23.4375" height="25" fill="white" transform="translate(0.5625)"/>
</clipPath>
</defs>
</svg>
