<svg width="17" height="17" viewBox="0 0 17 17" fill="none" xmlns="http://www.w3.org/2000/svg">
<path d="M8.50008 0.166672C9.60515 0.166672 10.665 0.605658 11.4464 1.38706C12.2278 2.16846 12.6667 3.22827 12.6667 4.33334C12.6667 5.43841 12.2278 6.49822 11.4464 7.27962C10.665 8.06102 9.60515 8.5 8.50008 8.5C7.39501 8.5 6.3352 8.06102 5.5538 7.27962C4.7724 6.49822 4.33341 5.43841 4.33341 4.33334C4.33341 3.22827 4.7724 2.16846 5.5538 1.38706C6.3352 0.605658 7.39501 0.166672 8.50008 0.166672ZM8.50008 10.5833C13.1042 10.5833 16.8334 12.4479 16.8334 14.75V16.8333H0.166748V14.75C0.166748 12.4479 3.89591 10.5833 8.50008 10.5833Z" fill="#000"/>
</svg>
