<svg width="18" height="17" viewBox="0 0 18 17" fill="none" xmlns="http://www.w3.org/2000/svg">
<path d="M2.73047 3.0625H15.2305C15.3765 3.06243 15.5224 3.0717 15.6672 3.09024C15.6181 2.74562 15.4997 2.41451 15.3192 2.11687C15.1387 1.81924 14.8998 1.56124 14.6168 1.35844C14.3339 1.15564 14.0129 1.01223 13.673 0.936867C13.3332 0.861501 12.9816 0.855738 12.6395 0.919924L2.35938 2.675H2.34766C1.70237 2.7984 1.12854 3.16349 0.743359 3.6957C1.32367 3.28294 2.01834 3.06158 2.73047 3.0625V3.0625ZM15.2305 4H2.73047C2.06765 4.00073 1.43219 4.26435 0.963501 4.73303C0.494817 5.20172 0.231193 5.83718 0.230469 6.5V14C0.231193 14.6628 0.494817 15.2983 0.963501 15.767C1.43219 16.2357 2.06765 16.4993 2.73047 16.5H15.2305C15.8933 16.4993 16.5288 16.2357 16.9974 15.767C17.4661 15.2983 17.7297 14.6628 17.7305 14V6.5C17.7297 5.83718 17.4661 5.20172 16.9974 4.73303C16.5288 4.26435 15.8933 4.00073 15.2305 4V4ZM13.375 11.5C13.1278 11.5 12.8861 11.4267 12.6805 11.2893C12.475 11.152 12.3148 10.9568 12.2202 10.7284C12.1255 10.4999 12.1008 10.2486 12.149 10.0061C12.1972 9.76366 12.3163 9.54093 12.4911 9.36612C12.6659 9.1913 12.8887 9.07225 13.1311 9.02402C13.3736 8.97579 13.6249 9.00054 13.8534 9.09515C14.0818 9.18976 14.277 9.34998 14.4143 9.55554C14.5517 9.7611 14.625 10.0028 14.625 10.25C14.625 10.5815 14.4933 10.8995 14.2589 11.1339C14.0245 11.3683 13.7065 11.5 13.375 11.5Z" fill="#CCCCCC"/>
</svg>
