<svg width="23" height="23" viewBox="0 0 23 23" fill="none" xmlns="http://www.w3.org/2000/svg">
<g id="ion:wallet">
<path id="Vector" d="M4.29004 4.67188H18.665C18.833 4.6718 19.0007 4.68245 19.1673 4.70377C19.1108 4.30746 18.9747 3.92668 18.7671 3.5844C18.5595 3.24212 18.2847 2.94543 17.9594 2.71221C17.634 2.47898 17.2648 2.31407 16.874 2.2274C16.4831 2.14072 16.0788 2.1341 15.6854 2.20791L3.86328 4.22625H3.8498C3.10773 4.36816 2.44782 4.78801 2.00486 5.40006C2.67222 4.92538 3.47109 4.67082 4.29004 4.67188ZM18.665 5.75H4.29004C3.5278 5.75083 2.79701 6.054 2.25803 6.59299C1.71904 7.13197 1.41587 7.86276 1.41504 8.625V17.25C1.41587 18.0122 1.71904 18.743 2.25803 19.282C2.79701 19.821 3.5278 20.1242 4.29004 20.125H18.665C19.4273 20.1242 20.1581 19.821 20.6971 19.282C21.236 18.743 21.5392 18.0122 21.54 17.25V8.625C21.5392 7.86276 21.236 7.13197 20.6971 6.59299C20.1581 6.054 19.4273 5.75083 18.665 5.75ZM16.5312 14.375C16.2469 14.375 15.969 14.2907 15.7326 14.1327C15.4962 13.9748 15.312 13.7503 15.2032 13.4876C15.0944 13.2249 15.0659 12.9359 15.1214 12.6571C15.1768 12.3782 15.3137 12.1221 15.5148 11.921C15.7158 11.72 15.972 11.5831 16.2508 11.5276C16.5297 11.4722 16.8187 11.5006 17.0814 11.6094C17.344 11.7182 17.5685 11.9025 17.7265 12.1389C17.8844 12.3753 17.9688 12.6532 17.9688 12.9375C17.9688 13.3187 17.8173 13.6844 17.5477 13.954C17.2781 14.2235 16.9125 14.375 16.5312 14.375Z" fill="#525252"/>
<path id="Vector_2" d="M1.4375 11.6572V7.1875C1.4375 6.21404 1.97656 4.58203 3.84756 4.2285C5.43555 3.93066 7.00781 3.93066 7.00781 3.93066C7.00781 3.93066 8.04102 4.64941 7.1875 4.64941C6.33398 4.64941 6.35645 5.75 7.1875 5.75C8.01855 5.75 7.1875 6.80566 7.1875 6.80566L3.84082 10.6016L1.4375 11.6572Z" fill="#525252"/>
</g>
</svg>
