<svg width="25" height="25" viewBox="0 0 25 25" fill="none" xmlns="http://www.w3.org/2000/svg">
<g id="uil:money-withdraw">
<path id="Vector" d="M12.4998 12.5C11.8818 12.5 11.2776 12.6833 10.7637 13.0267C10.2498 13.37 9.84924 13.8581 9.61271 14.4291C9.37619 15.0001 9.3143 15.6285 9.43488 16.2347C9.55546 16.8408 9.85309 17.3977 10.2901 17.8347C10.7272 18.2717 11.284 18.5694 11.8902 18.69C12.4964 18.8105 13.1247 18.7486 13.6957 18.5121C14.2667 18.2756 14.7548 17.8751 15.0982 17.3612C15.4416 16.8473 15.6248 16.2431 15.6248 15.625C15.6248 14.7962 15.2956 14.0013 14.7095 13.4153C14.1235 12.8292 13.3286 12.5 12.4998 12.5ZM12.4998 16.6667C12.2938 16.6667 12.0924 16.6056 11.9211 16.4911C11.7498 16.3767 11.6163 16.214 11.5375 16.0236C11.4586 15.8333 11.438 15.6238 11.4782 15.4218C11.5184 15.2197 11.6176 15.0341 11.7633 14.8884C11.9089 14.7428 12.0946 14.6435 12.2966 14.6033C12.4987 14.5632 12.7081 14.5838 12.8985 14.6626C13.0888 14.7415 13.2515 14.875 13.366 15.0463C13.4804 15.2176 13.5415 15.419 13.5415 15.625C13.5415 15.9013 13.4318 16.1662 13.2364 16.3616C13.0411 16.5569 12.7761 16.6667 12.4998 16.6667ZM11.7603 10.1146C11.8593 10.2094 11.9761 10.2838 12.104 10.3333C12.2287 10.3884 12.3635 10.4169 12.4998 10.4169C12.6362 10.4169 12.771 10.3884 12.8957 10.3333C13.0235 10.2838 13.1404 10.2094 13.2394 10.1146L15.6248 7.77083C15.8265 7.56916 15.9398 7.29563 15.9398 7.01042C15.9398 6.7252 15.8265 6.45167 15.6248 6.25C15.4232 6.04832 15.1496 5.93502 14.8644 5.93502C14.5792 5.93502 14.3057 6.04832 14.104 6.25L13.5415 6.86458V3.125C13.5415 2.84873 13.4318 2.58378 13.2364 2.38843C13.0411 2.19308 12.7761 2.08333 12.4998 2.08333C12.2236 2.08333 11.9586 2.19308 11.7633 2.38843C11.5679 2.58378 11.4582 2.84873 11.4582 3.125V6.86458L10.8957 6.25C10.694 6.04832 10.4205 5.93502 10.1353 5.93502C9.85004 5.93502 9.57651 6.04832 9.37484 6.25C9.17316 6.45167 9.05986 6.7252 9.05986 7.01042C9.05986 7.29563 9.17316 7.56916 9.37484 7.77083L11.7603 10.1146ZM19.7915 15.625C19.7915 15.419 19.7304 15.2176 19.616 15.0463C19.5015 14.875 19.3388 14.7415 19.1485 14.6626C18.9581 14.5838 18.7487 14.5632 18.5466 14.6033C18.3446 14.6435 18.1589 14.7428 18.0133 14.8884C17.8676 15.0341 17.7684 15.2197 17.7282 15.4218C17.688 15.6238 17.7086 15.8333 17.7875 16.0236C17.8663 16.214 17.9998 16.3767 18.1711 16.4911C18.3424 16.6056 18.5438 16.6667 18.7498 16.6667C19.0261 16.6667 19.2911 16.5569 19.4864 16.3616C19.6818 16.1662 19.7915 15.9013 19.7915 15.625ZM20.8332 8.33333H17.7082C17.4319 8.33333 17.167 8.44308 16.9716 8.63843C16.7762 8.83378 16.6665 9.09873 16.6665 9.375C16.6665 9.65127 16.7762 9.91622 16.9716 10.1116C17.167 10.3069 17.4319 10.4167 17.7082 10.4167H20.8332C21.1094 10.4167 21.3744 10.5264 21.5697 10.7218C21.7651 10.9171 21.8748 11.1821 21.8748 11.4583V19.7917C21.8748 20.0679 21.7651 20.3329 21.5697 20.5282C21.3744 20.7236 21.1094 20.8333 20.8332 20.8333H4.1665C3.89024 20.8333 3.62528 20.7236 3.42993 20.5282C3.23458 20.3329 3.12484 20.0679 3.12484 19.7917V11.4583C3.12484 11.1821 3.23458 10.9171 3.42993 10.7218C3.62528 10.5264 3.89024 10.4167 4.1665 10.4167H7.2915C7.56777 10.4167 7.83272 10.3069 8.02807 10.1116C8.22342 9.91622 8.33317 9.65127 8.33317 9.375C8.33317 9.09873 8.22342 8.83378 8.02807 8.63843C7.83272 8.44308 7.56777 8.33333 7.2915 8.33333H4.1665C3.3377 8.33333 2.54285 8.66257 1.9568 9.24862C1.37074 9.83467 1.0415 10.6295 1.0415 11.4583V19.7917C1.0415 20.6205 1.37074 21.4153 1.9568 22.0014C2.54285 22.5874 3.3377 22.9167 4.1665 22.9167H20.8332C21.662 22.9167 22.4568 22.5874 23.0429 22.0014C23.6289 21.4153 23.9582 20.6205 23.9582 19.7917V11.4583C23.9582 10.6295 23.6289 9.83467 23.0429 9.24862C22.4568 8.66257 21.662 8.33333 20.8332 8.33333ZM5.20817 15.625C5.20817 15.831 5.26926 16.0324 5.38372 16.2037C5.49818 16.375 5.66087 16.5085 5.85121 16.5874C6.04155 16.6662 6.25099 16.6868 6.45306 16.6467C6.65512 16.6065 6.84073 16.5072 6.98641 16.3616C7.13209 16.2159 7.2313 16.0303 7.27149 15.8282C7.31168 15.6262 7.29105 15.4167 7.21221 15.2264C7.13337 15.036 6.99986 14.8733 6.82856 14.7589C6.65725 14.6444 6.45586 14.5833 6.24984 14.5833C5.97357 14.5833 5.70862 14.6931 5.51327 14.8884C5.31792 15.0838 5.20817 15.3487 5.20817 15.625Z" fill="black"/>
</g>
</svg>
